{"glyphs":{"0":{"ha":841,"x_min":14,"x_max":827,"o":"m 14 319 q 47 279 34 298 q 67 236 60 260 q 191 55 98 122 q 420 -11 285 -11 q 650 55 556 -11 q 774 236 743 122 q 794 279 781 260 q 827 319 807 298 q 786 313 802 319 q 787 339 787 326 q 760 482 787 417 q 686 593 734 547 q 570 664 638 638 q 420 689 502 689 q 271 664 339 689 q 155 593 202 638 q 81 482 107 547 q 54 339 54 417 q 55 313 54 326 q 14 319 39 319 m 302 465 q 420 513 347 513 q 538 465 494 513 q 583 339 583 417 q 538 213 583 261 q 420 165 494 165 q 302 213 347 165 q 258 339 258 261 q 280 441 258 417 q 302 465 302 465 "},"1":{"ha":461,"x_min":34,"x_max":401,"o":"m 34 454 l 61 454 q 114 438 92 454 q 136 400 136 422 l 136 366 q 134 339 136 349 q 126 324 132 329 q 114 318 120 319 q 95 317 108 317 q 124 274 113 303 q 136 212 136 244 l 136 109 q 120 45 136 76 q 75 0 105 13 l 282 0 q 399 -16 370 0 l 401 -11 q 355 43 371 8 q 339 121 339 78 l 339 212 q 351 274 339 244 q 380 317 362 303 q 361 318 367 317 q 349 324 354 319 q 341 339 343 329 q 339 366 339 349 l 339 563 q 389 678 339 646 l 282 678 l 34 483 l 34 454 "},"2":{"ha":766,"x_min":4,"x_max":723,"o":"m 4 573 l 71 514 q 125 433 125 466 q 124 426 125 430 q 238 503 169 474 q 362 533 307 533 q 434 518 406 533 q 461 473 461 503 q 434 416 461 446 q 357 350 408 387 q 280 330 329 330 q 292 315 292 326 q 288 303 292 308 q 199 241 236 268 q 137 191 162 214 q 97 150 112 168 q 74 114 82 133 q 63 79 66 95 q 61 42 61 64 l 61 -11 l 64 -11 q 126 0 75 0 l 699 0 l 699 72 q 711 168 699 104 q 723 257 723 232 l 716 257 q 682 191 716 218 q 602 163 648 163 l 355 163 q 394 196 371 179 q 433 225 416 213 q 478 255 450 236 q 521 283 507 273 q 601 303 550 303 q 587 323 587 309 q 595 341 587 333 q 665 488 665 408 q 641 575 665 536 q 577 638 617 614 q 484 676 536 663 q 373 689 432 689 q 250 671 310 689 q 237 677 241 671 q 232 694 232 683 q 192 663 219 688 q 151 629 164 637 q 76 587 105 601 q 21 574 46 574 q 5 575 12 574 l 4 573 "},"3":{"ha":814,"x_min":-7,"x_max":766,"o":"m -7 415 q 23 346 -7 372 q 99 319 52 319 q 183 350 145 319 q 244 432 221 381 q 251 449 248 442 q 262 467 255 455 q 278 486 270 478 q 300 504 287 494 q 330 519 314 513 q 368 529 346 525 q 416 533 390 533 q 488 518 460 533 q 515 473 515 503 q 503 442 515 456 q 475 427 490 427 l 332 427 l 332 264 l 502 264 q 544 250 525 264 q 563 217 563 235 q 546 180 563 195 q 500 158 528 165 q 437 151 472 151 q 298 178 364 151 q 238 223 263 193 q 213 282 213 252 l 39 132 q 64 121 50 130 q 95 99 79 112 q 133 72 112 87 q 184 42 154 57 q 248 16 213 28 q 333 -3 283 4 q 438 -11 382 -11 q 537 -3 490 -11 q 627 21 585 5 q 700 62 669 38 q 748 121 730 86 q 766 197 766 155 q 763 222 766 209 q 753 282 753 265 q 766 320 753 304 q 707 308 740 320 q 623 358 670 339 q 692 417 665 382 q 719 488 719 453 q 707 552 719 522 q 681 646 682 612 q 663 637 675 646 q 646 628 650 628 q 548 673 605 658 q 427 689 492 689 q 329 681 375 689 q 251 660 282 672 q 191 632 220 647 q 144 605 163 617 q 107 584 126 592 q 75 575 89 575 l 75 570 q 172 521 134 556 q 210 439 210 486 q 179 360 210 393 q 99 328 147 328 q 34 353 61 328 q 7 412 7 377 q 21 449 7 434 q 56 464 35 464 q 82 453 71 464 q 92 427 92 443 q 118 439 107 427 q 129 468 129 452 q 113 499 129 486 q 75 513 96 513 q 17 484 40 513 q -7 415 -7 456 "},"4":{"ha":739,"x_min":14,"x_max":699,"o":"m 14 111 q 102 122 45 122 l 400 122 l 400 -1 q 396 -49 400 -19 q 392 -95 392 -79 q 359 -174 392 -141 q 281 -206 327 -206 q 210 -178 239 -206 q 182 -110 182 -150 q 239 4 182 -46 l 238 5 q 168 -35 197 -2 q 140 -110 140 -67 q 180 -190 140 -157 q 278 -224 221 -224 q 368 -186 331 -224 q 406 -95 406 -148 q 429 -26 406 -52 q 496 0 453 0 l 582 0 q 667 -5 623 0 q 631 24 646 3 q 610 67 616 45 q 604 109 604 88 l 604 122 l 699 122 l 699 304 q 631 271 682 271 l 604 271 l 604 590 l 570 590 q 499 426 535 490 q 400 292 464 362 l 400 271 l 273 271 q 393 453 327 331 q 486 667 458 574 q 499 749 499 709 q 498 766 499 754 l 493 765 q 464 702 493 726 q 394 678 434 678 q 246 734 323 678 q 200 762 221 752 q 157 771 179 771 q 94 749 120 771 q 67 695 67 727 q 91 633 67 659 q 148 607 115 607 q 182 620 168 607 q 196 650 196 632 q 188 670 196 662 q 166 679 179 679 q 156 656 166 665 q 130 647 145 647 q 95 662 110 647 q 81 698 81 677 q 103 742 81 724 q 157 761 125 761 q 227 728 198 761 q 255 651 255 696 q 209 515 255 606 q 102 335 163 424 q 71 291 88 314 q 45 256 53 268 q 28 230 36 245 q 17 201 20 215 q 14 168 14 187 l 14 111 "},"5":{"ha":814,"x_min":38,"x_max":769,"o":"m 38 62 q 65 67 52 67 q 103 59 82 67 q 149 40 124 51 q 204 17 174 28 q 279 -3 234 5 q 377 -11 325 -11 q 571 17 487 -11 q 700 94 654 44 q 746 210 746 144 q 750 280 746 258 q 769 320 754 301 q 715 311 738 320 q 609 396 679 365 q 454 427 539 427 l 271 427 l 271 509 l 566 509 q 643 499 612 509 q 701 461 674 490 l 701 608 q 718 693 701 640 q 734 772 734 747 q 710 833 734 808 q 651 859 685 859 q 589 835 615 859 q 563 778 563 811 q 575 744 563 758 q 605 729 588 729 q 626 738 617 729 q 634 759 634 747 q 612 770 621 759 q 602 796 602 781 q 617 830 602 816 q 653 845 632 845 q 703 823 683 845 q 724 772 724 802 q 692 706 724 733 q 616 678 661 678 l 95 678 l 95 278 l 468 278 q 521 260 499 278 q 543 217 543 242 q 498 169 543 188 q 393 151 454 151 q 278 171 332 151 q 195 233 224 192 l 94 145 q 55 104 66 122 q 38 62 43 86 "},"6":{"ha":800,"x_min":14,"x_max":854,"o":"m 14 319 q 68 236 56 277 q 202 55 101 122 q 448 -11 302 -11 q 546 1 498 -11 q 632 33 594 12 q 699 82 670 54 q 744 145 728 110 q 760 217 760 180 q 763 282 760 263 q 783 320 767 301 q 737 313 757 320 q 641 402 707 370 q 486 434 575 434 q 397 418 438 434 q 333 374 356 402 q 309 313 309 346 q 321 258 309 284 q 359 215 333 233 q 419 198 385 198 l 419 208 q 379 218 394 208 q 363 243 363 229 q 387 273 363 260 q 458 285 411 285 q 527 263 498 285 q 556 210 556 241 q 524 164 556 183 q 448 145 493 145 q 310 199 362 145 q 257 342 257 253 q 310 470 257 421 q 448 519 363 519 q 569 501 517 519 q 675 444 622 483 q 668 471 668 460 q 691 526 668 493 q 774 612 714 559 q 854 750 854 676 q 824 829 854 796 q 749 861 793 861 q 680 837 709 861 q 651 780 651 813 q 665 742 651 758 q 696 726 678 726 q 725 736 713 726 q 736 762 736 747 q 710 773 721 762 q 699 800 699 784 q 714 834 699 820 q 751 848 730 848 q 815 819 788 848 q 841 750 841 790 q 821 683 841 714 q 765 621 801 652 q 734 611 752 611 q 696 619 719 611 q 648 638 674 627 q 592 661 622 650 q 522 681 562 673 q 441 689 482 689 q 285 663 357 689 q 163 591 214 637 q 83 480 112 545 q 54 339 55 415 q 55 313 54 326 q 14 319 39 319 "},"7":{"ha":699,"x_min":41,"x_max":718,"o":"m 41 415 q 64 347 41 370 q 121 323 88 323 q 180 345 154 323 q 205 402 205 367 q 192 437 205 422 q 162 451 180 451 q 142 442 151 451 q 133 421 133 434 q 156 410 146 421 q 165 385 165 400 q 151 349 165 362 q 116 337 137 337 q 70 357 90 337 q 50 415 50 378 q 81 481 50 454 q 157 509 113 509 l 403 509 q 295 367 339 436 q 260 329 278 341 q 220 317 242 317 q 233 282 233 307 q 219 212 233 256 q 197 79 197 143 q 211 -72 197 -9 l 227 -72 q 251 -21 227 -42 q 310 0 275 0 q 382 -6 347 0 q 475 -27 417 -12 q 429 29 445 -2 q 414 88 414 59 l 414 136 q 425 212 414 170 q 460 279 436 251 q 517 317 483 307 q 482 339 482 317 q 491 366 482 351 q 571 498 527 433 q 653 608 616 563 q 697 685 677 635 q 718 772 718 734 l 713 772 q 681 706 713 733 q 605 678 649 678 l 47 678 l 47 547 q 44 478 47 521 q 41 415 41 435 "},"8":{"ha":800,"x_min":47,"x_max":753,"o":"m 47 197 q 137 45 47 100 q 400 -11 226 -11 q 664 45 574 -11 q 753 197 753 100 q 745 237 753 216 q 732 287 732 269 q 746 320 732 306 q 690 310 719 320 q 609 357 654 340 q 679 417 652 382 q 705 488 705 452 q 625 635 705 580 q 400 689 545 689 q 175 635 255 689 q 95 488 95 580 q 121 417 95 452 q 191 357 148 382 q 110 310 146 340 q 55 320 82 320 q 68 287 68 306 q 55 237 68 269 q 47 197 47 216 m 251 217 q 270 250 251 235 q 312 264 289 264 l 488 264 q 530 250 511 264 q 549 217 549 235 q 515 168 549 184 q 400 152 480 152 q 285 168 320 152 q 251 217 251 184 m 298 473 q 325 518 298 503 q 400 533 351 533 q 476 518 450 533 q 502 473 502 503 q 489 442 502 456 q 461 427 476 427 l 339 427 q 311 442 324 427 q 298 473 298 456 "},"9":{"ha":800,"x_min":-35,"x_max":787,"o":"m -35 186 q -12 116 -35 145 q 46 88 12 88 q 84 101 68 88 q 100 133 100 115 q 90 161 100 149 q 64 174 79 174 q 53 148 64 158 q 27 137 42 137 q -7 152 7 137 q -22 189 -22 167 q 1 238 -22 219 q 62 256 24 256 q 130 228 104 256 q 156 162 156 200 q 132 96 156 127 q 61 50 109 66 l 61 45 q 111 39 87 45 q 157 25 135 33 q 205 8 179 16 q 270 -6 230 0 q 359 -12 311 -12 q 599 55 499 -12 q 732 237 699 123 q 752 279 739 260 q 787 319 765 297 q 745 313 761 319 q 746 338 746 326 q 696 521 746 441 q 556 644 647 601 q 346 688 465 688 q 228 669 284 688 q 130 620 171 651 q 65 547 89 589 q 41 460 41 505 q 74 345 41 395 q 170 269 108 296 q 315 243 233 243 q 438 263 377 243 q 542 317 498 284 q 485 202 537 247 q 353 157 433 157 q 291 163 320 157 q 241 179 262 169 q 202 200 220 189 q 167 223 183 212 q 135 244 151 235 q 101 260 119 254 q 62 266 82 266 q -8 244 18 266 q -35 186 -35 222 m 244 467 q 273 513 244 494 q 346 532 302 532 q 491 474 437 532 q 439 416 481 439 q 342 392 397 392 q 273 414 302 392 q 244 467 244 436 "},"\r":{"ha":339,"x_min":0,"x_max":0,"o":""}," ":{"ha":380,"x_min":0,"x_max":0,"o":""},"!":{"ha":339,"x_min":15,"x_max":321,"o":"m 15 891 q 23 852 20 877 q 26 812 26 828 q 38 757 26 791 q 47 732 40 750 q 58 702 54 713 q 67 674 62 691 q 74 639 72 656 q 77 604 77 622 l 85 366 q 84 338 85 348 q 78 324 83 329 q 68 318 74 319 q 50 317 63 317 q 58 311 53 316 q 66 306 64 307 q 72 301 68 304 q 78 295 76 297 q 82 288 79 292 q 85 278 84 283 q 87 267 86 274 q 88 252 88 260 q 91 247 88 249 q 96 244 93 244 l 243 244 q 248 247 246 244 q 251 252 251 249 q 253 274 251 265 q 259 289 254 282 q 265 299 263 296 q 277 308 268 301 q 289 317 286 315 q 271 318 276 317 q 261 324 265 319 q 255 338 256 329 q 254 366 254 348 l 260 582 q 264 614 261 598 q 275 643 268 629 q 293 670 281 658 q 321 689 305 682 l 206 689 q 50 762 84 689 q 39 812 39 786 q 66 882 39 853 q 129 910 92 910 q 166 896 150 910 q 182 863 182 882 q 171 836 182 847 q 144 825 159 825 q 155 799 144 809 q 182 788 165 788 q 215 804 200 788 q 229 842 229 821 q 201 900 229 876 q 132 924 172 924 q 83 912 105 924 q 46 879 61 900 q 31 885 41 879 q 15 891 20 891 m 81 7 q 85 -3 81 1 q 95 -7 90 -7 l 244 -7 q 254 -3 250 -7 q 258 7 258 1 l 258 149 q 254 159 258 155 q 244 163 250 163 l 95 163 q 85 159 90 163 q 81 149 81 155 l 81 7 "},"\"":{"ha":488,"x_min":34,"x_max":480,"o":"m 34 631 q 42 612 34 620 q 61 604 50 604 l 95 604 l 79 414 q 77 373 77 384 q 106 268 77 302 q 91 260 101 260 q 169 230 128 230 q 227 252 204 230 q 251 311 251 274 q 241 337 251 326 q 218 347 232 347 q 201 342 208 347 q 194 331 194 338 q 205 326 201 331 q 210 312 210 320 q 200 291 210 299 q 175 282 189 282 q 127 297 144 282 q 110 342 110 312 q 132 427 110 376 l 210 608 l 210 753 q 206 762 210 758 q 197 766 202 766 l 47 766 q 38 762 42 766 q 34 753 34 758 l 34 631 m 264 631 q 272 612 264 620 q 292 604 280 604 l 326 604 l 313 468 q 311 427 311 446 q 335 336 311 364 q 320 325 329 325 q 361 304 338 313 q 407 296 385 296 q 459 318 437 296 q 480 370 480 339 q 470 396 480 386 q 447 407 461 407 q 430 402 437 407 q 423 391 423 397 q 435 385 430 391 q 439 372 439 380 q 429 350 439 359 q 404 342 418 342 q 358 358 375 342 q 340 403 340 374 q 366 481 340 437 l 441 608 l 441 753 q 437 762 441 758 q 427 766 433 766 l 278 766 q 269 762 273 766 q 264 753 264 758 l 264 631 "},"#":{"ha":631,"x_min":26,"x_max":605,"o":"m 26 146 q 95 163 58 163 l 154 163 l 154 22 l 268 22 l 268 163 l 363 163 l 363 22 l 477 22 l 477 163 l 586 163 l 590 271 l 477 271 l 477 407 l 593 407 l 597 475 q 605 532 598 504 q 536 515 575 515 l 477 515 l 477 658 l 363 658 l 363 515 l 268 515 l 268 658 l 154 658 l 154 515 l 45 515 l 41 407 l 153 407 l 153 339 l 153 271 l 38 271 l 34 203 q 26 146 32 175 m 268 271 l 268 407 l 363 407 l 363 271 l 268 271 "},"$":{"ha":821,"x_min":30,"x_max":805,"o":"m 30 125 q 64 111 43 122 q 110 84 84 99 q 168 52 135 68 q 248 23 200 36 q 350 5 296 10 l 350 -81 l 464 -81 l 464 5 q 674 77 595 17 q 754 217 754 137 q 741 279 754 251 q 711 327 729 307 q 661 364 693 347 q 603 391 629 381 q 536 412 578 401 q 470 427 493 422 q 404 438 446 431 q 346 448 363 445 q 305 458 330 452 q 272 472 281 465 q 263 488 263 479 q 287 514 263 503 q 350 529 311 526 l 350 480 l 464 460 l 464 522 q 512 507 490 516 q 553 484 534 497 q 584 461 573 471 q 614 436 596 452 q 670 397 644 409 q 728 384 695 384 q 783 404 760 384 q 805 453 805 424 q 787 501 805 481 q 742 521 768 521 q 708 508 722 521 q 694 478 694 496 q 702 458 694 467 q 724 449 711 449 q 734 472 724 463 q 760 481 745 481 q 782 472 773 481 q 791 451 791 463 q 773 410 791 427 q 728 393 754 393 q 670 412 692 393 q 649 464 649 431 q 655 494 649 481 q 681 527 662 507 q 749 589 701 547 l 741 597 q 716 589 730 589 q 671 599 699 589 q 616 622 644 609 q 547 649 589 635 q 464 670 505 663 l 464 760 l 350 760 l 350 674 q 233 651 287 669 q 142 605 179 632 q 85 542 105 577 q 64 469 64 507 q 78 406 64 435 q 115 357 92 377 q 171 321 139 337 q 238 294 202 304 q 311 275 274 284 q 385 261 349 267 q 452 250 420 256 q 507 239 484 244 q 545 225 531 233 q 559 208 559 217 q 533 179 559 191 q 464 162 507 167 l 464 214 l 350 232 l 350 163 q 277 181 310 169 q 221 214 244 193 q 193 264 197 236 l 30 125 "},"%":{"ha":1072,"x_min":27,"x_max":1044,"o":"m 83 378 q 231 328 139 328 q 378 378 322 328 q 434 509 434 428 q 378 639 434 590 q 231 689 322 689 q 83 639 139 689 q 27 509 27 590 q 55 403 27 428 q 83 378 83 378 m 183 551 q 231 567 201 567 q 278 551 260 567 q 296 509 296 535 q 278 466 296 483 q 231 450 260 450 q 183 466 201 450 q 165 509 165 483 q 174 543 165 535 q 183 551 183 551 m 212 133 q 273 99 250 116 q 324 50 296 82 l 385 -20 l 760 517 q 824 549 782 549 q 860 543 842 549 l 861 545 q 800 579 823 562 q 749 628 777 596 l 688 699 l 313 161 q 249 130 291 130 q 213 136 231 130 l 212 133 m 693 39 q 841 -11 749 -11 q 988 39 932 -11 q 1044 170 1044 89 q 988 300 1044 251 q 841 350 932 350 q 693 300 749 350 q 637 170 637 251 q 665 64 637 89 q 693 39 693 39 m 794 212 q 841 228 812 228 q 888 212 870 228 q 906 170 906 196 q 888 127 906 143 q 841 111 870 111 q 794 127 812 111 q 776 170 776 143 q 785 204 776 196 q 794 212 794 212 "},"&":{"ha":909,"x_min":34,"x_max":888,"o":"m 34 210 q 76 94 34 144 q 194 17 118 44 q 372 -11 271 -11 q 533 16 463 -11 q 641 93 603 43 q 680 207 680 142 q 657 291 679 252 q 679 315 667 301 q 697 339 690 330 q 714 354 704 347 q 736 361 724 361 q 761 348 751 361 q 770 315 770 336 q 726 237 770 274 l 872 237 q 885 282 881 264 q 888 326 888 300 q 845 436 888 395 q 730 477 801 477 q 692 473 710 477 q 659 463 674 470 q 632 448 644 455 q 608 430 621 441 q 589 411 596 418 q 571 391 582 403 q 556 373 561 378 q 496 383 527 383 q 449 364 469 383 q 429 320 429 346 q 454 264 429 288 q 515 241 479 241 q 539 242 532 241 q 541 227 541 233 q 504 171 541 192 q 407 151 467 151 q 285 173 333 151 q 237 231 237 195 q 257 269 237 253 q 305 285 277 285 l 388 285 q 381 324 381 306 q 445 434 381 384 l 332 434 q 299 450 313 434 q 285 487 285 465 q 306 519 285 506 q 357 533 327 533 q 493 472 444 533 l 626 623 q 649 649 641 640 q 669 675 657 659 q 686 702 680 690 q 696 730 692 714 q 701 761 701 746 q 670 840 701 807 q 595 872 639 872 q 526 848 555 872 q 497 790 497 824 q 511 753 497 769 q 543 736 524 736 q 571 747 559 736 q 583 773 583 758 q 556 784 567 773 q 545 811 545 795 q 561 845 545 831 q 597 859 576 859 q 661 830 634 859 q 687 761 687 801 q 676 714 687 738 q 653 675 666 691 q 618 635 640 659 q 598 628 612 628 q 547 643 577 628 q 346 689 450 689 q 213 664 274 689 q 117 596 152 639 q 81 502 81 553 q 108 431 81 466 q 178 372 135 396 q 75 303 116 348 q 60 306 72 303 q 41 309 48 309 q 44 274 44 287 q 40 245 44 258 q 34 210 34 227 "},"'":{"ha":258,"x_min":34,"x_max":250,"o":"m 34 631 q 42 612 34 620 q 61 604 50 604 l 95 604 l 83 468 q 81 427 81 446 q 105 336 81 364 q 90 325 98 325 q 131 304 107 313 q 176 296 154 296 q 228 318 207 296 q 250 370 250 339 q 240 396 250 386 q 217 407 230 407 q 199 402 207 407 q 192 391 192 397 q 204 385 199 391 q 209 372 209 380 q 198 350 209 359 q 173 342 188 342 q 127 358 145 342 q 110 403 110 374 q 136 481 110 437 l 210 608 l 210 753 q 206 762 210 758 q 197 766 202 766 l 47 766 q 38 762 42 766 q 34 753 34 758 l 34 631 "},"(":{"ha":400,"x_min":61,"x_max":366,"o":"m 61 339 q 71 208 61 272 q 102 81 81 144 q 147 -38 122 18 q 206 -163 171 -95 l 366 -149 q 302 104 323 -10 q 281 339 281 217 q 302 575 281 461 q 366 827 323 688 l 230 839 q 179 861 199 842 q 159 911 159 881 q 173 945 159 931 q 207 960 187 960 q 236 951 222 960 q 250 926 250 942 q 245 908 250 919 q 241 890 241 897 q 270 869 241 869 q 287 913 287 889 q 266 962 287 942 q 217 983 246 983 q 174 968 193 983 q 170 977 173 974 q 161 983 168 980 q 154 948 160 973 q 148 913 148 924 q 164 866 148 887 q 203 836 180 845 q 145 713 169 769 q 101 595 121 657 q 71 469 81 532 q 61 339 61 405 "},")":{"ha":400,"x_min":34,"x_max":339,"o":"m 34 -149 l 171 -161 q 221 -183 201 -163 q 241 -233 241 -203 q 227 -267 241 -253 q 194 -281 213 -281 q 164 -272 178 -281 q 151 -248 151 -263 q 155 -230 151 -240 q 159 -212 159 -219 q 130 -191 159 -191 q 114 -235 114 -211 q 134 -284 114 -264 q 183 -304 154 -304 q 226 -290 207 -304 q 230 -299 227 -295 q 239 -305 232 -302 q 246 -270 240 -295 q 252 -235 252 -245 q 236 -188 252 -209 q 197 -158 220 -167 q 255 -35 231 -91 q 299 84 279 21 q 329 209 319 146 q 339 339 339 273 q 329 470 339 406 q 298 597 319 534 q 253 716 278 660 q 194 841 229 773 l 34 827 q 98 575 77 688 q 119 339 119 461 q 98 104 119 217 q 34 -149 77 -10 "},"*":{"ha":339,"x_min":27,"x_max":312,"o":"m 27 581 q 35 541 27 566 l 132 539 l 54 479 q 80 433 63 445 q 136 419 97 421 l 170 512 l 203 419 q 257 431 241 419 q 285 479 274 443 l 208 537 l 304 540 q 312 581 312 562 q 302 610 312 596 q 273 636 291 625 l 193 583 l 220 674 q 170 699 195 699 q 119 675 151 699 l 146 583 l 66 636 q 27 581 27 614 "},"+":{"ha":637,"x_min":54,"x_max":614,"o":"m 54 224 q 176 258 100 258 l 235 258 l 235 75 l 403 75 l 403 258 l 583 258 l 583 352 q 599 437 583 384 q 614 516 614 490 q 591 584 614 561 q 534 608 567 608 q 476 586 501 608 q 450 528 450 564 q 463 494 450 508 q 493 480 475 480 q 513 488 505 480 q 522 510 522 497 q 499 520 508 510 q 490 547 490 531 q 504 582 490 569 q 539 594 518 594 q 585 574 565 594 q 605 516 605 553 q 572 449 605 477 q 495 420 540 420 l 403 420 l 403 604 l 235 604 l 235 420 l 54 420 l 54 224 "},",":{"ha":292,"x_min":47,"x_max":243,"o":"m 47 20 q 55 1 47 9 q 75 -7 63 -7 l 115 -7 l 71 -182 q 58 -254 58 -231 q 93 -354 58 -318 q 77 -362 87 -362 q 164 -392 114 -392 q 222 -366 200 -392 q 243 -311 243 -341 q 235 -281 243 -293 q 211 -270 227 -270 q 194 -275 201 -270 q 187 -286 187 -279 q 199 -292 194 -286 q 203 -307 203 -298 q 194 -330 203 -320 q 165 -340 184 -340 q 113 -320 138 -340 q 89 -269 89 -299 q 95 -233 89 -252 q 108 -203 102 -213 q 123 -176 114 -193 l 231 -3 l 231 149 q 227 159 231 155 q 217 163 222 163 l 61 163 q 52 159 56 163 q 47 149 47 155 l 47 20 "},"-":{"ha":590,"x_min":54,"x_max":560,"o":"m 54 239 q 124 251 91 251 l 223 251 q 166 205 188 235 q 145 140 145 175 q 180 45 145 86 q 164 37 175 37 q 251 7 201 7 q 308 32 285 7 q 331 94 331 57 q 321 120 331 110 q 298 131 312 131 q 281 126 288 131 q 274 115 274 121 q 286 109 281 115 q 290 96 290 104 q 279 74 290 81 q 251 66 268 66 q 197 86 222 66 q 172 140 172 106 q 187 194 172 169 q 228 235 202 219 q 284 251 254 251 l 529 251 l 529 358 q 545 444 529 391 q 560 523 560 497 q 537 591 560 567 q 480 614 513 614 q 421 593 447 614 q 396 535 396 571 q 408 501 396 515 q 438 487 421 487 q 459 495 450 487 q 467 516 467 504 q 445 527 454 516 q 435 553 435 538 q 450 588 435 576 q 485 601 464 601 q 531 580 511 601 q 551 523 551 560 q 518 455 551 484 q 441 427 486 427 l 54 427 l 54 239 "},".":{"ha":285,"x_min":54,"x_max":231,"o":"m 54 7 q 58 -3 54 1 q 68 -7 62 -7 l 217 -7 q 227 -3 222 -7 q 231 7 231 1 l 231 149 q 227 159 231 155 q 217 163 222 163 l 68 163 q 58 159 62 163 q 54 149 54 155 l 54 7 "},"/":{"ha":665,"x_min":0,"x_max":665,"o":"m 0 -61 l 140 -61 q 225 -66 191 -61 q 288 -88 259 -72 l 289 -87 q 265 -24 265 -59 q 274 17 265 0 l 665 739 l 532 739 q 478 745 503 739 q 434 760 452 751 q 398 778 415 769 q 362 793 381 787 q 322 799 342 799 q 268 779 290 799 q 245 730 245 759 q 266 677 245 699 q 315 655 286 655 q 349 667 335 655 q 363 697 363 680 q 355 718 363 709 q 334 727 346 727 q 323 704 334 713 q 297 695 312 695 q 270 706 281 695 q 259 732 259 716 q 278 773 259 756 q 322 789 296 789 q 386 767 359 789 q 412 712 412 745 q 396 662 412 691 l 0 -61 "},":":{"ha":285,"x_min":54,"x_max":231,"o":"m 54 7 q 58 -3 54 1 q 68 -7 62 -7 l 217 -7 q 227 -3 222 -7 q 231 7 231 1 l 231 149 q 227 159 231 155 q 217 163 222 163 l 68 163 q 58 159 62 163 q 54 149 54 155 l 54 7 m 54 346 q 58 336 54 340 q 68 332 62 332 l 217 332 q 227 336 222 332 q 231 346 231 340 l 231 488 q 227 498 231 494 q 217 502 222 502 l 68 502 q 58 498 62 502 q 54 488 54 494 l 54 346 "},";":{"ha":285,"x_min":47,"x_max":243,"o":"m 47 20 q 55 1 47 9 q 75 -7 63 -7 l 115 -7 l 71 -182 q 58 -254 58 -231 q 93 -354 58 -318 q 77 -362 87 -362 q 164 -392 114 -392 q 222 -366 200 -392 q 243 -311 243 -341 q 235 -281 243 -293 q 211 -270 227 -270 q 194 -275 201 -270 q 187 -286 187 -279 q 199 -292 194 -286 q 203 -307 203 -298 q 194 -330 203 -320 q 165 -340 184 -340 q 113 -320 138 -340 q 89 -269 89 -299 q 95 -233 89 -252 q 108 -203 102 -213 q 123 -176 114 -193 l 231 -3 l 231 149 q 227 159 231 155 q 217 163 222 163 l 61 163 q 52 159 56 163 q 47 149 47 155 l 47 20 m 54 346 q 58 336 54 340 q 68 332 62 332 l 217 332 q 227 336 222 332 q 231 346 231 340 l 231 488 q 227 498 231 494 q 217 502 222 502 l 68 502 q 58 498 62 502 q 54 488 54 494 l 54 346 "},"<":{"ha":570,"x_min":41,"x_max":486,"o":"m 41 339 l 475 34 l 475 283 q 433 260 464 260 q 397 270 411 260 l 305 339 l 397 408 q 433 418 411 418 q 475 395 464 418 l 475 500 q 480 617 475 546 q 486 712 486 688 l 483 712 q 449 641 476 675 q 382 579 421 607 l 41 339 "},"=":{"ha":610,"x_min":54,"x_max":587,"o":"m 54 88 q 176 122 100 122 l 249 122 q 193 76 215 106 q 172 12 172 46 q 207 -84 172 -43 q 191 -92 201 -92 q 278 -121 228 -121 q 335 -97 312 -121 q 358 -35 358 -72 q 348 -9 358 -19 q 325 2 339 2 q 308 -3 315 2 q 301 -14 301 -7 q 312 -20 308 -14 q 317 -33 317 -25 q 306 -55 317 -47 q 278 -63 295 -63 q 224 -43 249 -63 q 199 12 199 -23 q 232 89 199 55 q 312 122 266 122 l 556 122 l 556 292 l 54 292 l 54 88 m 54 387 l 556 387 l 556 487 q 564 543 556 513 q 579 602 572 573 q 587 651 587 630 q 564 720 587 696 q 507 743 540 743 q 448 721 474 743 q 423 664 423 700 q 436 630 423 644 q 466 615 448 615 q 486 624 477 615 q 494 645 494 633 q 472 656 481 645 q 463 682 463 667 q 477 717 463 705 q 512 730 491 730 q 558 709 538 730 q 578 651 578 689 q 545 584 578 612 q 468 556 513 556 l 54 556 l 54 387 "},">":{"ha":570,"x_min":84,"x_max":529,"o":"m 84 -34 l 87 -34 q 121 37 94 3 q 188 99 148 71 l 529 339 l 95 644 l 95 395 q 137 418 106 418 q 172 408 158 418 l 264 339 l 172 270 q 137 260 159 260 q 95 283 106 260 l 95 178 q 90 61 95 132 q 84 -34 84 -10 "},"?":{"ha":678,"x_min":-8,"x_max":644,"o":"m -8 492 q 20 433 -8 458 q 90 408 49 408 q 121 412 106 408 q 147 421 137 416 q 170 436 157 426 q 189 452 183 446 q 208 471 195 458 q 229 491 222 485 q 251 509 236 498 q 278 526 266 520 q 308 535 290 531 q 347 540 327 540 q 421 526 393 540 q 449 488 449 511 q 439 467 449 477 q 414 450 430 457 q 378 434 398 443 q 336 417 357 426 q 295 396 315 409 q 259 367 275 382 q 233 329 243 352 q 224 278 224 306 l 224 266 q 230 251 224 257 q 245 244 237 244 l 399 244 q 405 247 402 244 q 407 252 407 249 l 407 279 q 415 297 407 289 q 437 312 423 306 q 468 326 451 319 q 506 341 486 333 q 545 359 526 349 q 583 381 565 368 q 614 409 601 394 q 636 447 628 425 q 644 494 644 468 q 607 596 644 552 q 503 665 570 641 q 347 689 435 689 q 272 684 305 689 q 217 671 238 679 q 177 656 196 664 q 136 644 159 649 q 88 639 114 639 l 88 636 q 159 588 136 621 q 183 519 183 556 q 157 448 183 478 q 90 418 131 418 q 30 437 55 418 q 5 484 5 457 q 20 521 5 506 q 54 537 34 537 q 80 526 70 537 q 91 500 91 516 q 117 513 106 500 q 127 541 127 525 q 111 573 127 559 q 73 586 95 586 q 16 558 39 586 q -8 492 -8 531 m 233 -27 l 235 -27 q 241 -13 235 -19 q 258 -7 248 -7 l 396 -7 q 406 -3 401 -7 q 410 7 410 1 l 410 149 q 406 159 410 155 q 396 163 401 163 l 247 163 q 237 159 241 163 q 233 149 233 155 l 233 -27 "},"@":{"ha":1072,"x_min":75,"x_max":1024,"o":"m 75 317 q 104 274 92 303 q 115 212 115 244 l 115 136 q 137 21 115 76 q 200 -80 160 -35 q 295 -158 241 -124 q 416 -210 349 -192 q 555 -229 483 -229 q 996 -143 746 -229 l 949 -6 q 596 -73 746 -73 q 444 -47 510 -73 q 341 26 378 -21 q 305 136 305 74 l 305 556 q 336 642 305 603 q 424 704 367 681 q 549 727 480 727 q 655 710 607 726 q 731 668 703 694 q 760 610 760 642 l 760 543 l 732 597 l 685 597 q 567 575 622 597 q 474 517 512 554 q 415 431 436 481 q 393 326 393 381 q 465 129 393 203 q 655 54 537 54 q 716 68 689 54 q 760 109 744 82 l 785 54 l 1024 54 q 965 105 986 68 q 943 183 943 142 l 943 212 q 954 274 943 244 q 983 317 966 303 q 964 318 970 317 q 952 324 958 319 q 945 339 946 329 q 943 366 943 349 l 943 610 q 912 716 943 666 q 829 802 882 766 q 704 858 777 837 q 549 880 631 880 q 376 855 457 880 q 238 787 295 830 q 148 684 181 744 q 115 556 115 624 l 115 366 q 113 339 115 349 q 106 324 112 329 q 94 318 100 319 q 75 317 87 317 m 618 397 q 690 427 647 427 l 760 427 l 760 264 q 746 236 760 248 q 712 224 732 224 l 690 224 q 618 254 647 224 q 589 326 589 285 q 603 381 589 366 q 618 397 618 397 "},"A":{"ha":827,"x_min":-42,"x_max":859,"o":"m -42 -109 l -35 -111 q 69 -27 -6 -54 q 279 0 143 0 q 254 26 263 8 q 244 65 244 45 q 250 92 244 80 l 263 122 l 557 122 l 567 94 q 572 65 572 79 q 566 35 572 53 q 560 8 560 18 q 561 -2 560 3 q 565 -15 561 -6 q 574 -29 568 -23 q 591 -40 579 -35 q 618 -45 603 -45 q 685 -37 639 -45 q 751 -28 730 -28 q 854 -87 823 -28 l 859 -84 l 727 209 q 711 266 711 244 q 734 318 711 291 q 685 328 702 318 q 658 361 668 339 l 494 726 l 491 725 q 480 691 491 703 q 449 678 469 678 l 410 678 q 306 689 371 678 q 218 701 241 700 q 260 667 244 689 q 276 619 276 646 q 267 578 276 599 l 170 361 q 142 329 159 339 q 94 318 125 318 q 117 267 117 291 q 101 209 117 245 l -42 -109 m 331 271 l 410 463 l 439 392 q 445 359 445 379 q 443 335 445 345 q 459 332 454 335 q 468 323 465 330 l 489 271 l 331 271 "},"B":{"ha":895,"x_min":24,"x_max":848,"o":"m 24 692 q 90 640 64 678 q 115 563 115 602 l 115 366 q 113 339 115 349 q 106 324 112 329 q 94 318 100 319 q 75 317 87 317 q 104 274 92 303 q 115 212 115 244 l 115 68 q 108 15 115 43 q 91 -34 100 -13 q 74 -80 82 -55 q 66 -123 66 -105 q 63 -164 66 -139 q 56 -202 60 -188 q 72 -196 61 -202 q 87 -190 83 -190 q 124 -223 102 -211 q 172 -235 146 -235 q 241 -211 212 -235 q 270 -153 270 -187 q 255 -115 270 -132 q 222 -99 240 -99 q 195 -110 205 -99 q 185 -136 185 -120 q 211 -147 200 -136 q 222 -174 222 -158 q 207 -207 222 -193 q 170 -221 191 -221 q 106 -192 133 -221 q 80 -123 80 -164 q 84 -92 80 -107 q 100 -59 88 -76 q 129 -29 111 -42 q 177 -8 147 -17 q 247 0 208 0 l 604 0 q 726 26 670 0 q 815 98 782 53 q 848 197 848 143 q 807 289 848 244 q 704 357 766 333 q 774 417 747 382 q 800 488 800 452 q 782 564 800 529 q 732 625 763 600 q 661 664 702 650 q 576 678 620 678 l 260 678 q 24 692 112 678 m 319 163 l 319 264 l 432 264 q 444 258 439 264 q 449 241 449 251 q 486 259 467 254 q 535 264 505 264 l 583 264 q 625 250 606 264 q 644 217 644 235 q 626 179 644 195 q 583 163 608 163 l 319 163 m 319 427 l 319 522 l 549 522 q 583 508 569 522 q 597 473 597 493 q 584 442 597 456 q 556 427 571 427 l 319 427 "},"C":{"ha":848,"x_min":14,"x_max":888,"o":"m 14 319 q 48 279 35 298 q 68 236 62 259 q 125 129 86 177 q 215 51 164 81 q 327 5 267 21 q 450 -11 387 -11 q 537 -4 496 -11 q 609 15 578 3 q 666 40 640 26 q 713 68 692 54 q 749 94 733 82 q 779 115 765 106 q 804 125 793 123 l 621 285 q 596 230 613 254 q 555 193 579 207 q 505 172 532 179 q 449 165 478 165 q 378 177 412 165 q 317 209 345 188 q 274 264 290 230 q 258 339 258 297 q 274 415 258 381 q 317 469 290 448 q 378 502 345 490 q 449 513 412 513 q 695 406 576 513 q 689 435 689 420 q 808 605 689 500 q 888 743 888 669 q 858 822 888 789 q 783 854 827 854 q 714 831 743 854 q 685 773 685 807 q 699 735 685 751 q 730 719 712 719 q 759 730 747 719 q 770 755 770 740 q 744 766 754 755 q 733 793 733 778 q 748 827 733 813 q 785 841 764 841 q 849 812 822 841 q 875 743 875 784 q 855 676 875 707 q 799 614 835 645 q 768 604 786 604 q 660 641 734 604 q 448 689 563 689 q 329 675 387 689 q 222 631 272 660 q 135 560 172 602 q 76 462 97 519 q 54 339 54 405 q 55 313 54 326 q 14 319 39 319 "},"D":{"ha":888,"x_min":34,"x_max":875,"o":"m 34 678 q 93 627 72 665 q 115 549 115 590 l 115 366 q 113 339 115 349 q 106 324 112 329 q 93 318 100 319 q 74 317 87 317 q 104 274 92 303 q 115 212 115 245 l 115 109 q 100 45 115 76 q 54 0 85 15 l 448 0 q 688 63 589 0 q 820 236 787 127 q 839 278 826 259 q 875 319 852 296 q 833 313 850 319 q 834 339 834 321 q 806 478 834 414 q 728 585 778 541 q 606 654 678 629 q 448 678 534 678 l 34 678 m 319 176 l 319 317 q 340 367 319 347 q 391 388 361 388 q 425 374 411 388 q 439 340 439 360 q 430 311 439 325 q 406 297 421 297 q 388 301 398 297 q 370 306 377 306 q 349 277 349 306 q 393 260 369 260 q 442 281 422 260 q 463 330 463 301 q 448 373 463 354 q 457 377 453 374 q 463 386 460 379 q 428 393 453 387 q 393 399 404 399 q 349 386 369 399 q 319 353 329 374 l 319 502 l 441 502 q 579 458 528 502 q 631 339 631 414 q 580 220 631 264 q 441 176 529 176 l 319 176 "},"E":{"ha":814,"x_min":24,"x_max":754,"o":"m 24 692 q 90 642 65 677 q 115 563 115 606 l 115 366 q 113 339 115 349 q 106 324 112 329 q 93 318 100 319 q 74 317 87 317 q 104 274 92 303 q 115 212 115 245 l 115 109 q 100 45 115 76 q 54 0 85 15 l 665 0 q 718 -20 696 0 q 741 -67 741 -39 q 705 -158 741 -120 q 618 -196 669 -196 q 562 -170 585 -196 q 538 -107 538 -144 q 547 -82 538 -92 q 568 -72 555 -72 q 583 -77 576 -72 q 589 -88 589 -81 q 601 -82 596 -88 q 606 -66 606 -75 q 594 -42 606 -52 q 566 -31 583 -31 q 504 -54 529 -31 q 479 -111 479 -77 q 509 -195 479 -159 q 517 -181 509 -186 q 618 -209 557 -209 q 683 -192 653 -209 q 732 -145 713 -175 q 735 -144 733 -144 q 752 -150 743 -144 q 749 -121 749 -138 q 751 -95 749 -106 q 754 -67 754 -80 q 743 34 754 -43 q 731 160 731 112 q 739 243 731 204 q 669 184 712 206 q 583 163 626 163 l 319 163 l 319 251 l 604 251 l 604 414 l 319 414 l 319 515 l 597 515 q 671 501 638 515 q 732 456 703 487 l 732 678 l 260 678 q 24 692 112 678 "},"F":{"ha":780,"x_min":54,"x_max":726,"o":"m 54 -27 q 144 -5 116 -11 q 209 0 173 0 q 265 -18 241 0 q 289 -64 289 -37 l 290 -64 q 319 62 319 6 l 319 231 l 549 231 q 612 209 586 231 q 637 157 637 188 q 601 61 637 101 q 513 22 565 22 q 456 45 479 22 q 432 103 432 69 q 441 127 432 118 q 462 136 449 136 q 475 131 470 136 q 481 119 481 126 q 492 126 488 119 q 497 144 497 134 q 486 167 497 157 q 460 176 476 176 q 398 154 423 176 q 374 99 374 133 q 403 17 374 53 q 411 32 403 27 q 513 -1 451 -1 q 611 45 570 -1 q 651 157 651 92 l 651 393 l 319 393 l 319 515 l 590 515 q 664 501 631 515 q 726 456 696 487 l 726 678 l 54 678 q 100 633 85 665 q 115 570 115 602 l 115 366 q 113 339 115 349 q 106 324 112 329 q 93 318 100 319 q 74 317 87 317 q 104 274 92 303 q 115 212 115 245 l 115 88 q 100 29 115 59 q 54 -27 84 -2 "},"G":{"ha":888,"x_min":14,"x_max":913,"o":"m 14 319 q 49 278 35 297 q 68 236 62 259 q 202 58 101 124 q 448 -7 303 -7 q 566 -2 492 -7 q 658 3 640 3 q 747 -45 715 3 q 780 -182 780 -93 l 787 -182 l 787 148 q 818 248 787 188 q 802 242 812 248 q 787 236 791 236 l 787 271 q 802 335 787 304 q 848 380 817 365 l 427 380 l 427 217 q 484 239 455 233 q 556 244 513 244 l 610 244 l 610 163 q 448 156 522 156 q 366 170 403 156 q 304 209 329 184 q 265 268 279 234 q 251 339 251 301 q 303 465 251 417 q 441 513 356 513 q 551 490 504 513 q 619 424 597 468 l 822 605 q 881 672 861 639 q 902 743 902 704 q 905 784 902 759 q 913 822 908 808 q 896 815 907 822 q 881 809 886 809 q 844 842 866 830 q 797 854 822 854 q 727 831 756 854 q 699 773 699 807 q 713 735 699 752 q 747 719 728 719 q 773 729 763 719 q 784 755 784 740 q 757 766 768 755 q 746 793 746 778 q 762 827 746 813 q 799 841 777 841 q 862 812 836 841 q 888 743 888 784 q 868 677 888 708 q 812 614 848 646 q 774 604 801 604 q 653 642 725 604 q 441 689 564 689 q 283 664 355 689 q 161 593 211 638 q 82 482 111 547 q 54 339 54 417 q 55 313 54 326 q 14 319 39 319 "},"H":{"ha":909,"x_min":54,"x_max":854,"o":"m 54 0 l 188 0 q 288 -19 248 0 q 343 -74 327 -38 q 354 -123 354 -99 q 328 -192 354 -164 q 265 -221 302 -221 q 228 -207 243 -221 q 213 -174 213 -193 q 223 -147 213 -158 q 250 -136 234 -136 q 239 -110 250 -120 q 213 -99 229 -99 q 179 -115 194 -99 q 165 -153 165 -132 q 193 -211 165 -187 q 262 -235 222 -235 q 310 -223 288 -235 q 348 -190 333 -211 q 362 -196 352 -190 q 379 -202 373 -202 q 371 -164 374 -188 q 368 -123 368 -139 q 357 -68 368 -98 q 349 -48 355 -65 q 340 -24 342 -31 q 332 -3 337 -18 q 325 22 327 13 q 321 44 323 31 q 319 68 319 57 l 319 244 l 590 244 l 590 109 q 575 45 590 76 q 529 0 560 15 l 854 0 q 809 45 824 13 q 793 109 793 76 l 793 212 q 805 274 793 245 q 834 317 817 303 q 815 318 822 317 q 803 324 809 319 q 795 339 797 329 q 793 366 793 349 l 793 570 q 809 633 793 603 q 854 678 824 664 l 711 678 q 657 684 683 678 q 614 699 632 690 q 578 717 595 708 q 542 732 561 726 q 502 738 522 738 q 447 718 470 738 q 425 669 425 697 q 445 616 425 638 q 495 594 466 594 q 529 606 515 594 q 543 636 543 619 q 535 657 543 648 q 513 666 526 666 q 503 643 513 652 q 477 634 492 634 q 450 645 461 634 q 439 671 439 655 q 457 712 439 695 q 502 728 476 728 q 564 701 538 728 q 590 635 590 673 l 590 420 l 319 420 l 319 570 q 334 633 319 603 q 380 678 349 664 l 54 678 q 100 633 85 665 q 115 570 115 602 l 115 366 q 113 339 115 349 q 106 324 112 329 q 93 318 100 319 q 74 317 87 317 q 104 274 92 303 q 115 212 115 245 l 115 109 q 100 45 115 76 q 54 0 85 15 "},"I":{"ha":434,"x_min":37,"x_max":380,"o":"m 37 -22 q 76 -15 51 -20 q 119 -7 102 -10 q 160 -2 135 -5 q 209 0 185 0 l 380 0 q 334 45 349 15 q 319 109 319 76 l 319 212 q 330 274 319 244 q 359 317 342 303 q 340 318 347 317 q 328 324 334 319 q 321 339 322 329 q 319 366 319 349 l 319 570 q 334 633 319 602 q 380 678 349 665 l 165 678 q 105 682 141 678 q 49 692 69 686 l 46 686 q 115 557 115 661 l 115 366 q 113 339 115 349 q 106 324 112 329 q 94 318 100 319 q 75 317 87 317 q 104 274 92 303 q 115 212 115 244 l 115 109 q 112 76 115 93 q 101 41 109 60 q 76 5 93 21 q 37 -22 60 -12 "},"J":{"ha":766,"x_min":38,"x_max":726,"o":"m 38 107 q 67 95 50 106 q 103 69 85 83 q 149 35 120 54 q 206 2 177 16 q 368 -33 278 -33 q 458 -21 414 -33 q 539 13 501 -10 q 605 70 577 36 q 648 149 632 103 q 665 251 665 196 q 677 286 665 266 q 705 317 690 305 q 665 366 665 317 l 665 570 q 670 610 665 590 q 690 650 676 630 q 726 678 705 669 l 95 678 l 95 607 q 88 448 95 507 q 233 509 138 509 l 461 509 l 461 251 q 431 175 461 202 q 357 148 400 148 q 312 156 333 148 q 274 180 291 164 q 247 221 257 196 q 237 278 237 246 l 110 168 q 95 162 103 162 q 84 165 89 162 q 76 175 79 169 q 64 252 64 212 q 88 336 64 298 q 153 397 112 374 q 242 419 194 419 q 300 396 276 419 q 323 342 323 374 q 313 314 323 326 q 289 302 303 302 q 300 280 289 290 q 326 271 311 271 q 367 292 350 271 q 385 340 385 312 q 352 427 385 390 q 344 412 352 417 q 242 446 303 446 q 146 420 190 446 q 76 350 102 394 q 50 252 50 305 q 83 125 50 185 l 84 124 q 38 107 58 124 "},"K":{"ha":861,"x_min":54,"x_max":854,"o":"m 54 0 l 339 0 q 319 109 319 38 l 319 251 l 351 251 l 541 -12 q 633 -54 572 -54 q 732 -39 667 -54 q 818 -23 796 -23 q 852 -31 841 -23 l 854 -28 l 495 352 l 702 585 q 733 619 722 607 q 762 646 745 631 q 797 670 780 662 q 833 682 814 679 l 833 685 q 739 682 809 685 q 624 678 669 678 q 573 680 594 678 q 529 684 552 681 q 487 688 506 686 q 493 657 493 673 q 476 605 493 629 l 347 419 l 319 419 l 319 692 q 282 804 319 761 q 186 846 246 846 q 122 824 149 846 q 96 770 96 802 q 110 730 96 748 q 143 712 125 712 q 170 723 160 712 q 181 749 181 733 q 156 760 169 749 q 143 787 143 772 q 158 819 143 806 q 193 832 172 832 q 257 808 232 832 q 282 739 282 784 q 260 696 282 713 q 208 678 238 678 l 54 678 q 100 633 85 665 q 115 570 115 602 l 115 366 q 113 339 115 349 q 106 324 112 329 q 93 318 100 319 q 74 317 87 317 q 104 274 92 303 q 115 212 115 245 l 115 109 q 110 68 115 88 q 90 28 104 47 q 54 0 75 9 "},"L":{"ha":732,"x_min":54,"x_max":694,"o":"m 54 0 l 534 0 q 671 -24 609 0 q 683 124 671 25 q 694 270 694 224 q 652 378 694 333 q 550 423 610 423 q 448 389 489 423 q 440 404 440 394 q 410 317 410 368 q 435 261 410 284 q 494 237 459 237 q 522 247 510 237 q 534 270 534 256 q 529 287 534 280 q 517 294 524 294 q 512 283 517 287 q 498 278 507 278 q 477 288 486 278 q 469 313 469 298 q 493 372 469 348 q 550 396 516 396 q 643 359 604 396 q 681 270 681 322 q 680 258 681 264 q 677 243 680 253 q 669 224 674 233 q 653 207 664 216 q 629 191 643 198 q 594 181 615 185 q 545 176 572 176 l 319 176 l 319 591 q 346 668 319 636 q 413 700 374 700 q 469 681 446 700 q 492 635 492 662 q 478 600 492 614 q 444 585 464 585 q 417 594 428 585 q 407 616 407 603 q 385 608 394 616 q 377 588 377 600 q 391 558 377 570 q 425 545 405 545 q 482 571 458 545 q 506 633 506 597 q 479 687 506 665 q 413 709 451 709 q 334 694 388 709 q 248 678 280 678 l 54 678 q 100 633 85 665 q 115 570 115 602 l 115 366 q 113 339 115 349 q 106 324 112 329 q 93 318 100 319 q 74 317 87 317 q 104 274 92 303 q 115 212 115 245 l 115 109 q 100 45 115 76 q 54 0 85 15 "},"M":{"ha":1200,"x_min":34,"x_max":1146,"o":"m 34 678 q 94 629 72 664 q 115 549 115 594 l 115 366 q 113 339 115 349 q 106 324 112 329 q 93 318 100 319 q 74 317 87 317 q 104 274 92 303 q 115 212 115 245 l 115 109 q 100 45 115 76 q 54 0 85 15 l 370 0 q 325 45 340 13 q 309 109 309 76 l 309 449 l 549 0 q 590 -133 590 -79 l 594 -133 q 602 -92 594 -116 q 619 -50 610 -68 q 646 0 628 -32 l 888 454 l 888 109 q 873 45 888 76 q 827 0 858 15 l 1146 0 q 1100 45 1116 13 q 1085 109 1085 76 l 1085 212 q 1097 274 1085 245 q 1126 317 1108 303 q 1107 318 1113 317 q 1095 324 1101 319 q 1087 339 1089 329 q 1085 366 1085 349 l 1085 570 q 1100 633 1085 603 q 1146 678 1115 664 l 884 678 q 833 685 859 678 q 773 714 807 692 q 721 743 745 733 q 671 754 696 754 q 605 732 633 754 q 578 678 578 710 q 602 616 578 642 q 659 590 626 590 q 693 602 679 590 q 707 632 707 615 q 699 653 707 644 q 677 662 690 662 q 667 639 677 648 q 641 630 656 630 q 606 645 621 630 q 592 681 592 660 q 615 726 592 707 q 671 745 638 745 q 743 712 713 745 q 773 632 773 679 q 764 585 773 605 l 601 256 l 430 600 q 415 746 415 629 q 372 696 401 714 q 307 678 342 678 l 34 678 "},"N":{"ha":909,"x_min":54,"x_max":854,"o":"m 54 0 l 127 0 q 338 -62 252 0 l 340 -58 q 320 -39 328 -50 q 308 -17 312 -28 q 302 9 304 -7 q 299 37 299 24 q 298 68 298 49 l 298 382 l 552 80 q 564 42 564 67 q 538 -23 564 4 q 476 -50 512 -50 q 431 -33 450 -50 q 413 7 413 -17 q 424 34 413 23 q 451 44 435 44 q 477 35 466 44 q 488 13 488 26 q 509 21 500 13 q 517 42 517 30 q 503 72 517 59 q 469 84 489 84 q 420 62 440 84 q 399 9 399 40 q 422 -40 399 -19 q 476 -60 444 -60 q 516 -54 496 -60 q 552 -39 535 -47 q 588 -21 569 -30 q 631 -6 606 -12 q 685 0 656 0 l 841 0 q 815 19 825 7 q 800 48 805 32 q 795 78 796 65 q 793 109 793 91 l 793 212 q 805 274 793 245 q 834 317 817 303 q 815 318 822 317 q 803 324 809 319 q 795 339 797 329 q 793 366 793 349 l 793 570 q 809 633 793 603 q 854 678 824 664 l 549 678 q 595 633 580 665 q 610 570 610 602 l 610 294 l 289 678 l 54 678 q 100 633 85 665 q 115 570 115 602 l 115 366 q 113 339 115 349 q 106 324 112 329 q 93 318 100 319 q 74 317 87 317 q 104 274 92 303 q 115 212 115 245 l 115 109 q 100 45 115 76 q 54 0 85 15 "},"O":{"ha":882,"x_min":14,"x_max":868,"o":"m 14 319 q 68 236 56 277 q 199 55 100 122 q 441 -11 298 -11 q 683 55 584 -11 q 814 236 782 122 q 834 278 821 259 q 868 319 847 297 q 827 313 843 319 q 827 339 827 321 q 799 482 827 417 q 721 593 771 548 q 599 664 671 638 q 441 689 527 689 q 238 645 326 689 q 102 522 150 602 q 54 339 54 443 q 55 313 54 326 q 14 319 39 319 m 258 339 q 297 422 258 388 q 391 457 336 457 q 463 430 433 457 q 492 365 492 403 q 467 308 492 332 q 407 285 442 285 q 382 294 392 285 q 372 315 372 302 q 376 330 372 323 q 388 336 381 336 q 381 348 388 343 q 366 353 375 353 q 341 341 352 353 q 331 313 331 330 q 354 251 331 276 q 411 227 377 227 q 497 256 461 227 q 484 264 489 256 q 513 365 513 303 q 477 440 513 409 q 391 471 441 471 q 319 452 351 471 q 268 401 286 433 q 331 483 285 453 q 441 513 377 513 q 574 465 523 513 q 624 339 624 417 q 574 213 624 261 q 441 165 523 165 q 308 213 358 165 q 258 339 258 261 "},"P":{"ha":834,"x_min":24,"x_max":807,"o":"m 24 692 q 90 642 65 677 q 115 563 115 606 l 115 366 q 113 339 115 349 q 106 324 112 329 q 93 318 100 319 q 74 317 87 317 q 104 274 92 303 q 115 212 115 245 l 115 109 q 100 45 115 76 q 54 0 85 15 l 415 0 q 473 24 449 0 q 496 83 496 48 q 490 118 496 93 q 483 152 485 142 q 474 146 477 150 q 470 137 472 143 q 427 152 452 152 q 381 134 400 152 q 362 90 362 115 q 378 45 362 65 q 407 66 407 45 q 403 84 407 73 q 399 102 399 95 q 411 121 399 113 q 438 129 422 129 q 472 114 458 129 q 486 80 486 100 q 465 29 486 50 q 415 8 444 8 q 343 35 367 8 q 319 109 319 62 l 319 203 l 556 203 q 653 222 607 203 q 734 273 700 241 q 787 349 767 305 q 807 441 807 393 q 787 533 807 489 q 734 609 767 577 q 653 659 700 641 q 556 678 607 678 l 260 678 q 24 692 112 678 m 319 366 l 319 502 l 543 502 q 586 482 568 502 q 604 434 604 462 q 586 386 604 406 q 543 366 568 366 l 319 366 "},"Q":{"ha":868,"x_min":14,"x_max":854,"o":"m 14 323 q 48 282 35 301 q 68 240 62 263 q 197 63 100 128 q 434 -3 294 -3 q 671 63 574 -3 q 800 240 768 128 q 820 282 806 263 q 854 323 833 301 q 813 317 829 323 q 814 343 814 325 q 786 485 814 420 q 710 594 759 549 q 589 664 660 639 q 434 689 518 689 q 279 664 350 689 q 159 594 208 639 q 82 485 109 549 q 54 343 54 420 q 55 317 54 325 q 14 323 39 323 m 244 -54 l 244 -203 q 334 -210 285 -203 q 429 -227 383 -217 q 520 -247 475 -237 q 615 -264 566 -257 q 705 -271 664 -271 l 705 -68 q 600 -84 664 -84 q 414 -69 536 -84 q 244 -54 292 -54 m 306 466 q 434 513 355 513 q 484 492 463 513 q 505 441 505 471 q 491 406 505 421 q 457 392 477 392 q 428 401 442 392 q 414 426 414 410 q 418 444 414 433 q 422 461 422 454 q 393 483 422 483 q 377 438 377 463 q 397 389 377 409 q 446 369 417 369 q 489 384 471 369 q 493 375 491 378 q 502 369 496 371 q 509 403 504 378 q 515 438 515 428 q 505 479 515 460 q 476 509 494 498 q 574 453 538 497 q 610 343 610 408 q 562 220 610 267 q 434 174 513 174 q 306 220 355 174 q 258 343 258 267 q 282 443 258 419 q 306 466 306 466 "},"R":{"ha":895,"x_min":54,"x_max":869,"o":"m 54 0 l 310 0 q 399 -28 362 0 q 436 -96 436 -56 q 409 -165 436 -137 q 346 -194 383 -194 q 309 -180 325 -194 q 294 -146 294 -166 q 305 -120 294 -131 q 331 -109 316 -109 q 321 -82 331 -93 q 294 -72 310 -72 q 261 -88 275 -72 q 246 -126 246 -104 q 275 -184 246 -160 q 344 -208 303 -208 q 392 -195 370 -208 q 429 -162 414 -183 q 444 -169 433 -162 q 460 -175 454 -175 q 452 -137 455 -161 q 449 -96 449 -112 q 442 -59 449 -76 q 424 -31 435 -42 q 398 -9 412 -20 q 370 12 384 1 q 345 36 356 23 q 326 67 333 48 q 319 109 319 85 l 319 217 l 522 217 q 570 191 550 217 q 590 129 590 165 l 590 115 q 598 50 590 83 q 613 16 603 33 q 640 -14 624 0 q 680 -37 656 -28 q 732 -46 704 -46 q 869 0 795 -46 q 814 44 834 13 q 793 115 793 76 l 793 161 q 763 254 793 212 q 683 321 733 296 q 753 388 727 349 q 780 468 780 428 q 748 573 780 525 q 662 650 716 622 q 543 678 607 678 l 54 678 q 100 633 85 665 q 115 570 115 602 l 115 365 q 113 338 115 348 q 106 324 112 329 q 93 318 100 319 q 74 317 87 317 q 103 274 92 303 q 115 212 115 245 l 115 109 q 100 46 115 76 q 54 0 85 16 m 319 387 l 319 509 l 519 509 q 559 492 543 509 q 575 452 575 475 q 554 406 575 425 q 505 387 533 387 l 456 387 q 416 394 438 387 q 375 414 393 402 q 385 387 385 403 l 319 387 "},"S":{"ha":821,"x_min":30,"x_max":805,"o":"m 30 111 q 67 95 44 109 q 120 64 90 81 q 189 30 150 47 q 285 1 227 13 q 410 -11 343 -11 q 551 7 486 -11 q 661 56 617 26 q 729 126 705 87 q 754 209 754 166 q 415 438 754 392 q 299 464 336 449 q 262 496 262 480 q 296 527 262 514 q 381 540 331 540 q 463 531 426 540 q 526 509 500 523 q 573 479 552 496 q 613 447 595 463 q 647 417 631 431 q 685 395 664 404 q 728 387 705 387 q 783 407 760 387 q 805 456 805 427 q 785 508 805 487 q 735 530 764 530 q 701 518 715 530 q 687 488 687 506 q 696 467 687 476 q 717 459 704 459 q 728 481 717 472 q 753 491 738 491 q 780 480 769 491 q 791 453 791 469 q 773 413 791 430 q 728 396 754 396 q 670 418 692 396 q 648 473 648 440 q 654 504 648 491 q 681 539 660 517 q 749 602 702 562 l 741 611 q 716 602 730 602 q 701 604 709 602 q 681 611 693 606 q 661 619 668 615 q 633 631 653 622 q 604 645 614 641 q 558 671 595 649 q 504 699 522 692 q 510 684 510 691 q 505 678 510 679 q 393 689 454 689 q 260 671 322 689 q 155 624 197 654 q 88 557 113 595 q 64 477 64 518 q 89 396 64 433 q 160 331 114 358 q 266 285 205 303 q 401 258 328 266 q 495 241 458 251 q 546 220 532 231 q 560 198 560 210 q 517 161 560 177 q 414 145 473 145 q 340 151 376 145 q 272 169 304 157 q 218 203 240 181 q 193 251 197 224 l 30 111 "},"T":{"ha":780,"x_min":47,"x_max":754,"o":"m 47 434 q 66 467 55 453 q 90 489 78 481 q 119 501 102 496 q 150 506 136 505 q 183 507 164 507 l 289 507 l 289 366 q 287 339 289 349 q 279 324 285 329 q 267 318 273 319 q 248 317 261 317 q 277 274 266 303 q 289 212 289 245 l 289 37 q 272 -10 289 8 q 228 -28 255 -28 q 169 -7 191 -28 q 146 49 146 14 q 155 74 146 64 q 176 84 164 84 q 189 80 184 84 q 194 68 194 75 q 205 75 201 68 q 210 90 210 81 q 200 109 210 101 q 175 117 190 117 q 122 97 144 117 q 100 51 100 78 q 126 -24 100 7 q 134 -10 126 -15 q 178 -34 157 -27 q 227 -42 199 -42 q 273 -31 245 -42 q 332 -11 301 -21 q 388 0 362 0 l 470 0 q 525 -2 487 0 q 568 -4 563 -4 q 535 18 550 3 q 511 52 520 34 q 497 89 502 71 q 492 122 492 107 l 492 212 q 504 274 492 245 q 533 317 515 303 q 514 318 520 317 q 502 324 508 319 q 494 339 496 329 q 492 366 492 349 l 492 507 l 583 507 q 732 441 679 507 l 732 601 q 754 678 732 644 l 47 678 l 47 434 "},"U":{"ha":868,"x_min":41,"x_max":827,"o":"m 41 665 q 86 620 71 651 q 102 556 102 588 l 102 315 q 89 317 97 315 q 76 319 80 319 q 68 317 72 319 q 94 278 83 301 q 110 237 106 254 q 220 60 133 125 q 434 -5 306 -5 q 648 60 562 -5 q 759 237 735 125 q 774 278 762 254 q 800 317 785 301 q 792 319 796 319 q 779 317 788 319 q 766 315 771 315 l 766 570 q 781 633 766 603 q 827 678 797 664 l 684 678 q 630 684 655 678 q 586 699 605 690 q 551 717 568 708 q 515 732 534 726 q 475 738 495 738 q 420 718 443 738 q 398 669 398 697 q 418 616 398 638 q 468 594 439 594 q 502 606 488 594 q 516 636 516 619 q 507 657 516 648 q 486 666 499 666 q 476 643 486 652 q 450 634 465 634 q 423 645 434 634 q 412 671 412 655 q 430 712 412 695 q 475 728 449 728 q 537 701 511 728 q 563 635 563 673 l 563 307 q 527 211 563 247 q 434 175 492 175 q 341 211 376 175 q 305 307 305 247 l 305 572 q 297 619 305 599 q 276 652 289 640 q 245 673 263 665 q 207 684 227 681 q 166 688 188 688 q 96 681 131 688 q 41 665 61 673 "},"V":{"ha":821,"x_min":-46,"x_max":844,"o":"m -46 718 q 18 629 -18 689 q 79 514 55 568 l 146 361 q 151 343 151 350 q 109 318 151 318 q 245 136 193 256 l 305 0 l 401 0 q 454 -16 437 0 q 470 -63 470 -32 q 461 -123 470 -87 l 575 136 q 712 318 627 256 q 670 343 670 318 q 674 361 670 350 l 844 746 l 837 749 q 786 696 822 714 q 705 678 750 678 q 634 687 670 678 q 572 713 598 696 q 479 750 516 750 q 411 726 434 750 q 387 670 387 703 q 409 611 387 636 q 466 586 431 586 q 500 598 486 586 q 515 628 515 611 q 506 649 515 640 q 485 657 497 657 q 474 635 485 644 q 448 626 464 626 q 413 640 426 626 q 400 674 400 654 q 421 721 400 701 q 479 741 441 741 q 545 709 518 741 q 573 632 573 677 q 564 587 573 608 l 413 220 l 409 220 l 257 586 q 210 713 225 662 l 207 713 q 189 688 203 697 q 161 678 174 678 q 53 687 96 678 q -44 722 11 697 l -46 718 "},"W":{"ha":1146,"x_min":27,"x_max":1126,"o":"m 27 678 l 128 361 q 132 343 132 350 q 119 324 132 330 q 85 317 106 317 q 152 248 128 286 q 196 148 176 210 l 236 22 q 295 0 244 0 l 356 0 q 420 -18 392 0 q 463 -68 449 -36 q 465 5 463 -23 q 477 65 468 34 l 572 376 l 690 -8 q 840 5 768 5 q 903 0 871 5 l 950 148 q 994 248 970 210 q 1061 317 1018 286 q 1027 324 1040 317 q 1014 343 1014 331 q 1018 361 1014 350 l 1126 700 q 1023 678 1078 678 l 856 678 q 884 608 884 661 q 879 570 884 587 l 787 243 l 688 569 q 682 607 682 588 q 692 664 682 634 q 712 722 702 694 q 722 772 722 750 q 698 836 722 809 q 640 863 674 863 q 576 839 604 863 q 549 782 549 815 q 562 748 549 762 q 592 733 574 733 q 612 742 604 733 q 621 763 621 751 q 598 774 607 763 q 589 800 589 785 q 605 834 589 820 q 642 849 621 849 q 691 826 671 849 q 711 772 711 804 q 678 706 711 733 q 600 678 645 678 l 397 678 q 445 646 428 668 q 461 597 461 625 q 457 569 461 583 l 358 243 l 253 613 q 242 675 244 645 q 239 746 239 704 q 197 696 225 714 q 132 678 168 678 l 27 678 "},"X":{"ha":868,"x_min":9,"x_max":871,"o":"m 9 1 l 9 -3 q 90 -1 35 -3 q 186 0 144 0 q 235 -1 214 0 q 330 -12 265 -2 q 320 27 320 7 q 335 73 320 53 l 435 208 l 533 78 q 543 43 543 64 q 519 0 543 12 l 724 0 q 770 -1 753 0 q 808 -8 787 -2 q 841 -26 829 -14 l 845 -22 l 633 239 q 608 296 608 270 q 617 317 608 310 q 558 331 570 317 l 548 343 l 740 585 q 811 654 777 632 q 868 677 845 677 l 871 685 q 780 682 846 685 q 674 678 715 678 q 640 679 654 678 q 611 680 626 679 q 590 683 597 682 q 565 686 584 683 q 537 690 546 689 q 544 656 544 676 q 527 605 544 628 l 434 482 l 292 668 q 260 734 260 710 q 288 812 260 779 q 355 845 316 845 q 411 826 388 845 q 434 778 434 806 q 420 744 434 758 q 386 730 406 730 q 359 739 370 730 q 349 762 349 748 q 327 753 336 762 q 319 733 319 745 q 333 703 319 715 q 367 690 347 690 q 424 715 400 690 q 448 776 448 741 q 421 831 448 808 q 355 854 393 854 q 267 818 303 854 q 231 730 231 782 q 230 715 231 722 q 227 701 230 708 q 221 689 225 694 q 209 681 216 684 q 191 678 201 678 l 54 678 l 320 345 l 309 331 q 251 317 298 317 q 260 296 260 310 q 234 239 260 271 l 117 94 q 80 49 93 64 q 47 19 66 34 q 9 1 27 4 "},"Y":{"ha":854,"x_min":-9,"x_max":891,"o":"m -9 738 q 1 706 -9 721 l 258 337 q 214 329 241 337 q 310 263 286 297 l 326 241 l 326 125 q 317 83 326 104 q 290 41 309 61 q 245 14 271 22 q 353 0 285 0 l 477 0 q 507 -10 496 0 q 518 -34 518 -19 q 529 20 529 -22 l 529 239 l 546 263 q 642 329 570 297 q 597 337 617 337 l 769 584 q 796 621 783 605 q 826 652 809 637 q 858 676 842 668 q 891 685 875 685 l 891 693 q 805 686 866 693 q 701 678 743 678 q 661 679 679 678 q 632 681 643 680 q 603 684 622 682 q 570 688 583 686 q 576 657 576 673 q 561 606 576 631 l 430 401 l 299 606 q 288 645 288 624 q 316 723 288 690 q 382 755 344 755 q 439 737 415 755 q 462 691 462 718 q 447 655 462 670 q 413 641 433 641 q 387 650 398 641 q 376 672 376 659 q 355 664 364 672 q 347 643 347 655 q 361 613 347 626 q 395 601 375 601 q 452 627 428 601 q 476 689 476 653 q 448 743 476 721 q 382 765 421 765 q 340 755 359 765 q 295 726 320 746 q 226 689 260 700 q 154 677 193 677 q 48 698 89 677 q 6 749 6 719 q 18 775 6 765 q -2 764 6 775 q -9 738 -9 753 "},"Z":{"ha":814,"x_min":65,"x_max":764,"o":"m 65 431 q 153 490 103 466 q 241 515 202 515 l 453 515 l 291 353 q 222 331 269 331 q 234 322 230 328 q 239 309 239 316 q 232 294 239 300 l 111 172 q 81 100 81 143 l 81 -43 q 177 0 104 0 l 732 0 l 732 92 q 748 178 732 124 q 764 256 764 231 q 740 325 764 301 q 684 349 717 349 q 625 327 650 349 q 600 269 600 305 q 612 235 600 249 q 642 221 624 221 q 662 229 654 221 q 671 251 671 238 q 648 261 657 251 q 639 288 639 272 q 653 322 639 310 q 688 335 667 335 q 734 315 714 335 q 754 256 754 294 q 722 190 754 218 q 646 163 690 163 l 355 163 l 474 282 q 543 303 496 303 q 530 312 535 306 q 526 325 526 318 q 533 341 526 334 l 727 536 l 727 678 l 81 678 l 81 584 q 65 431 81 499 "},"[":{"ha":502,"x_min":67,"x_max":454,"o":"m 67 317 q 97 274 85 303 q 109 212 109 245 l 109 -54 q 68 -163 109 -131 l 454 -163 l 454 27 q 396 6 427 11 q 326 0 366 0 l 298 0 l 298 342 l 299 342 q 320 392 299 372 q 371 413 341 413 q 405 399 391 413 q 419 366 419 385 q 411 336 419 350 q 386 322 402 322 q 368 327 379 322 q 350 331 357 331 q 329 302 329 331 q 373 286 349 286 q 422 306 402 286 q 443 355 443 326 q 428 397 443 379 q 443 411 438 400 q 408 418 433 412 q 373 424 384 424 q 329 411 349 424 q 298 377 309 398 l 298 678 l 326 678 q 396 673 366 678 q 454 651 427 667 l 454 841 l 68 841 q 109 732 109 809 l 109 366 q 107 339 109 349 q 99 324 105 329 q 87 318 93 319 q 67 317 80 317 "},"\\":{"ha":665,"x_min":0,"x_max":665,"o":"m 0 739 l 390 17 q 399 -24 399 0 q 376 -87 399 -59 l 377 -88 q 439 -66 406 -72 q 525 -61 473 -61 l 665 -61 l 269 662 q 252 712 252 691 q 279 767 252 745 q 342 789 306 789 q 387 773 369 789 q 406 732 406 756 q 395 706 406 716 q 368 695 384 695 q 342 704 352 695 q 331 727 331 713 q 310 718 318 727 q 301 697 301 709 q 315 667 301 680 q 350 655 330 655 q 399 677 378 655 q 419 730 419 699 q 397 779 419 759 q 342 799 374 799 q 303 793 322 799 q 266 778 283 787 q 231 760 249 769 q 187 745 212 751 q 133 739 162 739 l 0 739 "},"]":{"ha":502,"x_min":47,"x_max":434,"o":"m 47 27 l 47 -163 l 434 -163 q 393 -54 393 -131 l 393 212 q 405 274 393 244 q 434 317 416 303 q 415 318 421 317 q 403 324 409 319 q 395 339 397 329 q 393 366 393 349 l 393 732 q 434 841 393 809 l 47 841 l 47 651 q 106 673 75 667 q 176 678 136 678 l 203 678 l 203 377 q 173 411 193 398 q 129 424 153 424 q 94 418 118 424 q 59 411 69 412 q 74 397 63 400 q 59 355 59 379 q 80 306 59 326 q 129 286 100 286 q 173 302 153 286 q 152 331 173 331 q 134 327 145 331 q 116 322 123 322 q 91 336 100 322 q 82 366 82 350 q 97 399 82 385 q 131 413 111 413 q 182 392 161 413 q 203 342 203 371 l 203 0 l 176 0 q 106 6 136 0 q 47 27 75 11 "},"^":{"ha":678,"x_min":41,"x_max":637,"o":"m 41 420 l 256 420 q 279 434 271 420 l 335 521 l 343 521 l 399 434 q 422 420 407 420 l 637 420 l 381 673 q 354 686 364 686 l 300 686 q 277 650 300 672 l 41 420 "},"_":{"ha":678,"x_min":54,"x_max":624,"o":"m 54 -27 l 54 -216 q 124 -203 91 -203 l 624 -203 l 624 7 q 502 -27 578 -27 l 54 -27 "},"`":{"ha":393,"x_min":12,"x_max":368,"o":"m 12 678 l 186 515 q 209 502 200 502 l 368 502 q 328 539 344 514 l 237 665 q 227 674 234 670 q 214 678 220 678 l 12 678 "},"a":{"ha":827,"x_min":-42,"x_max":859,"o":"m -42 -109 l -35 -111 q 69 -27 -6 -54 q 279 0 143 0 q 254 26 263 8 q 244 65 244 45 q 250 92 244 80 l 263 122 l 557 122 l 567 94 q 572 65 572 79 q 566 35 572 53 q 560 8 560 18 q 561 -2 560 3 q 565 -15 561 -6 q 574 -29 568 -23 q 591 -40 579 -35 q 618 -45 603 -45 q 685 -37 639 -45 q 751 -28 730 -28 q 854 -87 823 -28 l 859 -84 l 727 209 q 711 266 711 244 q 734 318 711 291 q 685 328 702 318 q 658 361 668 339 l 494 726 l 491 725 q 480 691 491 703 q 449 678 469 678 l 410 678 q 306 689 371 678 q 218 701 241 700 q 260 667 244 689 q 276 619 276 646 q 267 578 276 599 l 170 361 q 142 329 159 339 q 94 318 125 318 q 117 267 117 291 q 101 209 117 245 l -42 -109 m 331 271 l 410 463 l 439 392 q 445 359 445 379 q 443 335 445 345 q 459 332 454 335 q 468 323 465 330 l 489 271 l 331 271 "},"b":{"ha":895,"x_min":24,"x_max":848,"o":"m 24 692 q 90 640 64 678 q 115 563 115 602 l 115 366 q 113 339 115 349 q 106 324 112 329 q 94 318 100 319 q 75 317 87 317 q 104 274 92 303 q 115 212 115 244 l 115 68 q 108 15 115 43 q 91 -34 100 -13 q 74 -80 82 -55 q 66 -123 66 -105 q 63 -164 66 -139 q 56 -202 60 -188 q 72 -196 61 -202 q 87 -190 83 -190 q 124 -223 102 -211 q 172 -235 146 -235 q 241 -211 212 -235 q 270 -153 270 -187 q 255 -115 270 -132 q 222 -99 240 -99 q 195 -110 205 -99 q 185 -136 185 -120 q 211 -147 200 -136 q 222 -174 222 -158 q 207 -207 222 -193 q 170 -221 191 -221 q 106 -192 133 -221 q 80 -123 80 -164 q 84 -92 80 -107 q 100 -59 88 -76 q 129 -29 111 -42 q 177 -8 147 -17 q 247 0 208 0 l 604 0 q 726 26 670 0 q 815 98 782 53 q 848 197 848 143 q 807 289 848 244 q 704 357 766 333 q 774 417 747 382 q 800 488 800 452 q 782 564 800 529 q 732 625 763 600 q 661 664 702 650 q 576 678 620 678 l 260 678 q 24 692 112 678 m 319 163 l 319 264 l 432 264 q 444 258 439 264 q 449 241 449 251 q 486 259 467 254 q 535 264 505 264 l 583 264 q 625 250 606 264 q 644 217 644 235 q 626 179 644 195 q 583 163 608 163 l 319 163 m 319 427 l 319 522 l 549 522 q 583 508 569 522 q 597 473 597 493 q 584 442 597 456 q 556 427 571 427 l 319 427 "},"c":{"ha":848,"x_min":14,"x_max":888,"o":"m 14 319 q 48 279 35 298 q 68 236 62 259 q 125 129 86 177 q 215 51 164 81 q 327 5 267 21 q 450 -11 387 -11 q 537 -4 496 -11 q 609 15 578 3 q 666 40 640 26 q 713 68 692 54 q 749 94 733 82 q 779 115 765 106 q 804 125 793 123 l 621 285 q 596 230 613 254 q 555 193 579 207 q 505 172 532 179 q 449 165 478 165 q 378 177 412 165 q 317 209 345 188 q 274 264 290 230 q 258 339 258 297 q 274 415 258 381 q 317 469 290 448 q 378 502 345 490 q 449 513 412 513 q 695 406 576 513 q 689 435 689 420 q 808 605 689 500 q 888 743 888 669 q 858 822 888 789 q 783 854 827 854 q 714 831 743 854 q 685 773 685 807 q 699 735 685 751 q 730 719 712 719 q 759 730 747 719 q 770 755 770 740 q 744 766 754 755 q 733 793 733 778 q 748 827 733 813 q 785 841 764 841 q 849 812 822 841 q 875 743 875 784 q 855 676 875 707 q 799 614 835 645 q 768 604 786 604 q 660 641 734 604 q 448 689 563 689 q 329 675 387 689 q 222 631 272 660 q 135 560 172 602 q 76 462 97 519 q 54 339 54 405 q 55 313 54 326 q 14 319 39 319 "},"d":{"ha":888,"x_min":34,"x_max":875,"o":"m 34 678 q 93 627 72 665 q 115 549 115 590 l 115 366 q 113 339 115 349 q 106 324 112 329 q 93 318 100 319 q 74 317 87 317 q 104 274 92 303 q 115 212 115 245 l 115 109 q 100 45 115 76 q 54 0 85 15 l 448 0 q 688 63 589 0 q 820 236 787 127 q 839 278 826 259 q 875 319 852 296 q 833 313 850 319 q 834 339 834 321 q 806 478 834 414 q 728 585 778 541 q 606 654 678 629 q 448 678 534 678 l 34 678 m 319 176 l 319 317 q 340 367 319 347 q 391 388 361 388 q 425 374 411 388 q 439 340 439 360 q 430 311 439 325 q 406 297 421 297 q 388 301 398 297 q 370 306 377 306 q 349 277 349 306 q 393 260 369 260 q 442 281 422 260 q 463 330 463 301 q 448 373 463 354 q 457 377 453 374 q 463 386 460 379 q 428 393 453 387 q 393 399 404 399 q 349 386 369 399 q 319 353 329 374 l 319 502 l 441 502 q 579 458 528 502 q 631 339 631 414 q 580 220 631 264 q 441 176 529 176 l 319 176 "},"e":{"ha":814,"x_min":24,"x_max":754,"o":"m 24 692 q 90 642 65 677 q 115 563 115 606 l 115 366 q 113 339 115 349 q 106 324 112 329 q 93 318 100 319 q 74 317 87 317 q 104 274 92 303 q 115 212 115 245 l 115 109 q 100 45 115 76 q 54 0 85 15 l 665 0 q 718 -20 696 0 q 741 -67 741 -39 q 705 -158 741 -120 q 618 -196 669 -196 q 562 -170 585 -196 q 538 -107 538 -144 q 547 -82 538 -92 q 568 -72 555 -72 q 583 -77 576 -72 q 589 -88 589 -81 q 601 -82 596 -88 q 606 -66 606 -75 q 594 -42 606 -52 q 566 -31 583 -31 q 504 -54 529 -31 q 479 -111 479 -77 q 509 -195 479 -159 q 517 -181 509 -186 q 618 -209 557 -209 q 683 -192 653 -209 q 732 -145 713 -175 q 735 -144 733 -144 q 752 -150 743 -144 q 749 -121 749 -138 q 751 -95 749 -106 q 754 -67 754 -80 q 743 34 754 -43 q 731 160 731 112 q 739 243 731 204 q 669 184 712 206 q 583 163 626 163 l 319 163 l 319 251 l 604 251 l 604 414 l 319 414 l 319 515 l 597 515 q 671 501 638 515 q 732 456 703 487 l 732 678 l 260 678 q 24 692 112 678 "},"f":{"ha":780,"x_min":54,"x_max":726,"o":"m 54 -27 q 144 -5 116 -11 q 209 0 173 0 q 265 -18 241 0 q 289 -64 289 -37 l 290 -64 q 319 62 319 6 l 319 231 l 549 231 q 612 209 586 231 q 637 157 637 188 q 601 61 637 101 q 513 22 565 22 q 456 45 479 22 q 432 103 432 69 q 441 127 432 118 q 462 136 449 136 q 475 131 470 136 q 481 119 481 126 q 492 126 488 119 q 497 144 497 134 q 486 167 497 157 q 460 176 476 176 q 398 154 423 176 q 374 99 374 133 q 403 17 374 53 q 411 32 403 27 q 513 -1 451 -1 q 611 45 570 -1 q 651 157 651 92 l 651 393 l 319 393 l 319 515 l 590 515 q 664 501 631 515 q 726 456 696 487 l 726 678 l 54 678 q 100 633 85 665 q 115 570 115 602 l 115 366 q 113 339 115 349 q 106 324 112 329 q 93 318 100 319 q 74 317 87 317 q 104 274 92 303 q 115 212 115 245 l 115 88 q 100 29 115 59 q 54 -27 84 -2 "},"g":{"ha":888,"x_min":14,"x_max":913,"o":"m 14 319 q 49 278 35 297 q 68 236 62 259 q 202 58 101 124 q 448 -7 303 -7 q 566 -2 492 -7 q 658 3 640 3 q 747 -45 715 3 q 780 -182 780 -93 l 787 -182 l 787 148 q 818 248 787 188 q 802 242 812 248 q 787 236 791 236 l 787 271 q 802 335 787 304 q 848 380 817 365 l 427 380 l 427 217 q 484 239 455 233 q 556 244 513 244 l 610 244 l 610 163 q 448 156 522 156 q 366 170 403 156 q 304 209 329 184 q 265 268 279 234 q 251 339 251 301 q 303 465 251 417 q 441 513 356 513 q 551 490 504 513 q 619 424 597 468 l 822 605 q 881 672 861 639 q 902 743 902 704 q 905 784 902 759 q 913 822 908 808 q 896 815 907 822 q 881 809 886 809 q 844 842 866 830 q 797 854 822 854 q 727 831 756 854 q 699 773 699 807 q 713 735 699 752 q 747 719 728 719 q 773 729 763 719 q 784 755 784 740 q 757 766 768 755 q 746 793 746 778 q 762 827 746 813 q 799 841 777 841 q 862 812 836 841 q 888 743 888 784 q 868 677 888 708 q 812 614 848 646 q 774 604 801 604 q 653 642 725 604 q 441 689 564 689 q 283 664 355 689 q 161 593 211 638 q 82 482 111 547 q 54 339 54 417 q 55 313 54 326 q 14 319 39 319 "},"h":{"ha":909,"x_min":54,"x_max":854,"o":"m 54 0 l 188 0 q 288 -19 248 0 q 343 -74 327 -38 q 354 -123 354 -99 q 328 -192 354 -164 q 265 -221 302 -221 q 228 -207 243 -221 q 213 -174 213 -193 q 223 -147 213 -158 q 250 -136 234 -136 q 239 -110 250 -120 q 213 -99 229 -99 q 179 -115 194 -99 q 165 -153 165 -132 q 193 -211 165 -187 q 262 -235 222 -235 q 310 -223 288 -235 q 348 -190 333 -211 q 362 -196 352 -190 q 379 -202 373 -202 q 371 -164 374 -188 q 368 -123 368 -139 q 357 -68 368 -98 q 349 -48 355 -65 q 340 -24 342 -31 q 332 -3 337 -18 q 325 22 327 13 q 321 44 323 31 q 319 68 319 57 l 319 244 l 590 244 l 590 109 q 575 45 590 76 q 529 0 560 15 l 854 0 q 809 45 824 13 q 793 109 793 76 l 793 212 q 805 274 793 245 q 834 317 817 303 q 815 318 822 317 q 803 324 809 319 q 795 339 797 329 q 793 366 793 349 l 793 570 q 809 633 793 603 q 854 678 824 664 l 711 678 q 657 684 683 678 q 614 699 632 690 q 578 717 595 708 q 542 732 561 726 q 502 738 522 738 q 447 718 470 738 q 425 669 425 697 q 445 616 425 638 q 495 594 466 594 q 529 606 515 594 q 543 636 543 619 q 535 657 543 648 q 513 666 526 666 q 503 643 513 652 q 477 634 492 634 q 450 645 461 634 q 439 671 439 655 q 457 712 439 695 q 502 728 476 728 q 564 701 538 728 q 590 635 590 673 l 590 420 l 319 420 l 319 570 q 334 633 319 603 q 380 678 349 664 l 54 678 q 100 633 85 665 q 115 570 115 602 l 115 366 q 113 339 115 349 q 106 324 112 329 q 93 318 100 319 q 74 317 87 317 q 104 274 92 303 q 115 212 115 245 l 115 109 q 100 45 115 76 q 54 0 85 15 "},"i":{"ha":434,"x_min":37,"x_max":380,"o":"m 37 -22 q 76 -15 51 -20 q 119 -7 102 -10 q 160 -2 135 -5 q 209 0 185 0 l 380 0 q 334 45 349 15 q 319 109 319 76 l 319 212 q 330 274 319 244 q 359 317 342 303 q 340 318 347 317 q 328 324 334 319 q 321 339 322 329 q 319 366 319 349 l 319 570 q 334 633 319 602 q 380 678 349 665 l 165 678 q 105 682 141 678 q 49 692 69 686 l 46 686 q 115 557 115 661 l 115 366 q 113 339 115 349 q 106 324 112 329 q 94 318 100 319 q 75 317 87 317 q 104 274 92 303 q 115 212 115 244 l 115 109 q 112 76 115 93 q 101 41 109 60 q 76 5 93 21 q 37 -22 60 -12 "},"j":{"ha":766,"x_min":38,"x_max":726,"o":"m 38 107 q 67 95 50 106 q 103 69 85 83 q 149 35 120 54 q 206 2 177 16 q 368 -33 278 -33 q 458 -21 414 -33 q 539 13 501 -10 q 605 70 577 36 q 648 149 632 103 q 665 251 665 196 q 677 286 665 266 q 705 317 690 305 q 665 366 665 317 l 665 570 q 670 610 665 590 q 690 650 676 630 q 726 678 705 669 l 95 678 l 95 607 q 88 448 95 507 q 233 509 138 509 l 461 509 l 461 251 q 431 175 461 202 q 357 148 400 148 q 312 156 333 148 q 274 180 291 164 q 247 221 257 196 q 237 278 237 246 l 110 168 q 95 162 103 162 q 84 165 89 162 q 76 175 79 169 q 64 252 64 212 q 88 336 64 298 q 153 397 112 374 q 242 419 194 419 q 300 396 276 419 q 323 342 323 374 q 313 314 323 326 q 289 302 303 302 q 300 280 289 290 q 326 271 311 271 q 367 292 350 271 q 385 340 385 312 q 352 427 385 390 q 344 412 352 417 q 242 446 303 446 q 146 420 190 446 q 76 350 102 394 q 50 252 50 305 q 83 125 50 185 l 84 124 q 38 107 58 124 "},"k":{"ha":861,"x_min":54,"x_max":854,"o":"m 54 0 l 339 0 q 319 109 319 38 l 319 251 l 351 251 l 541 -12 q 633 -54 572 -54 q 732 -39 667 -54 q 818 -23 796 -23 q 852 -31 841 -23 l 854 -28 l 495 352 l 702 585 q 733 619 722 607 q 762 646 745 631 q 797 670 780 662 q 833 682 814 679 l 833 685 q 739 682 809 685 q 624 678 669 678 q 573 680 594 678 q 529 684 552 681 q 487 688 506 686 q 493 657 493 673 q 476 605 493 629 l 347 419 l 319 419 l 319 692 q 282 804 319 761 q 186 846 246 846 q 122 824 149 846 q 96 770 96 802 q 110 730 96 748 q 143 712 125 712 q 170 723 160 712 q 181 749 181 733 q 156 760 169 749 q 143 787 143 772 q 158 819 143 806 q 193 832 172 832 q 257 808 232 832 q 282 739 282 784 q 260 696 282 713 q 208 678 238 678 l 54 678 q 100 633 85 665 q 115 570 115 602 l 115 366 q 113 339 115 349 q 106 324 112 329 q 93 318 100 319 q 74 317 87 317 q 104 274 92 303 q 115 212 115 245 l 115 109 q 110 68 115 88 q 90 28 104 47 q 54 0 75 9 "},"l":{"ha":732,"x_min":54,"x_max":694,"o":"m 54 0 l 534 0 q 671 -24 609 0 q 683 124 671 25 q 694 270 694 224 q 652 378 694 333 q 550 423 610 423 q 448 389 489 423 q 440 404 440 394 q 410 317 410 368 q 435 261 410 284 q 494 237 459 237 q 522 247 510 237 q 534 270 534 256 q 529 287 534 280 q 517 294 524 294 q 512 283 517 287 q 498 278 507 278 q 477 288 486 278 q 469 313 469 298 q 493 372 469 348 q 550 396 516 396 q 643 359 604 396 q 681 270 681 322 q 680 258 681 264 q 677 243 680 253 q 669 224 674 233 q 653 207 664 216 q 629 191 643 198 q 594 181 615 185 q 545 176 572 176 l 319 176 l 319 591 q 346 668 319 636 q 413 700 374 700 q 469 681 446 700 q 492 635 492 662 q 478 600 492 614 q 444 585 464 585 q 417 594 428 585 q 407 616 407 603 q 385 608 394 616 q 377 588 377 600 q 391 558 377 570 q 425 545 405 545 q 482 571 458 545 q 506 633 506 597 q 479 687 506 665 q 413 709 451 709 q 334 694 388 709 q 248 678 280 678 l 54 678 q 100 633 85 665 q 115 570 115 602 l 115 366 q 113 339 115 349 q 106 324 112 329 q 93 318 100 319 q 74 317 87 317 q 104 274 92 303 q 115 212 115 245 l 115 109 q 100 45 115 76 q 54 0 85 15 "},"m":{"ha":1200,"x_min":34,"x_max":1146,"o":"m 34 678 q 94 629 72 664 q 115 549 115 594 l 115 366 q 113 339 115 349 q 106 324 112 329 q 93 318 100 319 q 74 317 87 317 q 104 274 92 303 q 115 212 115 245 l 115 109 q 100 45 115 76 q 54 0 85 15 l 370 0 q 325 45 340 13 q 309 109 309 76 l 309 449 l 549 0 q 590 -133 590 -79 l 594 -133 q 602 -92 594 -116 q 619 -50 610 -68 q 646 0 628 -32 l 888 454 l 888 109 q 873 45 888 76 q 827 0 858 15 l 1146 0 q 1100 45 1116 13 q 1085 109 1085 76 l 1085 212 q 1097 274 1085 245 q 1126 317 1108 303 q 1107 318 1113 317 q 1095 324 1101 319 q 1087 339 1089 329 q 1085 366 1085 349 l 1085 570 q 1100 633 1085 603 q 1146 678 1115 664 l 884 678 q 833 685 859 678 q 773 714 807 692 q 721 743 745 733 q 671 754 696 754 q 605 732 633 754 q 578 678 578 710 q 602 616 578 642 q 659 590 626 590 q 693 602 679 590 q 707 632 707 615 q 699 653 707 644 q 677 662 690 662 q 667 639 677 648 q 641 630 656 630 q 606 645 621 630 q 592 681 592 660 q 615 726 592 707 q 671 745 638 745 q 743 712 713 745 q 773 632 773 679 q 764 585 773 605 l 601 256 l 430 600 q 415 746 415 629 q 372 696 401 714 q 307 678 342 678 l 34 678 "},"n":{"ha":909,"x_min":54,"x_max":854,"o":"m 54 0 l 127 0 q 338 -62 252 0 l 340 -58 q 320 -39 328 -50 q 308 -17 312 -28 q 302 9 304 -7 q 299 37 299 24 q 298 68 298 49 l 298 382 l 552 80 q 564 42 564 67 q 538 -23 564 4 q 476 -50 512 -50 q 431 -33 450 -50 q 413 7 413 -17 q 424 34 413 23 q 451 44 435 44 q 477 35 466 44 q 488 13 488 26 q 509 21 500 13 q 517 42 517 30 q 503 72 517 59 q 469 84 489 84 q 420 62 440 84 q 399 9 399 40 q 422 -40 399 -19 q 476 -60 444 -60 q 516 -54 496 -60 q 552 -39 535 -47 q 588 -21 569 -30 q 631 -6 606 -12 q 685 0 656 0 l 841 0 q 815 19 825 7 q 800 48 805 32 q 795 78 796 65 q 793 109 793 91 l 793 212 q 805 274 793 245 q 834 317 817 303 q 815 318 822 317 q 803 324 809 319 q 795 339 797 329 q 793 366 793 349 l 793 570 q 809 633 793 603 q 854 678 824 664 l 549 678 q 595 633 580 665 q 610 570 610 602 l 610 294 l 289 678 l 54 678 q 100 633 85 665 q 115 570 115 602 l 115 366 q 113 339 115 349 q 106 324 112 329 q 93 318 100 319 q 74 317 87 317 q 104 274 92 303 q 115 212 115 245 l 115 109 q 100 45 115 76 q 54 0 85 15 "},"o":{"ha":882,"x_min":14,"x_max":868,"o":"m 14 319 q 68 236 56 277 q 199 55 100 122 q 441 -11 298 -11 q 683 55 584 -11 q 814 236 782 122 q 834 278 821 259 q 868 319 847 297 q 827 313 843 319 q 827 339 827 321 q 799 482 827 417 q 721 593 771 548 q 599 664 671 638 q 441 689 527 689 q 238 645 326 689 q 102 522 150 602 q 54 339 54 443 q 55 313 54 326 q 14 319 39 319 m 258 339 q 297 422 258 388 q 391 457 336 457 q 463 430 433 457 q 492 365 492 403 q 467 308 492 332 q 407 285 442 285 q 382 294 392 285 q 372 315 372 302 q 376 330 372 323 q 388 336 381 336 q 381 348 388 343 q 366 353 375 353 q 341 341 352 353 q 331 313 331 330 q 354 251 331 276 q 411 227 377 227 q 497 256 461 227 q 484 264 489 256 q 513 365 513 303 q 477 440 513 409 q 391 471 441 471 q 319 452 351 471 q 268 401 286 433 q 331 483 285 453 q 441 513 377 513 q 574 465 523 513 q 624 339 624 417 q 574 213 624 261 q 441 165 523 165 q 308 213 358 165 q 258 339 258 261 "},"p":{"ha":834,"x_min":24,"x_max":807,"o":"m 24 692 q 90 642 65 677 q 115 563 115 606 l 115 366 q 113 339 115 349 q 106 324 112 329 q 93 318 100 319 q 74 317 87 317 q 104 274 92 303 q 115 212 115 245 l 115 109 q 100 45 115 76 q 54 0 85 15 l 415 0 q 473 24 449 0 q 496 83 496 48 q 490 118 496 93 q 483 152 485 142 q 474 146 477 150 q 470 137 472 143 q 427 152 452 152 q 381 134 400 152 q 362 90 362 115 q 378 45 362 65 q 407 66 407 45 q 403 84 407 73 q 399 102 399 95 q 411 121 399 113 q 438 129 422 129 q 472 114 458 129 q 486 80 486 100 q 465 29 486 50 q 415 8 444 8 q 343 35 367 8 q 319 109 319 62 l 319 203 l 556 203 q 653 222 607 203 q 734 273 700 241 q 787 349 767 305 q 807 441 807 393 q 787 533 807 489 q 734 609 767 577 q 653 659 700 641 q 556 678 607 678 l 260 678 q 24 692 112 678 m 319 366 l 319 502 l 543 502 q 586 482 568 502 q 604 434 604 462 q 586 386 604 406 q 543 366 568 366 l 319 366 "},"q":{"ha":868,"x_min":14,"x_max":854,"o":"m 14 323 q 48 282 35 301 q 68 240 62 263 q 197 63 100 128 q 434 -3 294 -3 q 671 63 574 -3 q 800 240 768 128 q 820 282 806 263 q 854 323 833 301 q 813 317 829 323 q 814 343 814 325 q 786 485 814 420 q 710 594 759 549 q 589 664 660 639 q 434 689 518 689 q 279 664 350 689 q 159 594 208 639 q 82 485 109 549 q 54 343 54 420 q 55 317 54 325 q 14 323 39 323 m 244 -54 l 244 -203 q 334 -210 285 -203 q 429 -227 383 -217 q 520 -247 475 -237 q 615 -264 566 -257 q 705 -271 664 -271 l 705 -68 q 600 -84 664 -84 q 414 -69 536 -84 q 244 -54 292 -54 m 306 466 q 434 513 355 513 q 484 492 463 513 q 505 441 505 471 q 491 406 505 421 q 457 392 477 392 q 428 401 442 392 q 414 426 414 410 q 418 444 414 433 q 422 461 422 454 q 393 483 422 483 q 377 438 377 463 q 397 389 377 409 q 446 369 417 369 q 489 384 471 369 q 493 375 491 378 q 502 369 496 371 q 509 403 504 378 q 515 438 515 428 q 505 479 515 460 q 476 509 494 498 q 574 453 538 497 q 610 343 610 408 q 562 220 610 267 q 434 174 513 174 q 306 220 355 174 q 258 343 258 267 q 282 443 258 419 q 306 466 306 466 "},"r":{"ha":895,"x_min":54,"x_max":869,"o":"m 54 0 l 310 0 q 399 -28 362 0 q 436 -96 436 -56 q 409 -165 436 -137 q 346 -194 383 -194 q 309 -180 325 -194 q 294 -146 294 -166 q 305 -120 294 -131 q 331 -109 316 -109 q 321 -82 331 -93 q 294 -72 310 -72 q 261 -88 275 -72 q 246 -126 246 -104 q 275 -184 246 -160 q 344 -208 303 -208 q 392 -195 370 -208 q 429 -162 414 -183 q 444 -169 433 -162 q 460 -175 454 -175 q 452 -137 455 -161 q 449 -96 449 -112 q 442 -59 449 -76 q 424 -31 435 -42 q 398 -9 412 -20 q 370 12 384 1 q 345 36 356 23 q 326 67 333 48 q 319 109 319 85 l 319 217 l 522 217 q 570 191 550 217 q 590 129 590 165 l 590 115 q 598 50 590 83 q 613 16 603 33 q 640 -14 624 0 q 680 -37 656 -28 q 732 -46 704 -46 q 869 0 795 -46 q 814 44 834 13 q 793 115 793 76 l 793 161 q 763 254 793 212 q 683 321 733 296 q 753 388 727 349 q 780 468 780 428 q 748 573 780 525 q 662 650 716 622 q 543 678 607 678 l 54 678 q 100 633 85 665 q 115 570 115 602 l 115 365 q 113 338 115 348 q 106 324 112 329 q 93 318 100 319 q 74 317 87 317 q 103 274 92 303 q 115 212 115 245 l 115 109 q 100 46 115 76 q 54 0 85 16 m 319 387 l 319 509 l 519 509 q 559 492 543 509 q 575 452 575 475 q 554 406 575 425 q 505 387 533 387 l 456 387 q 416 394 438 387 q 375 414 393 402 q 385 387 385 403 l 319 387 "},"s":{"ha":821,"x_min":30,"x_max":805,"o":"m 30 111 q 67 95 44 109 q 120 64 90 81 q 189 30 150 47 q 285 1 227 13 q 410 -11 343 -11 q 551 7 486 -11 q 661 56 617 26 q 729 126 705 87 q 754 209 754 166 q 415 438 754 392 q 299 464 336 449 q 262 496 262 480 q 296 527 262 514 q 381 540 331 540 q 463 531 426 540 q 526 509 500 523 q 573 479 552 496 q 613 447 595 463 q 647 417 631 431 q 685 395 664 404 q 728 387 705 387 q 783 407 760 387 q 805 456 805 427 q 785 508 805 487 q 735 530 764 530 q 701 518 715 530 q 687 488 687 506 q 696 467 687 476 q 717 459 704 459 q 728 481 717 472 q 753 491 738 491 q 780 480 769 491 q 791 453 791 469 q 773 413 791 430 q 728 396 754 396 q 670 418 692 396 q 648 473 648 440 q 654 504 648 491 q 681 539 660 517 q 749 602 702 562 l 741 611 q 716 602 730 602 q 701 604 709 602 q 681 611 693 606 q 661 619 668 615 q 633 631 653 622 q 604 645 614 641 q 558 671 595 649 q 504 699 522 692 q 510 684 510 691 q 505 678 510 679 q 393 689 454 689 q 260 671 322 689 q 155 624 197 654 q 88 557 113 595 q 64 477 64 518 q 89 396 64 433 q 160 331 114 358 q 266 285 205 303 q 401 258 328 266 q 495 241 458 251 q 546 220 532 231 q 560 198 560 210 q 517 161 560 177 q 414 145 473 145 q 340 151 376 145 q 272 169 304 157 q 218 203 240 181 q 193 251 197 224 l 30 111 "},"t":{"ha":780,"x_min":47,"x_max":754,"o":"m 47 434 q 66 467 55 453 q 90 489 78 481 q 119 501 102 496 q 150 506 136 505 q 183 507 164 507 l 289 507 l 289 366 q 287 339 289 349 q 279 324 285 329 q 267 318 273 319 q 248 317 261 317 q 277 274 266 303 q 289 212 289 245 l 289 37 q 272 -10 289 8 q 228 -28 255 -28 q 169 -7 191 -28 q 146 49 146 14 q 155 74 146 64 q 176 84 164 84 q 189 80 184 84 q 194 68 194 75 q 205 75 201 68 q 210 90 210 81 q 200 109 210 101 q 175 117 190 117 q 122 97 144 117 q 100 51 100 78 q 126 -24 100 7 q 134 -10 126 -15 q 178 -34 157 -27 q 227 -42 199 -42 q 273 -31 245 -42 q 332 -11 301 -21 q 388 0 362 0 l 470 0 q 525 -2 487 0 q 568 -4 563 -4 q 535 18 550 3 q 511 52 520 34 q 497 89 502 71 q 492 122 492 107 l 492 212 q 504 274 492 245 q 533 317 515 303 q 514 318 520 317 q 502 324 508 319 q 494 339 496 329 q 492 366 492 349 l 492 507 l 583 507 q 732 441 679 507 l 732 601 q 754 678 732 644 l 47 678 l 47 434 "},"u":{"ha":868,"x_min":41,"x_max":827,"o":"m 41 665 q 86 620 71 651 q 102 556 102 588 l 102 315 q 89 317 97 315 q 76 319 80 319 q 68 317 72 319 q 94 278 83 301 q 110 237 106 254 q 220 60 133 125 q 434 -5 306 -5 q 648 60 562 -5 q 759 237 735 125 q 774 278 762 254 q 800 317 785 301 q 792 319 796 319 q 779 317 788 319 q 766 315 771 315 l 766 570 q 781 633 766 603 q 827 678 797 664 l 684 678 q 630 684 655 678 q 586 699 605 690 q 551 717 568 708 q 515 732 534 726 q 475 738 495 738 q 420 718 443 738 q 398 669 398 697 q 418 616 398 638 q 468 594 439 594 q 502 606 488 594 q 516 636 516 619 q 507 657 516 648 q 486 666 499 666 q 476 643 486 652 q 450 634 465 634 q 423 645 434 634 q 412 671 412 655 q 430 712 412 695 q 475 728 449 728 q 537 701 511 728 q 563 635 563 673 l 563 307 q 527 211 563 247 q 434 175 492 175 q 341 211 376 175 q 305 307 305 247 l 305 572 q 297 619 305 599 q 276 652 289 640 q 245 673 263 665 q 207 684 227 681 q 166 688 188 688 q 96 681 131 688 q 41 665 61 673 "},"v":{"ha":821,"x_min":-46,"x_max":844,"o":"m -46 718 q 18 629 -18 689 q 79 514 55 568 l 146 361 q 151 343 151 350 q 109 318 151 318 q 245 136 193 256 l 305 0 l 401 0 q 454 -16 437 0 q 470 -63 470 -32 q 461 -123 470 -87 l 575 136 q 712 318 627 256 q 670 343 670 318 q 674 361 670 350 l 844 746 l 837 749 q 786 696 822 714 q 705 678 750 678 q 634 687 670 678 q 572 713 598 696 q 479 750 516 750 q 411 726 434 750 q 387 670 387 703 q 409 611 387 636 q 466 586 431 586 q 500 598 486 586 q 515 628 515 611 q 506 649 515 640 q 485 657 497 657 q 474 635 485 644 q 448 626 464 626 q 413 640 426 626 q 400 674 400 654 q 421 721 400 701 q 479 741 441 741 q 545 709 518 741 q 573 632 573 677 q 564 587 573 608 l 413 220 l 409 220 l 257 586 q 210 713 225 662 l 207 713 q 189 688 203 697 q 161 678 174 678 q 53 687 96 678 q -44 722 11 697 l -46 718 "},"w":{"ha":1146,"x_min":27,"x_max":1126,"o":"m 27 678 l 128 361 q 132 343 132 350 q 119 324 132 330 q 85 317 106 317 q 152 248 128 286 q 196 148 176 210 l 236 22 q 295 0 244 0 l 356 0 q 420 -18 392 0 q 463 -68 449 -36 q 465 5 463 -23 q 477 65 468 34 l 572 376 l 690 -8 q 840 5 768 5 q 903 0 871 5 l 950 148 q 994 248 970 210 q 1061 317 1018 286 q 1027 324 1040 317 q 1014 343 1014 331 q 1018 361 1014 350 l 1126 700 q 1023 678 1078 678 l 856 678 q 884 608 884 661 q 879 570 884 587 l 787 243 l 688 569 q 682 607 682 588 q 692 664 682 634 q 712 722 702 694 q 722 772 722 750 q 698 836 722 809 q 640 863 674 863 q 576 839 604 863 q 549 782 549 815 q 562 748 549 762 q 592 733 574 733 q 612 742 604 733 q 621 763 621 751 q 598 774 607 763 q 589 800 589 785 q 605 834 589 820 q 642 849 621 849 q 691 826 671 849 q 711 772 711 804 q 678 706 711 733 q 600 678 645 678 l 397 678 q 445 646 428 668 q 461 597 461 625 q 457 569 461 583 l 358 243 l 253 613 q 242 675 244 645 q 239 746 239 704 q 197 696 225 714 q 132 678 168 678 l 27 678 "},"x":{"ha":868,"x_min":9,"x_max":871,"o":"m 9 1 l 9 -3 q 90 -1 35 -3 q 186 0 144 0 q 235 -1 214 0 q 330 -12 265 -2 q 320 27 320 7 q 335 73 320 53 l 435 208 l 533 78 q 543 43 543 64 q 519 0 543 12 l 724 0 q 770 -1 753 0 q 808 -8 787 -2 q 841 -26 829 -14 l 845 -22 l 633 239 q 608 296 608 270 q 617 317 608 310 q 558 331 570 317 l 548 343 l 740 585 q 811 654 777 632 q 868 677 845 677 l 871 685 q 780 682 846 685 q 674 678 715 678 q 640 679 654 678 q 611 680 626 679 q 590 683 597 682 q 565 686 584 683 q 537 690 546 689 q 544 656 544 676 q 527 605 544 628 l 434 482 l 292 668 q 260 734 260 710 q 288 812 260 779 q 355 845 316 845 q 411 826 388 845 q 434 778 434 806 q 420 744 434 758 q 386 730 406 730 q 359 739 370 730 q 349 762 349 748 q 327 753 336 762 q 319 733 319 745 q 333 703 319 715 q 367 690 347 690 q 424 715 400 690 q 448 776 448 741 q 421 831 448 808 q 355 854 393 854 q 267 818 303 854 q 231 730 231 782 q 230 715 231 722 q 227 701 230 708 q 221 689 225 694 q 209 681 216 684 q 191 678 201 678 l 54 678 l 320 345 l 309 331 q 251 317 298 317 q 260 296 260 310 q 234 239 260 271 l 117 94 q 80 49 93 64 q 47 19 66 34 q 9 1 27 4 "},"y":{"ha":854,"x_min":-9,"x_max":891,"o":"m -9 738 q 1 706 -9 721 l 258 337 q 214 329 241 337 q 310 263 286 297 l 326 241 l 326 125 q 317 83 326 104 q 290 41 309 61 q 245 14 271 22 q 353 0 285 0 l 477 0 q 507 -10 496 0 q 518 -34 518 -19 q 529 20 529 -22 l 529 239 l 546 263 q 642 329 570 297 q 597 337 617 337 l 769 584 q 796 621 783 605 q 826 652 809 637 q 858 676 842 668 q 891 685 875 685 l 891 693 q 805 686 866 693 q 701 678 743 678 q 661 679 679 678 q 632 681 643 680 q 603 684 622 682 q 570 688 583 686 q 576 657 576 673 q 561 606 576 631 l 430 401 l 299 606 q 288 645 288 624 q 316 723 288 690 q 382 755 344 755 q 439 737 415 755 q 462 691 462 718 q 447 655 462 670 q 413 641 433 641 q 387 650 398 641 q 376 672 376 659 q 355 664 364 672 q 347 643 347 655 q 361 613 347 626 q 395 601 375 601 q 452 627 428 601 q 476 689 476 653 q 448 743 476 721 q 382 765 421 765 q 340 755 359 765 q 295 726 320 746 q 226 689 260 700 q 154 677 193 677 q 48 698 89 677 q 6 749 6 719 q 18 775 6 765 q -2 764 6 775 q -9 738 -9 753 "},"z":{"ha":814,"x_min":65,"x_max":764,"o":"m 65 431 q 153 490 103 466 q 241 515 202 515 l 453 515 l 291 353 q 222 331 269 331 q 234 322 230 328 q 239 309 239 316 q 232 294 239 300 l 111 172 q 81 100 81 143 l 81 -43 q 177 0 104 0 l 732 0 l 732 92 q 748 178 732 124 q 764 256 764 231 q 740 325 764 301 q 684 349 717 349 q 625 327 650 349 q 600 269 600 305 q 612 235 600 249 q 642 221 624 221 q 662 229 654 221 q 671 251 671 238 q 648 261 657 251 q 639 288 639 272 q 653 322 639 310 q 688 335 667 335 q 734 315 714 335 q 754 256 754 294 q 722 190 754 218 q 646 163 690 163 l 355 163 l 474 282 q 543 303 496 303 q 530 312 535 306 q 526 325 526 318 q 533 341 526 334 l 727 536 l 727 678 l 81 678 l 81 584 q 65 431 81 499 "},"{":{"ha":502,"x_min":34,"x_max":454,"o":"m 34 309 q 98 287 74 309 q 122 228 122 264 q 115 123 122 202 q 109 0 109 44 q 130 -82 109 -44 q 190 -141 152 -119 q 271 -163 227 -163 l 454 -163 l 454 27 q 403 6 426 11 q 353 0 380 0 q 314 18 330 0 q 298 61 298 36 l 298 270 q 274 318 298 298 q 217 338 251 338 l 217 340 q 274 360 251 340 q 298 408 298 380 l 298 617 q 314 660 298 642 q 353 678 330 678 q 403 673 380 678 q 454 651 426 667 l 454 841 l 271 841 q 190 819 227 841 q 130 760 152 797 q 109 678 109 722 q 115 555 109 634 q 122 450 122 476 q 98 391 122 414 q 34 369 74 369 l 34 309 "},"|":{"ha":448,"x_min":122,"x_max":326,"o":"m 122 -271 l 326 -271 l 326 922 l 122 922 l 122 -271 "},"}":{"ha":502,"x_min":47,"x_max":468,"o":"m 47 27 l 47 -163 l 231 -163 q 312 -141 275 -163 q 371 -82 350 -119 q 393 0 393 -44 q 387 123 393 44 q 380 228 380 202 q 404 287 380 264 q 468 309 428 309 l 468 369 q 404 391 428 369 q 380 450 380 414 q 387 555 380 476 q 393 678 393 634 q 371 760 393 722 q 312 819 350 797 q 231 841 275 841 l 47 841 l 47 651 q 99 673 76 667 q 149 678 121 678 q 188 660 172 678 q 203 617 203 642 l 203 408 q 227 360 203 380 q 285 340 251 340 l 285 338 q 227 318 251 338 q 203 270 203 298 l 203 61 q 188 18 203 36 q 149 0 172 0 q 99 6 121 0 q 47 27 76 11 "},"~":{"ha":827,"x_min":54,"x_max":773,"o":"m 54 326 q 75 190 54 256 l 270 190 q 210 312 210 239 q 223 356 210 339 q 256 373 236 373 q 279 365 268 373 q 299 345 289 358 q 319 315 309 332 q 342 280 330 299 q 369 243 355 262 q 403 208 384 225 q 445 179 422 192 q 497 158 467 166 q 563 151 528 151 q 716 205 658 151 q 773 353 773 259 q 753 488 773 422 l 557 488 q 617 366 617 439 q 604 322 617 339 q 571 305 592 305 q 545 313 557 305 q 523 333 533 320 q 504 363 514 346 q 484 398 495 379 q 459 435 472 416 q 428 470 447 453 q 387 499 410 487 q 334 520 365 512 q 264 528 302 528 q 112 473 169 528 q 54 326 54 419 "},"":{"ha":339,"x_min":18,"x_max":324,"o":"m 18 -9 l 133 -9 q 289 -83 255 -9 q 300 -133 300 -106 q 273 -202 300 -174 q 210 -231 247 -231 q 173 -217 189 -231 q 157 -183 157 -202 q 169 -156 157 -167 q 195 -145 180 -145 q 184 -119 195 -130 q 157 -109 174 -109 q 124 -125 139 -109 q 110 -163 110 -141 q 138 -220 110 -196 q 208 -244 167 -244 q 256 -232 234 -244 q 293 -199 278 -220 q 308 -205 298 -199 q 324 -212 319 -212 q 316 -173 319 -198 q 313 -133 313 -148 q 301 -77 313 -112 q 292 -52 299 -71 q 281 -23 285 -34 q 272 6 277 -12 q 265 41 268 23 q 262 76 262 58 l 254 313 q 255 341 254 332 q 261 355 256 350 q 271 361 265 360 q 289 362 276 362 q 281 368 287 364 q 273 374 275 372 q 267 379 271 375 q 261 385 263 382 q 257 392 260 387 q 254 401 255 396 q 252 412 253 406 q 251 427 251 419 q 248 433 251 430 q 243 435 246 435 l 96 435 q 91 433 93 435 q 88 427 88 430 q 86 406 88 414 q 81 390 85 397 q 74 381 76 384 q 62 371 72 378 q 50 362 53 365 q 68 361 63 362 q 78 355 74 360 q 84 341 83 350 q 85 313 85 332 l 79 98 q 75 66 78 81 q 64 36 71 51 q 46 10 58 22 q 18 -9 34 -2 m 81 530 q 85 521 81 525 q 95 517 90 517 l 244 517 q 254 521 250 517 q 258 530 258 525 l 258 673 q 254 682 258 678 q 244 686 250 686 l 95 686 q 85 682 90 686 q 81 673 81 678 l 81 530 "},"":{"ha":827,"x_min":14,"x_max":868,"o":"m 14 319 q 49 278 36 297 q 70 236 63 259 q 115 143 85 185 q 186 74 145 102 q 275 29 227 46 q 377 6 323 12 l 377 -81 l 491 -81 l 491 5 q 584 25 541 11 q 657 58 628 40 q 710 94 687 76 q 752 124 733 111 q 784 138 771 136 l 601 298 q 576 244 593 268 q 537 207 559 220 q 489 186 514 193 q 435 179 463 179 q 307 223 355 179 q 258 339 258 267 q 307 455 258 411 q 435 499 355 499 q 675 392 556 499 q 669 421 669 406 q 788 591 669 487 q 868 730 868 655 q 837 808 868 776 q 763 841 806 841 q 694 817 722 841 q 665 759 665 793 q 678 721 665 738 q 710 705 692 705 q 738 716 727 705 q 750 742 750 727 q 723 753 734 742 q 712 780 712 764 q 728 813 712 800 q 765 827 743 827 q 828 799 802 827 q 854 730 854 770 q 834 663 854 694 q 779 601 814 631 q 748 591 766 591 q 640 627 714 591 q 491 672 569 663 l 491 760 l 377 760 l 377 673 q 207 619 280 663 q 94 503 134 575 q 54 339 54 431 q 55 313 54 326 q 14 319 39 319 "},"":{"ha":766,"x_min":-2,"x_max":734,"o":"m -2 -173 q 14 -167 3 -173 q 29 -161 25 -161 q 66 -194 44 -182 q 114 -206 88 -206 q 183 -182 154 -206 q 212 -124 212 -158 q 197 -87 212 -103 q 164 -71 182 -71 q 137 -81 148 -71 q 127 -107 127 -92 q 153 -118 142 -107 q 164 -145 164 -129 q 149 -179 164 -165 q 112 -193 134 -193 q 48 -164 75 -193 q 22 -95 22 -135 q 69 -22 22 -50 q 173 9 107 1 q 332 16 238 16 q 419 10 373 16 q 502 -2 466 4 q 552 -8 538 -8 q 622 3 591 -8 q 673 30 653 13 q 707 70 694 47 q 727 118 721 94 q 733 169 733 143 q 720 244 733 209 q 686 298 707 279 q 670 292 676 298 q 663 280 663 287 q 681 233 681 255 q 656 189 681 205 q 589 173 631 173 q 526 180 580 173 q 436 186 473 186 q 369 177 404 186 q 311 149 334 168 q 338 271 336 228 l 468 271 l 468 419 l 315 419 q 306 471 306 455 q 328 517 306 501 q 387 533 351 533 q 527 472 478 533 l 660 623 q 683 649 675 640 q 703 675 691 659 q 720 702 714 690 q 730 730 726 714 q 734 761 734 746 q 704 840 734 807 q 629 872 673 872 q 560 848 589 872 q 531 790 531 824 q 545 753 531 769 q 576 736 558 736 q 605 747 593 736 q 616 773 616 758 q 590 784 601 773 q 579 811 579 795 q 594 845 579 831 q 631 859 610 859 q 695 830 668 859 q 721 761 721 801 q 710 714 721 738 q 687 675 700 691 q 652 635 674 659 q 632 628 646 628 q 581 643 611 628 q 380 689 484 689 q 247 664 308 689 q 151 596 186 639 q 115 502 115 553 q 122 419 115 464 l 54 419 l 54 259 q 124 271 91 271 l 154 271 q 161 201 161 234 q 155 134 161 165 q 139 84 148 104 q 114 46 130 65 q 87 17 98 27 q 58 -6 76 8 q 8 -95 8 -44 q 5 -135 8 -111 q -2 -173 2 -160 "},"":{"ha":597,"x_min":32,"x_max":565,"o":"m 32 191 l 151 72 l 227 149 q 298 136 261 136 q 370 149 336 136 l 446 72 l 565 191 l 489 268 q 502 339 502 301 q 489 411 502 377 l 565 487 l 446 606 l 370 530 q 298 543 336 543 q 227 530 261 543 l 151 606 l 32 487 l 108 411 q 95 339 95 377 q 108 268 95 301 l 32 191 m 241 397 q 298 420 265 420 q 356 397 332 420 q 380 339 380 373 q 356 282 380 306 q 298 258 332 258 q 241 282 265 258 q 217 339 217 306 q 229 385 217 373 q 241 397 241 397 "},"":{"ha":854,"x_min":-9,"x_max":891,"o":"m -9 738 q 1 706 -9 721 l 216 397 l 109 397 l 109 290 l 291 290 l 319 250 l 109 250 l 109 130 q 178 142 145 142 l 326 142 l 326 125 q 317 83 326 104 q 290 41 309 61 q 245 14 271 22 q 353 0 285 0 l 477 0 q 507 -10 496 0 q 518 -34 518 -19 q 529 20 529 -22 l 529 142 l 746 142 l 746 250 l 536 250 l 564 290 l 746 290 l 746 346 q 755 401 746 373 q 721 399 746 401 q 683 397 696 397 l 639 397 l 769 584 q 796 621 783 605 q 826 652 809 637 q 858 676 842 668 q 891 685 875 685 l 891 693 q 805 686 866 693 q 701 678 743 678 q 661 679 679 678 q 632 681 643 680 q 603 684 622 682 q 570 688 583 686 q 576 657 576 673 q 561 606 576 631 l 430 401 l 299 606 q 288 645 288 624 q 316 723 288 690 q 382 755 344 755 q 439 737 415 755 q 462 691 462 718 q 447 655 462 670 q 413 641 433 641 q 387 650 398 641 q 376 672 376 659 q 355 664 364 672 q 347 643 347 655 q 361 613 347 626 q 395 601 375 601 q 452 627 428 601 q 476 689 476 653 q 448 743 476 721 q 382 765 421 765 q 340 755 359 765 q 295 726 320 746 q 226 689 260 700 q 154 677 193 677 q 48 698 89 677 q 6 749 6 719 q 18 775 6 765 q -2 764 6 775 q -9 738 -9 753 "},"":{"ha":448,"x_min":122,"x_max":326,"o":"m 122 203 l 122 -271 l 326 -271 l 326 203 l 122 203 m 122 448 l 326 448 l 326 922 l 122 922 l 122 448 "},"":{"ha":821,"x_min":30,"x_max":805,"o":"m 30 -121 q 67 -137 44 -123 q 120 -168 90 -151 q 189 -202 150 -185 q 285 -231 227 -219 q 410 -243 343 -243 q 523 -231 471 -243 q 612 -200 574 -220 q 675 -153 649 -180 q 714 -95 702 -126 q 727 -28 727 -63 q 707 54 727 18 q 653 113 687 90 q 727 170 700 135 q 754 247 754 204 q 741 313 754 283 q 704 364 727 343 q 651 401 682 385 q 586 429 621 418 q 515 448 552 439 q 445 463 479 457 q 380 474 410 468 q 326 485 349 480 q 290 499 303 491 q 277 518 277 508 q 304 548 277 536 q 381 560 332 560 q 432 557 408 560 q 474 549 456 554 q 511 536 492 545 q 542 521 530 528 q 569 503 554 515 q 592 485 585 492 q 614 466 600 478 q 670 426 644 439 q 728 414 695 414 q 783 434 760 414 q 805 483 805 454 q 787 531 805 511 q 742 551 768 551 q 708 538 722 551 q 694 508 694 526 q 702 488 694 496 q 724 479 711 479 q 734 502 724 492 q 760 511 745 511 q 782 502 773 511 q 791 480 791 493 q 773 440 791 457 q 728 423 754 423 q 670 442 692 423 q 649 493 649 461 q 655 524 649 511 q 681 557 662 536 q 749 618 701 577 l 741 627 q 716 618 730 618 q 675 627 700 618 q 622 649 650 636 q 559 675 593 662 q 482 696 526 687 q 393 705 438 705 q 262 689 322 705 q 162 643 202 672 q 100 578 122 615 q 77 499 77 541 q 161 366 77 410 q 71 305 104 343 q 37 224 37 268 q 45 177 37 199 q 65 138 53 155 q 99 106 77 121 q 140 80 121 91 q 190 59 159 70 q 242 43 220 49 q 299 30 264 37 q 353 20 334 23 q 407 11 373 16 q 504 -10 476 0 q 532 -38 532 -20 q 502 -74 532 -60 q 414 -87 472 -87 q 340 -81 376 -87 q 272 -63 304 -75 q 218 -29 240 -51 q 193 19 197 -8 l 30 -121 m 232 243 q 267 276 232 262 q 354 289 302 289 q 503 274 443 289 q 563 237 563 258 q 519 200 563 215 q 414 184 476 184 q 327 193 370 184 q 258 215 285 202 q 232 243 232 229 "},"":{"ha":543,"x_min":41,"x_max":502,"o":"m 41 536 q 45 526 41 530 q 54 522 49 522 l 190 522 q 199 526 195 522 q 203 536 203 530 l 203 665 q 199 674 203 670 q 190 678 195 678 l 54 678 q 45 674 49 678 q 41 665 41 670 l 41 536 m 339 536 q 343 526 339 530 q 353 522 347 522 l 488 522 q 498 526 494 522 q 502 536 502 530 l 502 665 q 498 674 502 670 q 488 678 494 678 l 353 678 q 343 674 347 678 q 339 665 339 670 l 339 536 "},"":{"ha":705,"x_min":41,"x_max":665,"o":"m 41 449 q 111 262 41 333 q 296 191 181 191 q 357 205 330 191 q 400 245 384 219 l 426 191 l 665 191 q 605 242 627 205 q 583 320 583 280 l 583 707 l 431 707 l 400 652 l 373 707 l 326 707 q 176 675 241 707 q 76 584 112 643 q 41 449 41 526 m 262 513 q 331 537 288 537 l 400 537 l 400 408 q 384 375 400 389 q 346 361 368 361 l 331 361 q 262 385 288 361 q 236 449 236 409 q 249 501 236 489 q 262 513 262 513 "},"":{"ha":807,"x_min":27,"x_max":760,"o":"m 27 317 l 300 44 l 435 178 q 378 204 404 187 q 325 250 352 222 l 258 317 l 325 385 q 378 430 352 413 q 435 456 404 448 l 300 591 l 27 317 m 353 317 l 626 44 l 760 178 q 703 204 729 187 q 650 250 678 222 l 583 317 l 650 385 q 703 430 678 413 q 760 456 729 448 l 626 591 l 353 317 "},"":{"ha":590,"x_min":54,"x_max":560,"o":"m 54 239 q 124 251 91 251 l 223 251 q 166 205 188 235 q 145 140 145 175 q 180 45 145 86 q 164 37 175 37 q 251 7 201 7 q 308 32 285 7 q 331 94 331 57 q 321 120 331 110 q 298 131 312 131 q 281 126 288 131 q 274 115 274 121 q 286 109 281 115 q 290 96 290 104 q 279 74 290 81 q 251 66 268 66 q 197 86 222 66 q 172 140 172 106 q 187 194 172 169 q 228 235 202 219 q 284 251 254 251 l 529 251 l 529 358 q 545 444 529 391 q 560 523 560 497 q 537 591 560 567 q 480 614 513 614 q 421 593 447 614 q 396 535 396 571 q 408 501 396 515 q 438 487 421 487 q 459 495 450 487 q 467 516 467 504 q 445 527 454 516 q 435 553 435 538 q 450 588 435 576 q 485 601 464 601 q 531 580 511 601 q 551 523 551 560 q 518 455 551 484 q 441 427 486 427 l 54 427 l 54 239 "},"":{"ha":515,"x_min":27,"x_max":488,"o":"m 27 510 q 97 522 64 522 l 488 522 l 488 678 l 27 678 l 27 510 "},"":{"ha":434,"x_min":27,"x_max":407,"o":"m 53 442 q 122 379 78 402 q 217 355 165 355 q 312 379 269 355 q 381 442 356 402 q 407 529 407 482 q 381 616 407 576 q 312 679 356 656 q 217 703 269 703 q 122 679 165 703 q 53 616 78 656 q 27 529 27 576 q 40 462 27 482 q 53 442 53 442 m 178 568 q 217 585 194 585 q 256 568 240 585 q 273 529 273 552 q 256 490 273 506 q 217 473 240 473 q 178 490 194 473 q 161 529 161 506 q 170 560 161 552 q 178 568 178 568 "},"":{"ha":637,"x_min":68,"x_max":608,"o":"m 68 339 q 190 373 114 373 l 235 373 l 235 203 l 403 203 l 403 373 l 570 373 l 570 467 q 579 523 570 493 q 598 581 589 553 q 608 631 608 609 q 584 699 608 676 q 527 723 561 723 q 469 701 494 723 q 444 644 444 679 q 456 609 444 624 q 486 595 468 595 q 506 604 498 595 q 515 625 515 612 q 492 636 502 625 q 483 662 483 647 q 497 697 483 684 q 532 709 511 709 q 578 689 558 709 q 598 631 598 668 q 563 564 598 593 q 481 536 527 536 l 403 536 l 403 705 l 235 705 l 235 536 l 68 536 l 68 339 m 95 -39 q 164 -27 132 -27 l 250 -27 q 194 -73 215 -43 q 172 -138 172 -103 q 207 -233 172 -192 q 192 -241 202 -241 q 278 -271 228 -271 q 335 -246 312 -271 q 358 -184 358 -221 q 349 -158 358 -169 q 326 -147 339 -147 q 308 -152 315 -147 q 301 -163 301 -157 q 313 -169 308 -163 q 317 -182 317 -174 q 306 -204 317 -197 q 278 -212 295 -212 q 224 -192 249 -212 q 199 -138 199 -172 q 232 -61 199 -94 q 311 -27 266 -27 l 543 -27 l 543 80 q 558 166 543 113 q 574 244 574 219 l 570 244 q 537 177 570 205 q 460 149 505 149 l 95 149 l 95 -39 "},"":{"ha":393,"x_min":26,"x_max":381,"o":"m 26 502 l 184 502 q 208 515 193 502 l 381 678 l 179 678 q 166 674 173 678 q 156 665 159 670 l 66 539 q 26 502 49 514 "},"":{"ha":834,"x_min":106,"x_max":807,"o":"m 152 409 q 275 366 199 366 l 309 366 l 309 -190 q 285 -263 309 -237 q 213 -290 261 -290 q 163 -269 184 -290 q 142 -218 142 -248 q 156 -184 142 -198 q 190 -170 170 -170 q 217 -178 206 -170 q 229 -197 229 -185 q 225 -214 229 -204 q 221 -232 221 -225 q 250 -253 221 -253 q 266 -209 266 -234 q 247 -165 266 -183 q 201 -146 228 -146 q 158 -161 176 -146 q 154 -152 156 -156 q 145 -146 151 -149 q 137 -181 143 -156 q 132 -216 132 -205 q 155 -274 132 -250 q 213 -298 179 -298 l 471 -298 l 471 522 l 553 522 l 553 -298 l 777 -298 q 731 -253 746 -284 q 716 -190 716 -223 l 716 212 q 728 274 716 245 q 757 317 739 303 q 738 318 744 317 q 726 324 732 319 q 718 339 720 329 q 716 366 716 349 l 716 563 q 741 642 716 606 q 807 692 767 677 q 571 678 720 678 l 275 678 q 152 635 199 678 q 106 522 106 592 q 129 431 106 452 q 152 409 152 409 "},"":{"ha":285,"x_min":54,"x_max":231,"o":"m 54 269 q 58 259 54 263 q 68 255 62 255 l 217 255 q 227 259 222 255 q 231 269 231 263 l 231 411 q 227 420 231 416 q 217 425 222 425 l 68 425 q 58 420 62 425 q 54 411 54 416 l 54 269 "},"":{"ha":380,"x_min":2,"x_max":332,"o":"m 2 -330 q 176 -308 102 -330 q 291 -248 251 -287 q 332 -156 332 -209 q 283 -77 332 -107 q 157 -47 235 -47 l 169 0 l 63 0 l 28 -134 l 31 -134 q 116 -123 85 -123 q 165 -135 150 -123 q 180 -170 180 -147 q 137 -227 180 -206 q 22 -248 95 -248 l 2 -330 "},"":{"ha":678,"x_min":41,"x_max":637,"o":"m 78 312 q 183 221 115 253 q 339 189 251 189 q 495 221 428 189 q 600 312 563 253 q 637 449 637 372 q 600 585 637 526 q 495 677 563 645 q 339 709 428 709 q 183 677 251 709 q 78 585 115 645 q 41 449 41 526 q 59 342 41 372 q 78 312 78 312 m 264 516 q 339 541 293 541 q 414 516 386 541 q 442 449 442 490 q 414 382 442 408 q 339 357 386 357 q 264 382 293 357 q 236 449 236 408 q 250 503 236 490 q 264 516 264 516 "},"":{"ha":807,"x_min":46,"x_max":780,"o":"m 46 178 l 180 43 l 454 317 l 180 591 l 46 457 q 102 431 77 449 q 156 384 126 414 l 224 317 l 156 251 q 102 204 126 221 q 46 178 77 186 m 372 178 l 506 43 l 780 317 l 506 591 l 372 457 q 427 431 402 449 q 481 384 452 414 l 549 317 l 481 251 q 427 204 452 221 q 372 178 402 186 "},"":{"ha":678,"x_min":4,"x_max":656,"o":"m 4 184 q 41 82 4 126 q 146 13 78 38 q 301 -11 213 -11 q 377 -6 343 -11 q 431 7 410 -1 q 471 22 452 14 q 512 34 490 29 q 560 39 534 39 l 560 42 q 489 90 513 58 q 465 159 465 122 q 491 230 465 200 q 559 260 517 260 q 618 241 593 260 q 643 194 643 221 q 628 157 643 173 q 594 141 614 141 q 568 152 579 141 q 557 178 557 162 q 532 165 542 178 q 521 137 521 153 q 537 105 521 119 q 575 92 553 92 q 633 120 609 92 q 656 186 656 147 q 628 245 656 220 q 559 270 600 270 q 527 266 542 270 q 502 257 512 262 q 478 243 491 253 q 459 227 466 233 q 440 208 453 220 q 419 187 427 194 q 397 169 412 180 q 371 153 383 158 q 340 143 358 147 q 301 138 321 138 q 227 153 255 138 q 199 190 199 167 q 209 211 199 201 q 234 228 219 221 q 271 244 250 235 q 312 261 291 253 q 353 283 333 270 q 389 311 374 296 q 415 349 405 326 q 425 400 425 372 l 425 412 q 418 428 425 421 q 403 434 412 434 l 250 434 q 244 432 246 434 q 241 426 241 429 l 241 399 q 233 381 241 389 q 211 366 225 373 q 180 352 198 359 q 142 337 162 345 q 103 320 123 329 q 66 297 83 310 q 34 269 48 284 q 12 232 20 253 q 4 184 4 210 m 239 529 q 243 519 239 524 q 252 515 247 515 l 401 515 q 411 519 407 515 q 415 529 415 524 l 415 705 l 414 705 q 407 691 414 697 q 391 685 400 685 l 252 685 q 243 681 247 685 q 239 671 239 677 l 239 529 "},"":{"ha":827,"x_min":-42,"x_max":859,"o":"m 171 922 l 345 760 q 368 746 359 746 l 526 746 q 486 783 503 759 l 396 909 q 386 918 393 914 q 373 922 379 922 l 171 922 m -42 -109 l -35 -111 q 69 -27 -6 -54 q 279 0 143 0 q 254 26 263 8 q 244 65 244 45 q 250 92 244 80 l 263 122 l 557 122 l 567 94 q 572 65 572 79 q 566 35 572 53 q 560 8 560 18 q 561 -2 560 3 q 565 -15 561 -6 q 574 -29 568 -23 q 591 -40 579 -35 q 618 -45 603 -45 q 685 -37 639 -45 q 751 -28 730 -28 q 854 -87 823 -28 l 859 -84 l 727 209 q 711 266 711 244 q 734 318 711 291 q 685 328 702 318 q 658 361 668 339 l 494 726 l 491 725 q 480 691 491 703 q 449 678 469 678 l 410 678 q 306 689 371 678 q 218 701 241 700 q 260 667 244 689 q 276 619 276 646 q 267 578 276 599 l 170 361 q 142 329 159 339 q 94 318 125 318 q 117 267 117 291 q 101 209 117 245 l -42 -109 m 331 271 l 410 463 l 439 392 q 445 359 445 379 q 443 335 445 345 q 459 332 454 335 q 468 323 465 330 l 489 271 l 331 271 "},"":{"ha":827,"x_min":-42,"x_max":859,"o":"m 260 746 l 419 746 q 442 760 428 746 l 616 922 l 414 922 q 401 918 408 922 q 391 909 394 914 l 300 783 q 260 746 284 759 m -42 -109 l -35 -111 q 69 -27 -6 -54 q 279 0 143 0 q 254 26 263 8 q 244 65 244 45 q 250 92 244 80 l 263 122 l 557 122 l 567 94 q 572 65 572 79 q 566 35 572 53 q 560 8 560 18 q 561 -2 560 3 q 565 -15 561 -6 q 574 -29 568 -23 q 591 -40 579 -35 q 618 -45 603 -45 q 685 -37 639 -45 q 751 -28 730 -28 q 854 -87 823 -28 l 859 -84 l 727 209 q 711 266 711 244 q 734 318 711 291 q 685 328 702 318 q 658 361 668 339 l 494 726 l 491 725 q 480 691 491 703 q 449 678 469 678 l 410 678 q 306 689 371 678 q 218 701 241 700 q 260 667 244 689 q 276 619 276 646 q 267 578 276 599 l 170 361 q 142 329 159 339 q 94 318 125 318 q 117 267 117 291 q 101 209 117 245 l -42 -109 m 331 271 l 410 463 l 439 392 q 445 359 445 379 q 443 335 445 345 q 459 332 454 335 q 468 323 465 330 l 489 271 l 331 271 "},"":{"ha":827,"x_min":-42,"x_max":859,"o":"m 95 752 l 311 752 q 334 765 323 752 l 389 839 l 397 839 l 453 765 q 476 752 463 752 l 692 752 l 494 915 q 461 928 477 928 l 326 928 q 293 915 309 928 l 95 752 m -42 -109 l -35 -111 q 69 -27 -6 -54 q 279 0 143 0 q 254 26 263 8 q 244 65 244 45 q 250 92 244 80 l 263 122 l 557 122 l 567 94 q 572 65 572 79 q 566 35 572 53 q 560 8 560 18 q 561 -2 560 3 q 565 -15 561 -6 q 574 -29 568 -23 q 591 -40 579 -35 q 618 -45 603 -45 q 685 -37 639 -45 q 751 -28 730 -28 q 854 -87 823 -28 l 859 -84 l 727 209 q 711 266 711 244 q 734 318 711 291 q 685 328 702 318 q 658 361 668 339 l 494 726 l 491 725 q 480 691 491 703 q 449 678 469 678 l 410 678 q 306 689 371 678 q 218 701 241 700 q 260 667 244 689 q 276 619 276 646 q 267 578 276 599 l 170 361 q 142 329 159 339 q 94 318 125 318 q 117 267 117 291 q 101 209 117 245 l -42 -109 m 331 271 l 410 463 l 439 392 q 445 359 445 379 q 443 335 445 345 q 459 332 454 335 q 468 323 465 330 l 489 271 l 331 271 "},"":{"ha":827,"x_min":-42,"x_max":859,"o":"m 68 739 l 256 739 q 273 783 256 766 q 320 800 289 800 q 344 794 331 800 q 372 779 358 788 q 404 762 387 770 q 446 747 421 753 q 499 741 471 741 q 583 756 544 741 q 649 799 622 772 q 694 859 676 826 q 719 929 712 892 l 530 929 q 514 885 530 903 q 467 868 497 868 q 442 874 456 868 q 414 889 429 880 q 382 907 400 898 q 340 922 365 916 q 288 928 315 928 q 203 912 242 928 q 137 869 164 896 q 93 809 111 843 q 68 739 75 776 m -42 -109 l -35 -111 q 69 -27 -6 -54 q 279 0 143 0 q 254 26 263 8 q 244 65 244 45 q 250 92 244 80 l 263 122 l 557 122 l 567 94 q 572 65 572 79 q 566 35 572 53 q 560 8 560 18 q 561 -2 560 3 q 565 -15 561 -6 q 574 -29 568 -23 q 591 -40 579 -35 q 618 -45 603 -45 q 685 -37 639 -45 q 751 -28 730 -28 q 854 -87 823 -28 l 859 -84 l 727 209 q 711 266 711 244 q 734 318 711 291 q 685 328 702 318 q 658 361 668 339 l 494 726 l 491 725 q 480 691 491 703 q 449 678 469 678 l 410 678 q 306 689 371 678 q 218 701 241 700 q 260 667 244 689 q 276 619 276 646 q 267 578 276 599 l 170 361 q 142 329 159 339 q 94 318 125 318 q 117 267 117 291 q 101 209 117 245 l -42 -109 m 331 271 l 410 463 l 439 392 q 445 359 445 379 q 443 335 445 345 q 459 332 454 335 q 468 323 465 330 l 489 271 l 331 271 "},"":{"ha":827,"x_min":-42,"x_max":859,"o":"m 163 770 q 167 761 163 765 q 176 757 171 757 l 312 757 q 321 761 317 757 q 326 770 326 765 l 326 899 q 321 909 326 905 q 312 913 317 913 l 176 913 q 167 909 171 913 q 163 899 163 905 l 163 770 m 461 770 q 465 761 461 765 q 475 757 469 757 l 610 757 q 620 761 616 757 q 624 770 624 765 l 624 899 q 620 909 624 905 q 610 913 616 913 l 475 913 q 465 909 469 913 q 461 899 461 905 l 461 770 m -42 -109 l -35 -111 q 69 -27 -6 -54 q 279 0 143 0 q 254 26 263 8 q 244 65 244 45 q 250 92 244 80 l 263 122 l 557 122 l 567 94 q 572 65 572 79 q 566 35 572 53 q 560 8 560 18 q 561 -2 560 3 q 565 -15 561 -6 q 574 -29 568 -23 q 591 -40 579 -35 q 618 -45 603 -45 q 685 -37 639 -45 q 751 -28 730 -28 q 854 -87 823 -28 l 859 -84 l 727 209 q 711 266 711 244 q 734 318 711 291 q 685 328 702 318 q 658 361 668 339 l 494 726 l 491 725 q 480 691 491 703 q 449 678 469 678 l 410 678 q 306 689 371 678 q 218 701 241 700 q 260 667 244 689 q 276 619 276 646 q 267 578 276 599 l 170 361 q 142 329 159 339 q 94 318 125 318 q 117 267 117 291 q 101 209 117 245 l -42 -109 m 331 271 l 410 463 l 439 392 q 445 359 445 379 q 443 335 445 345 q 459 332 454 335 q 468 323 465 330 l 489 271 l 331 271 "},"":{"ha":827,"x_min":-42,"x_max":859,"o":"m -42 -109 l -35 -111 q 69 -27 -6 -54 q 279 0 143 0 q 254 26 263 8 q 244 65 244 45 q 250 92 244 80 l 263 122 l 557 122 l 567 94 q 572 65 572 79 q 566 35 572 53 q 560 8 560 18 q 561 -2 560 3 q 565 -15 561 -6 q 574 -29 568 -23 q 591 -40 579 -35 q 618 -45 603 -45 q 685 -37 639 -45 q 751 -28 730 -28 q 854 -87 823 -28 l 859 -84 l 727 209 q 711 266 711 244 q 734 318 711 291 q 685 328 702 318 q 658 361 668 339 l 505 701 q 552 756 535 723 q 570 827 570 789 q 524 938 570 892 q 414 983 478 983 q 303 938 349 983 q 258 827 258 892 q 270 767 258 795 q 304 716 282 738 q 267 578 302 656 l 170 361 q 142 329 159 339 q 94 318 125 318 q 117 267 117 291 q 101 209 117 245 l -42 -109 m 331 271 l 410 463 l 439 392 q 445 359 445 379 q 443 335 445 345 q 459 332 454 335 q 468 323 465 330 l 489 271 l 331 271 m 375 866 q 414 882 391 882 q 452 866 436 882 q 468 827 468 850 q 452 789 468 805 q 414 773 436 773 q 375 789 391 773 q 359 827 359 805 q 367 858 359 850 q 375 866 375 866 "},"":{"ha":1234,"x_min":-42,"x_max":1175,"o":"m -42 -109 l -35 -111 q 69 -27 -6 -54 q 279 0 143 0 q 254 26 263 8 q 244 65 244 45 q 250 92 244 80 l 319 258 l 563 258 l 563 109 q 548 45 563 76 q 502 0 533 15 l 1085 0 q 1139 -20 1116 0 q 1161 -67 1161 -39 q 1125 -158 1161 -120 q 1039 -196 1089 -196 q 982 -170 1006 -196 q 958 -107 958 -144 q 967 -82 958 -92 q 988 -72 976 -72 q 1003 -77 997 -72 q 1010 -88 1010 -81 q 1021 -82 1017 -88 q 1026 -66 1026 -75 q 1015 -42 1026 -52 q 987 -31 1003 -31 q 925 -54 949 -31 q 900 -111 900 -77 q 929 -195 900 -159 q 938 -181 929 -186 q 1039 -209 978 -209 q 1104 -192 1074 -209 q 1152 -145 1134 -175 q 1156 -144 1153 -144 q 1173 -150 1164 -144 q 1170 -121 1170 -138 q 1172 -95 1170 -106 q 1175 -67 1175 -80 q 1163 35 1175 -43 q 1152 161 1152 113 q 1160 243 1152 203 q 1089 184 1132 206 q 1004 163 1047 163 l 766 163 l 766 258 l 1024 258 l 1024 407 l 766 407 l 766 515 l 1017 515 q 1091 501 1058 515 q 1153 456 1124 487 l 1153 678 l 410 678 q 306 689 371 678 q 218 701 241 700 q 260 667 244 689 q 276 619 276 646 q 267 578 276 599 l 170 361 q 142 329 159 339 q 94 318 125 318 q 117 267 117 291 q 101 209 117 245 l -42 -109 m 386 407 l 430 515 l 563 515 l 563 407 l 386 407 "},"":{"ha":848,"x_min":14,"x_max":888,"o":"m 14 319 q 48 279 35 298 q 68 236 62 259 q 134 119 88 170 q 239 37 180 67 q 369 -4 298 7 l 334 -134 l 337 -134 q 422 -123 391 -123 q 471 -135 456 -123 q 486 -170 486 -147 q 444 -227 486 -206 q 329 -248 402 -248 l 309 -330 q 483 -308 408 -330 q 598 -248 557 -287 q 638 -156 638 -209 q 590 -77 638 -107 q 463 -47 542 -47 l 473 -11 q 553 -1 515 -9 q 620 18 591 7 q 673 43 648 30 q 717 71 698 57 q 751 96 736 84 q 780 115 767 107 q 804 125 794 123 l 621 285 q 596 230 613 254 q 555 193 579 207 q 505 172 532 179 q 449 165 478 165 q 378 177 412 165 q 317 209 345 188 q 274 264 290 230 q 258 339 258 297 q 274 415 258 381 q 317 469 290 448 q 378 502 345 490 q 449 513 412 513 q 695 406 576 513 q 689 435 689 420 q 808 605 689 500 q 888 743 888 669 q 858 822 888 789 q 783 854 827 854 q 714 831 743 854 q 685 773 685 807 q 699 735 685 751 q 730 719 712 719 q 759 730 747 719 q 770 755 770 740 q 744 766 754 755 q 733 793 733 778 q 748 827 733 813 q 785 841 764 841 q 849 812 822 841 q 875 743 875 784 q 855 676 875 707 q 799 614 835 645 q 768 604 786 604 q 660 641 734 604 q 448 689 563 689 q 329 675 387 689 q 222 631 272 660 q 135 560 172 602 q 76 462 97 519 q 54 339 54 405 q 55 313 54 326 q 14 319 39 319 "},"":{"ha":814,"x_min":24,"x_max":754,"o":"m 191 922 l 365 760 q 388 746 379 746 l 547 746 q 507 783 523 759 l 416 909 q 406 918 413 914 q 393 922 399 922 l 191 922 m 24 692 q 90 642 65 677 q 115 563 115 606 l 115 366 q 113 339 115 349 q 106 324 112 329 q 93 318 100 319 q 74 317 87 317 q 104 274 92 303 q 115 212 115 245 l 115 109 q 100 45 115 76 q 54 0 85 15 l 665 0 q 718 -20 696 0 q 741 -67 741 -39 q 705 -158 741 -120 q 618 -196 669 -196 q 562 -170 585 -196 q 538 -107 538 -144 q 547 -82 538 -92 q 568 -72 555 -72 q 583 -77 576 -72 q 589 -88 589 -81 q 601 -82 596 -88 q 606 -66 606 -75 q 594 -42 606 -52 q 566 -31 583 -31 q 504 -54 529 -31 q 479 -111 479 -77 q 509 -195 479 -159 q 517 -181 509 -186 q 618 -209 557 -209 q 683 -192 653 -209 q 732 -145 713 -175 q 735 -144 733 -144 q 752 -150 743 -144 q 749 -121 749 -138 q 751 -95 749 -106 q 754 -67 754 -80 q 743 34 754 -43 q 731 160 731 112 q 739 243 731 204 q 669 184 712 206 q 583 163 626 163 l 319 163 l 319 251 l 604 251 l 604 414 l 319 414 l 319 515 l 597 515 q 671 501 638 515 q 732 456 703 487 l 732 678 l 260 678 q 24 692 112 678 "},"":{"ha":814,"x_min":24,"x_max":754,"o":"m 281 746 l 439 746 q 463 760 448 746 l 636 922 l 434 922 q 421 918 428 922 q 411 909 414 914 l 321 783 q 281 746 304 759 m 24 692 q 90 642 65 677 q 115 563 115 606 l 115 366 q 113 339 115 349 q 106 324 112 329 q 93 318 100 319 q 74 317 87 317 q 104 274 92 303 q 115 212 115 245 l 115 109 q 100 45 115 76 q 54 0 85 15 l 665 0 q 718 -20 696 0 q 741 -67 741 -39 q 705 -158 741 -120 q 618 -196 669 -196 q 562 -170 585 -196 q 538 -107 538 -144 q 547 -82 538 -92 q 568 -72 555 -72 q 583 -77 576 -72 q 589 -88 589 -81 q 601 -82 596 -88 q 606 -66 606 -75 q 594 -42 606 -52 q 566 -31 583 -31 q 504 -54 529 -31 q 479 -111 479 -77 q 509 -195 479 -159 q 517 -181 509 -186 q 618 -209 557 -209 q 683 -192 653 -209 q 732 -145 713 -175 q 735 -144 733 -144 q 752 -150 743 -144 q 749 -121 749 -138 q 751 -95 749 -106 q 754 -67 754 -80 q 743 34 754 -43 q 731 160 731 112 q 739 243 731 204 q 669 184 712 206 q 583 163 626 163 l 319 163 l 319 251 l 604 251 l 604 414 l 319 414 l 319 515 l 597 515 q 671 501 638 515 q 732 456 703 487 l 732 678 l 260 678 q 24 692 112 678 "},"":{"ha":814,"x_min":24,"x_max":754,"o":"m 115 752 l 331 752 q 354 765 344 752 l 410 839 l 418 839 l 473 765 q 496 752 484 752 l 712 752 l 514 915 q 481 928 498 928 l 346 928 q 313 915 330 928 l 115 752 m 24 692 q 90 642 65 677 q 115 563 115 606 l 115 366 q 113 339 115 349 q 106 324 112 329 q 93 318 100 319 q 74 317 87 317 q 104 274 92 303 q 115 212 115 245 l 115 109 q 100 45 115 76 q 54 0 85 15 l 665 0 q 718 -20 696 0 q 741 -67 741 -39 q 705 -158 741 -120 q 618 -196 669 -196 q 562 -170 585 -196 q 538 -107 538 -144 q 547 -82 538 -92 q 568 -72 555 -72 q 583 -77 576 -72 q 589 -88 589 -81 q 601 -82 596 -88 q 606 -66 606 -75 q 594 -42 606 -52 q 566 -31 583 -31 q 504 -54 529 -31 q 479 -111 479 -77 q 509 -195 479 -159 q 517 -181 509 -186 q 618 -209 557 -209 q 683 -192 653 -209 q 732 -145 713 -175 q 735 -144 733 -144 q 752 -150 743 -144 q 749 -121 749 -138 q 751 -95 749 -106 q 754 -67 754 -80 q 743 34 754 -43 q 731 160 731 112 q 739 243 731 204 q 669 184 712 206 q 583 163 626 163 l 319 163 l 319 251 l 604 251 l 604 414 l 319 414 l 319 515 l 597 515 q 671 501 638 515 q 732 456 703 487 l 732 678 l 260 678 q 24 692 112 678 "},"":{"ha":814,"x_min":24,"x_max":754,"o":"m 183 770 q 187 761 183 765 q 197 757 191 757 l 332 757 q 342 761 338 757 q 346 770 346 765 l 346 899 q 342 909 346 905 q 332 913 338 913 l 197 913 q 187 909 191 913 q 183 899 183 905 l 183 770 m 481 770 q 486 761 481 765 q 495 757 490 757 l 631 757 q 640 761 636 757 q 644 770 644 765 l 644 899 q 640 909 644 905 q 631 913 636 913 l 495 913 q 486 909 490 913 q 481 899 481 905 l 481 770 m 24 692 q 90 642 65 677 q 115 563 115 606 l 115 366 q 113 339 115 349 q 106 324 112 329 q 93 318 100 319 q 74 317 87 317 q 104 274 92 303 q 115 212 115 245 l 115 109 q 100 45 115 76 q 54 0 85 15 l 665 0 q 718 -20 696 0 q 741 -67 741 -39 q 705 -158 741 -120 q 618 -196 669 -196 q 562 -170 585 -196 q 538 -107 538 -144 q 547 -82 538 -92 q 568 -72 555 -72 q 583 -77 576 -72 q 589 -88 589 -81 q 601 -82 596 -88 q 606 -66 606 -75 q 594 -42 606 -52 q 566 -31 583 -31 q 504 -54 529 -31 q 479 -111 479 -77 q 509 -195 479 -159 q 517 -181 509 -186 q 618 -209 557 -209 q 683 -192 653 -209 q 732 -145 713 -175 q 735 -144 733 -144 q 752 -150 743 -144 q 749 -121 749 -138 q 751 -95 749 -106 q 754 -67 754 -80 q 743 34 754 -43 q 731 160 731 112 q 739 243 731 204 q 669 184 712 206 q 583 163 626 163 l 319 163 l 319 251 l 604 251 l 604 414 l 319 414 l 319 515 l 597 515 q 671 501 638 515 q 732 456 703 487 l 732 678 l 260 678 q 24 692 112 678 "},"":{"ha":434,"x_min":-5,"x_max":380,"o":"m -5 922 l 168 760 q 191 746 183 746 l 350 746 q 310 783 327 759 l 220 909 q 209 918 216 914 q 197 922 202 922 l -5 922 m 37 -22 q 76 -15 51 -20 q 119 -7 102 -10 q 160 -2 135 -5 q 209 0 185 0 l 380 0 q 334 45 349 15 q 319 109 319 76 l 319 212 q 330 274 319 244 q 359 317 342 303 q 340 318 347 317 q 328 324 334 319 q 321 339 322 329 q 319 366 319 349 l 319 570 q 334 633 319 602 q 380 678 349 665 l 165 678 q 105 682 141 678 q 49 692 69 686 l 46 686 q 115 557 115 661 l 115 366 q 113 339 115 349 q 106 324 112 329 q 94 318 100 319 q 75 317 87 317 q 104 274 92 303 q 115 212 115 244 l 115 109 q 112 76 115 93 q 101 41 109 60 q 76 5 93 21 q 37 -22 60 -12 "},"":{"ha":434,"x_min":37,"x_max":439,"o":"m 84 746 l 243 746 q 266 760 251 746 l 439 922 l 237 922 q 225 918 232 922 q 214 909 218 914 l 124 783 q 84 746 107 759 m 37 -22 q 76 -15 51 -20 q 119 -7 102 -10 q 160 -2 135 -5 q 209 0 185 0 l 380 0 q 334 45 349 15 q 319 109 319 76 l 319 212 q 330 274 319 244 q 359 317 342 303 q 340 318 347 317 q 328 324 334 319 q 321 339 322 329 q 319 366 319 349 l 319 570 q 334 633 319 602 q 380 678 349 665 l 165 678 q 105 682 141 678 q 49 692 69 686 l 46 686 q 115 557 115 661 l 115 366 q 113 339 115 349 q 106 324 112 329 q 94 318 100 319 q 75 317 87 317 q 104 274 92 303 q 115 212 115 244 l 115 109 q 112 76 115 93 q 101 41 109 60 q 76 5 93 21 q 37 -22 60 -12 "},"":{"ha":434,"x_min":-81,"x_max":515,"o":"m -81 752 l 134 752 q 157 765 147 752 l 213 839 l 221 839 l 277 765 q 300 752 287 752 l 515 752 l 317 915 q 285 928 301 928 l 149 928 q 117 915 133 928 l -81 752 m 37 -22 q 76 -15 51 -20 q 119 -7 102 -10 q 160 -2 135 -5 q 209 0 185 0 l 380 0 q 334 45 349 15 q 319 109 319 76 l 319 212 q 330 274 319 244 q 359 317 342 303 q 340 318 347 317 q 328 324 334 319 q 321 339 322 329 q 319 366 319 349 l 319 570 q 334 633 319 602 q 380 678 349 665 l 165 678 q 105 682 141 678 q 49 692 69 686 l 46 686 q 115 557 115 661 l 115 366 q 113 339 115 349 q 106 324 112 329 q 94 318 100 319 q 75 317 87 317 q 104 274 92 303 q 115 212 115 244 l 115 109 q 112 76 115 93 q 101 41 109 60 q 76 5 93 21 q 37 -22 60 -12 "},"":{"ha":434,"x_min":-14,"x_max":448,"o":"m -14 770 q -9 761 -14 765 q 0 757 -5 757 l 136 757 q 145 761 141 757 q 149 770 149 765 l 149 899 q 145 909 149 905 q 136 913 141 913 l 0 913 q -9 909 -5 913 q -14 899 -14 905 l -14 770 m 285 770 q 289 761 285 765 q 298 757 293 757 l 434 757 q 444 761 439 757 q 448 770 448 765 l 448 899 q 444 909 448 905 q 434 913 439 913 l 298 913 q 289 909 293 913 q 285 899 285 905 l 285 770 m 37 -22 q 76 -15 51 -20 q 119 -7 102 -10 q 160 -2 135 -5 q 209 0 185 0 l 380 0 q 334 45 349 15 q 319 109 319 76 l 319 212 q 330 274 319 244 q 359 317 342 303 q 340 318 347 317 q 328 324 334 319 q 321 339 322 329 q 319 366 319 349 l 319 570 q 334 633 319 602 q 380 678 349 665 l 165 678 q 105 682 141 678 q 49 692 69 686 l 46 686 q 115 557 115 661 l 115 366 q 113 339 115 349 q 106 324 112 329 q 94 318 100 319 q 75 317 87 317 q 104 274 92 303 q 115 212 115 244 l 115 109 q 112 76 115 93 q 101 41 109 60 q 76 5 93 21 q 37 -22 60 -12 "},"":{"ha":916,"x_min":41,"x_max":902,"o":"m 41 251 l 142 251 l 142 109 q 127 45 142 76 q 81 0 112 15 l 475 0 q 715 63 616 0 q 847 236 814 127 q 866 278 853 259 q 902 319 880 296 q 861 313 877 319 q 861 339 861 321 q 833 478 861 414 q 755 585 805 541 q 633 654 705 629 q 475 678 561 678 l 61 678 q 121 627 99 665 q 142 549 142 590 l 142 414 l 41 414 l 41 251 m 346 176 l 346 251 l 488 251 l 488 414 l 346 414 l 346 502 l 468 502 q 606 458 555 502 q 658 339 658 414 q 607 220 658 264 q 468 176 556 176 l 346 176 "},"":{"ha":909,"x_min":54,"x_max":854,"o":"m 109 739 l 297 739 q 313 783 297 766 q 361 800 330 800 q 385 794 372 800 q 413 779 398 788 q 445 762 428 770 q 487 747 462 753 q 540 741 512 741 q 624 756 585 741 q 690 799 663 772 q 735 859 717 826 q 760 929 752 892 l 571 929 q 555 885 571 903 q 507 868 538 868 q 483 874 496 868 q 455 889 470 880 q 423 907 440 898 q 381 922 406 916 q 328 928 356 928 q 244 912 283 928 q 178 869 205 896 q 133 809 151 843 q 109 739 116 776 m 54 0 l 127 0 q 338 -62 252 0 l 340 -58 q 320 -39 328 -50 q 308 -17 312 -28 q 302 9 304 -7 q 299 37 299 24 q 298 68 298 49 l 298 382 l 552 80 q 564 42 564 67 q 538 -23 564 4 q 476 -50 512 -50 q 431 -33 450 -50 q 413 7 413 -17 q 424 34 413 23 q 451 44 435 44 q 477 35 466 44 q 488 13 488 26 q 509 21 500 13 q 517 42 517 30 q 503 72 517 59 q 469 84 489 84 q 420 62 440 84 q 399 9 399 40 q 422 -40 399 -19 q 476 -60 444 -60 q 516 -54 496 -60 q 552 -39 535 -47 q 588 -21 569 -30 q 631 -6 606 -12 q 685 0 656 0 l 841 0 q 815 19 825 7 q 800 48 805 32 q 795 78 796 65 q 793 109 793 91 l 793 212 q 805 274 793 245 q 834 317 817 303 q 815 318 822 317 q 803 324 809 319 q 795 339 797 329 q 793 366 793 349 l 793 570 q 809 633 793 603 q 854 678 824 664 l 549 678 q 595 633 580 665 q 610 570 610 602 l 610 294 l 289 678 l 54 678 q 100 633 85 665 q 115 570 115 602 l 115 366 q 113 339 115 349 q 106 324 112 329 q 93 318 100 319 q 74 317 87 317 q 104 274 92 303 q 115 212 115 245 l 115 109 q 100 45 115 76 q 54 0 85 15 "},"":{"ha":882,"x_min":14,"x_max":868,"o":"m 218 922 l 392 760 q 415 746 407 746 l 574 746 q 534 783 550 759 l 444 909 q 433 918 440 914 q 420 922 426 922 l 218 922 m 14 319 q 68 236 56 277 q 199 55 100 122 q 441 -11 298 -11 q 683 55 584 -11 q 814 236 782 122 q 834 278 821 259 q 868 319 847 297 q 827 313 843 319 q 827 339 827 321 q 799 482 827 417 q 721 593 771 548 q 599 664 671 638 q 441 689 527 689 q 238 645 326 689 q 102 522 150 602 q 54 339 54 443 q 55 313 54 326 q 14 319 39 319 m 258 339 q 297 422 258 388 q 391 457 336 457 q 463 430 433 457 q 492 365 492 403 q 467 308 492 332 q 407 285 442 285 q 382 294 392 285 q 372 315 372 302 q 376 330 372 323 q 388 336 381 336 q 381 348 388 343 q 366 353 375 353 q 341 341 352 353 q 331 313 331 330 q 354 251 331 276 q 411 227 377 227 q 497 256 461 227 q 484 264 489 256 q 513 365 513 303 q 477 440 513 409 q 391 471 441 471 q 319 452 351 471 q 268 401 286 433 q 331 483 285 453 q 441 513 377 513 q 574 465 523 513 q 624 339 624 417 q 574 213 624 261 q 441 165 523 165 q 308 213 358 165 q 258 339 258 261 "},"":{"ha":882,"x_min":14,"x_max":868,"o":"m 308 746 l 467 746 q 490 760 475 746 l 663 922 l 461 922 q 448 918 455 922 q 438 909 441 914 l 348 783 q 308 746 331 759 m 14 319 q 68 236 56 277 q 199 55 100 122 q 441 -11 298 -11 q 683 55 584 -11 q 814 236 782 122 q 834 278 821 259 q 868 319 847 297 q 827 313 843 319 q 827 339 827 321 q 799 482 827 417 q 721 593 771 548 q 599 664 671 638 q 441 689 527 689 q 238 645 326 689 q 102 522 150 602 q 54 339 54 443 q 55 313 54 326 q 14 319 39 319 m 258 339 q 297 422 258 388 q 391 457 336 457 q 463 430 433 457 q 492 365 492 403 q 467 308 492 332 q 407 285 442 285 q 382 294 392 285 q 372 315 372 302 q 376 330 372 323 q 388 336 381 336 q 381 348 388 343 q 366 353 375 353 q 341 341 352 353 q 331 313 331 330 q 354 251 331 276 q 411 227 377 227 q 497 256 461 227 q 484 264 489 256 q 513 365 513 303 q 477 440 513 409 q 391 471 441 471 q 319 452 351 471 q 268 401 286 433 q 331 483 285 453 q 441 513 377 513 q 574 465 523 513 q 624 339 624 417 q 574 213 624 261 q 441 165 523 165 q 308 213 358 165 q 258 339 258 261 "},"":{"ha":882,"x_min":14,"x_max":868,"o":"m 142 752 l 358 752 q 381 765 371 752 l 437 839 l 445 839 l 500 765 q 524 752 511 752 l 739 752 l 541 915 q 509 928 525 928 l 373 928 q 340 915 357 928 l 142 752 m 14 319 q 68 236 56 277 q 199 55 100 122 q 441 -11 298 -11 q 683 55 584 -11 q 814 236 782 122 q 834 278 821 259 q 868 319 847 297 q 827 313 843 319 q 827 339 827 321 q 799 482 827 417 q 721 593 771 548 q 599 664 671 638 q 441 689 527 689 q 238 645 326 689 q 102 522 150 602 q 54 339 54 443 q 55 313 54 326 q 14 319 39 319 m 258 339 q 297 422 258 388 q 391 457 336 457 q 463 430 433 457 q 492 365 492 403 q 467 308 492 332 q 407 285 442 285 q 382 294 392 285 q 372 315 372 302 q 376 330 372 323 q 388 336 381 336 q 381 348 388 343 q 366 353 375 353 q 341 341 352 353 q 331 313 331 330 q 354 251 331 276 q 411 227 377 227 q 497 256 461 227 q 484 264 489 256 q 513 365 513 303 q 477 440 513 409 q 391 471 441 471 q 319 452 351 471 q 268 401 286 433 q 331 483 285 453 q 441 513 377 513 q 574 465 523 513 q 624 339 624 417 q 574 213 624 261 q 441 165 523 165 q 308 213 358 165 q 258 339 258 261 "},"":{"ha":882,"x_min":14,"x_max":868,"o":"m 115 739 l 304 739 q 320 783 304 766 q 368 800 337 800 q 392 794 378 800 q 420 779 405 788 q 452 762 434 770 q 494 747 469 753 q 547 741 519 741 q 631 756 592 741 q 697 799 670 772 q 741 859 724 826 q 766 929 759 892 l 578 929 q 561 885 578 903 q 514 868 545 868 q 490 874 503 868 q 462 889 476 880 q 430 907 447 898 q 388 922 413 916 q 335 928 363 928 q 251 912 290 928 q 185 869 212 896 q 140 809 158 843 q 115 739 122 776 m 14 319 q 68 236 56 277 q 199 55 100 122 q 441 -11 298 -11 q 683 55 584 -11 q 814 236 782 122 q 834 278 821 259 q 868 319 847 297 q 827 313 843 319 q 827 339 827 321 q 799 482 827 417 q 721 593 771 548 q 599 664 671 638 q 441 689 527 689 q 238 645 326 689 q 102 522 150 602 q 54 339 54 443 q 55 313 54 326 q 14 319 39 319 m 258 339 q 297 422 258 388 q 391 457 336 457 q 463 430 433 457 q 492 365 492 403 q 467 308 492 332 q 407 285 442 285 q 382 294 392 285 q 372 315 372 302 q 376 330 372 323 q 388 336 381 336 q 381 348 388 343 q 366 353 375 353 q 341 341 352 353 q 331 313 331 330 q 354 251 331 276 q 411 227 377 227 q 497 256 461 227 q 484 264 489 256 q 513 365 513 303 q 477 440 513 409 q 391 471 441 471 q 319 452 351 471 q 268 401 286 433 q 331 483 285 453 q 441 513 377 513 q 574 465 523 513 q 624 339 624 417 q 574 213 624 261 q 441 165 523 165 q 308 213 358 165 q 258 339 258 261 "},"":{"ha":882,"x_min":14,"x_max":868,"o":"m 210 770 q 214 761 210 765 q 224 757 218 757 l 359 757 q 369 761 365 757 q 373 770 373 765 l 373 899 q 369 909 373 905 q 359 913 365 913 l 224 913 q 214 909 218 913 q 210 899 210 905 l 210 770 m 509 770 q 513 761 509 765 q 522 757 517 757 l 658 757 q 667 761 663 757 q 671 770 671 765 l 671 899 q 667 909 671 905 q 658 913 663 913 l 522 913 q 513 909 517 913 q 509 899 509 905 l 509 770 m 14 319 q 68 236 56 277 q 199 55 100 122 q 441 -11 298 -11 q 683 55 584 -11 q 814 236 782 122 q 834 278 821 259 q 868 319 847 297 q 827 313 843 319 q 827 339 827 321 q 799 482 827 417 q 721 593 771 548 q 599 664 671 638 q 441 689 527 689 q 238 645 326 689 q 102 522 150 602 q 54 339 54 443 q 55 313 54 326 q 14 319 39 319 m 258 339 q 297 422 258 388 q 391 457 336 457 q 463 430 433 457 q 492 365 492 403 q 467 308 492 332 q 407 285 442 285 q 382 294 392 285 q 372 315 372 302 q 376 330 372 323 q 388 336 381 336 q 381 348 388 343 q 366 353 375 353 q 341 341 352 353 q 331 313 331 330 q 354 251 331 276 q 411 227 377 227 q 497 256 461 227 q 484 264 489 256 q 513 365 513 303 q 477 440 513 409 q 391 471 441 471 q 319 452 351 471 q 268 401 286 433 q 331 483 285 453 q 441 513 377 513 q 574 465 523 513 q 624 339 624 417 q 574 213 624 261 q 441 165 523 165 q 308 213 358 165 q 258 339 258 261 "},"":{"ha":637,"x_min":73,"x_max":566,"o":"m 73 456 l 202 327 l 75 199 l 214 60 q 276 171 222 116 l 317 212 l 447 82 l 566 201 l 436 331 l 564 458 l 497 525 q 463 570 479 543 q 433 622 448 596 q 403 663 419 647 q 336 694 371 694 q 278 671 302 694 q 254 615 254 648 q 272 566 254 588 q 314 545 290 545 q 340 554 329 545 q 351 577 351 563 q 342 598 351 589 q 321 590 334 590 q 292 602 304 590 q 279 632 279 614 q 296 668 279 653 q 339 683 314 683 q 397 656 370 683 q 421 593 421 631 q 387 511 421 546 l 321 446 l 192 575 l 73 456 "},"":{"ha":882,"x_min":14,"x_max":868,"o":"m 14 319 q 68 236 56 277 q 153 93 92 152 l 63 -22 l 122 -68 l 181 -114 l 281 15 q 441 -11 354 -11 q 683 55 584 -11 q 814 236 782 122 q 834 278 821 259 q 868 319 847 297 q 827 313 843 319 q 827 339 827 321 q 802 477 827 414 q 729 586 777 539 l 818 700 l 760 746 l 701 792 l 600 664 q 441 689 528 689 q 238 645 326 689 q 102 522 150 602 q 54 339 54 443 q 55 313 54 326 q 14 319 39 319 m 258 339 q 308 465 258 417 q 441 513 358 513 q 479 510 461 513 l 278 252 q 258 339 258 290 m 402 169 l 604 426 q 624 339 624 388 q 574 213 624 261 q 441 165 523 165 q 402 169 420 165 "},"":{"ha":868,"x_min":41,"x_max":827,"o":"m 212 949 l 385 787 q 408 773 400 773 l 567 773 q 527 810 544 786 l 437 936 q 426 945 433 941 q 414 949 419 949 l 212 949 m 41 665 q 86 620 71 651 q 102 556 102 588 l 102 315 q 89 317 97 315 q 76 319 80 319 q 68 317 72 319 q 94 278 83 301 q 110 237 106 254 q 220 60 133 125 q 434 -5 306 -5 q 648 60 562 -5 q 759 237 735 125 q 774 278 762 254 q 800 317 785 301 q 792 319 796 319 q 779 317 788 319 q 766 315 771 315 l 766 570 q 781 633 766 603 q 827 678 797 664 l 684 678 q 630 684 655 678 q 586 699 605 690 q 551 717 568 708 q 515 732 534 726 q 475 738 495 738 q 420 718 443 738 q 398 669 398 697 q 418 616 398 638 q 468 594 439 594 q 502 606 488 594 q 516 636 516 619 q 507 657 516 648 q 486 666 499 666 q 476 643 486 652 q 450 634 465 634 q 423 645 434 634 q 412 671 412 655 q 430 712 412 695 q 475 728 449 728 q 537 701 511 728 q 563 635 563 673 l 563 307 q 527 211 563 247 q 434 175 492 175 q 341 211 376 175 q 305 307 305 247 l 305 572 q 297 619 305 599 q 276 652 289 640 q 245 673 263 665 q 207 684 227 681 q 166 688 188 688 q 96 681 131 688 q 41 665 61 673 "},"":{"ha":868,"x_min":41,"x_max":827,"o":"m 301 773 l 460 773 q 483 787 468 773 l 656 949 l 454 949 q 442 945 449 949 q 431 936 435 941 l 341 810 q 301 773 325 786 m 41 665 q 86 620 71 651 q 102 556 102 588 l 102 315 q 89 317 97 315 q 76 319 80 319 q 68 317 72 319 q 94 278 83 301 q 110 237 106 254 q 220 60 133 125 q 434 -5 306 -5 q 648 60 562 -5 q 759 237 735 125 q 774 278 762 254 q 800 317 785 301 q 792 319 796 319 q 779 317 788 319 q 766 315 771 315 l 766 570 q 781 633 766 603 q 827 678 797 664 l 684 678 q 630 684 655 678 q 586 699 605 690 q 551 717 568 708 q 515 732 534 726 q 475 738 495 738 q 420 718 443 738 q 398 669 398 697 q 418 616 398 638 q 468 594 439 594 q 502 606 488 594 q 516 636 516 619 q 507 657 516 648 q 486 666 499 666 q 476 643 486 652 q 450 634 465 634 q 423 645 434 634 q 412 671 412 655 q 430 712 412 695 q 475 728 449 728 q 537 701 511 728 q 563 635 563 673 l 563 307 q 527 211 563 247 q 434 175 492 175 q 341 211 376 175 q 305 307 305 247 l 305 572 q 297 619 305 599 q 276 652 289 640 q 245 673 263 665 q 207 684 227 681 q 166 688 188 688 q 96 681 131 688 q 41 665 61 673 "},"":{"ha":868,"x_min":41,"x_max":827,"o":"m 136 779 l 351 779 q 374 792 364 779 l 430 866 l 438 866 l 494 792 q 517 779 504 779 l 732 779 l 534 942 q 502 955 518 955 l 366 955 q 334 942 350 955 l 136 779 m 41 665 q 86 620 71 651 q 102 556 102 588 l 102 315 q 89 317 97 315 q 76 319 80 319 q 68 317 72 319 q 94 278 83 301 q 110 237 106 254 q 220 60 133 125 q 434 -5 306 -5 q 648 60 562 -5 q 759 237 735 125 q 774 278 762 254 q 800 317 785 301 q 792 319 796 319 q 779 317 788 319 q 766 315 771 315 l 766 570 q 781 633 766 603 q 827 678 797 664 l 684 678 q 630 684 655 678 q 586 699 605 690 q 551 717 568 708 q 515 732 534 726 q 475 738 495 738 q 420 718 443 738 q 398 669 398 697 q 418 616 398 638 q 468 594 439 594 q 502 606 488 594 q 516 636 516 619 q 507 657 516 648 q 486 666 499 666 q 476 643 486 652 q 450 634 465 634 q 423 645 434 634 q 412 671 412 655 q 430 712 412 695 q 475 728 449 728 q 537 701 511 728 q 563 635 563 673 l 563 307 q 527 211 563 247 q 434 175 492 175 q 341 211 376 175 q 305 307 305 247 l 305 572 q 297 619 305 599 q 276 652 289 640 q 245 673 263 665 q 207 684 227 681 q 166 688 188 688 q 96 681 131 688 q 41 665 61 673 "},"":{"ha":868,"x_min":41,"x_max":827,"o":"m 203 798 q 208 788 203 792 q 217 784 212 784 l 353 784 q 362 788 358 784 q 366 798 366 792 l 366 926 q 362 936 366 932 q 353 940 358 940 l 217 940 q 208 936 212 940 q 203 926 203 932 l 203 798 m 502 798 q 506 788 502 792 q 515 784 510 784 l 651 784 q 661 788 656 784 q 665 798 665 792 l 665 926 q 661 936 665 932 q 651 940 656 940 l 515 940 q 506 936 510 940 q 502 926 502 932 l 502 798 m 41 665 q 86 620 71 651 q 102 556 102 588 l 102 315 q 89 317 97 315 q 76 319 80 319 q 68 317 72 319 q 94 278 83 301 q 110 237 106 254 q 220 60 133 125 q 434 -5 306 -5 q 648 60 562 -5 q 759 237 735 125 q 774 278 762 254 q 800 317 785 301 q 792 319 796 319 q 779 317 788 319 q 766 315 771 315 l 766 570 q 781 633 766 603 q 827 678 797 664 l 684 678 q 630 684 655 678 q 586 699 605 690 q 551 717 568 708 q 515 732 534 726 q 475 738 495 738 q 420 718 443 738 q 398 669 398 697 q 418 616 398 638 q 468 594 439 594 q 502 606 488 594 q 516 636 516 619 q 507 657 516 648 q 486 666 499 666 q 476 643 486 652 q 450 634 465 634 q 423 645 434 634 q 412 671 412 655 q 430 712 412 695 q 475 728 449 728 q 537 701 511 728 q 563 635 563 673 l 563 307 q 527 211 563 247 q 434 175 492 175 q 341 211 376 175 q 305 307 305 247 l 305 572 q 297 619 305 599 q 276 652 289 640 q 245 673 263 665 q 207 684 227 681 q 166 688 188 688 q 96 681 131 688 q 41 665 61 673 "},"":{"ha":854,"x_min":-9,"x_max":891,"o":"m 308 787 l 467 787 q 490 800 475 787 l 663 963 l 461 963 q 448 959 455 963 q 438 949 441 955 l 348 824 q 308 787 331 799 m -9 738 q 1 706 -9 721 l 258 337 q 214 329 241 337 q 310 263 286 297 l 326 241 l 326 125 q 317 83 326 104 q 290 41 309 61 q 245 14 271 22 q 353 0 285 0 l 477 0 q 507 -10 496 0 q 518 -34 518 -19 q 529 20 529 -22 l 529 239 l 546 263 q 642 329 570 297 q 597 337 617 337 l 769 584 q 796 621 783 605 q 826 652 809 637 q 858 676 842 668 q 891 685 875 685 l 891 693 q 805 686 866 693 q 701 678 743 678 q 661 679 679 678 q 632 681 643 680 q 603 684 622 682 q 570 688 583 686 q 576 657 576 673 q 561 606 576 631 l 430 401 l 299 606 q 288 645 288 624 q 316 723 288 690 q 382 755 344 755 q 439 737 415 755 q 462 691 462 718 q 447 655 462 670 q 413 641 433 641 q 387 650 398 641 q 376 672 376 659 q 355 664 364 672 q 347 643 347 655 q 361 613 347 626 q 395 601 375 601 q 452 627 428 601 q 476 689 476 653 q 448 743 476 721 q 382 765 421 765 q 340 755 359 765 q 295 726 320 746 q 226 689 260 700 q 154 677 193 677 q 48 698 89 677 q 6 749 6 719 q 18 775 6 765 q -2 764 6 775 q -9 738 -9 753 "},"":{"ha":834,"x_min":24,"x_max":793,"o":"m 24 692 q 90 642 65 677 q 115 563 115 606 l 115 366 q 113 339 115 349 q 106 324 112 329 q 93 318 100 319 q 74 317 87 317 q 104 274 92 303 q 115 212 115 245 l 115 109 q 100 45 115 76 q 54 0 85 15 l 415 0 q 465 -21 444 0 q 486 -72 486 -42 q 472 -106 486 -92 q 438 -121 458 -121 q 411 -113 422 -121 q 399 -94 399 -105 q 403 -76 399 -86 q 407 -58 407 -65 q 378 -37 407 -37 q 362 -81 362 -57 q 381 -125 362 -107 q 427 -144 400 -144 q 470 -129 452 -144 q 474 -138 472 -135 q 483 -144 477 -141 q 490 -110 485 -134 q 496 -75 496 -85 q 473 -16 496 -40 q 415 8 449 8 q 343 35 367 8 q 319 109 319 62 l 319 163 l 556 163 q 728 222 663 163 q 793 380 793 282 q 728 537 793 477 q 556 597 663 597 l 319 597 q 346 678 319 638 l 260 678 q 24 692 112 678 m 319 312 l 319 434 l 543 434 q 587 417 570 434 q 604 373 604 400 q 587 329 604 346 q 543 312 570 312 l 319 312 "},"":{"ha":924,"x_min":30,"x_max":897,"o":"m 30 -22 q 70 -15 44 -20 q 112 -7 96 -10 q 153 -2 128 -5 q 202 0 178 0 l 276 0 q 319 -16 303 0 q 335 -61 335 -33 q 314 -120 335 -98 q 257 -142 292 -142 q 231 -135 242 -142 q 219 -117 219 -129 q 224 -104 219 -109 q 236 -99 229 -99 q 229 -87 236 -92 q 214 -83 223 -83 q 195 -93 203 -83 q 187 -118 187 -103 q 207 -168 187 -148 q 256 -189 228 -189 q 330 -163 299 -189 q 316 -155 321 -163 q 341 -111 333 -132 q 348 -62 348 -90 q 339 -15 348 -43 q 321 43 330 13 q 312 99 312 74 l 312 415 q 317 456 312 436 q 334 494 322 475 q 365 527 346 513 q 412 549 383 541 q 477 557 441 557 l 551 554 q 438 498 479 537 q 396 400 396 459 q 408 339 396 366 q 440 295 420 312 q 486 265 460 278 q 540 244 512 252 q 597 231 569 236 q 652 220 626 225 q 697 211 677 216 q 729 198 717 206 q 741 179 741 190 q 709 151 741 161 q 625 140 677 140 q 460 203 518 140 l 384 37 q 430 29 402 37 q 484 13 458 22 q 548 -3 510 4 q 622 -11 586 -11 q 766 14 703 -11 q 863 82 829 38 q 897 182 897 125 q 888 238 897 212 q 878 295 878 271 q 867 293 875 293 q 850 297 855 293 q 786 338 825 321 q 709 362 746 354 q 638 377 672 370 q 583 394 604 384 q 563 420 563 405 q 591 451 563 438 q 660 464 619 464 q 721 457 693 464 q 765 437 749 450 l 771 436 q 780 486 780 458 q 768 552 780 522 q 742 646 743 612 q 724 637 736 646 q 707 628 711 628 q 606 673 669 657 q 477 689 544 689 q 362 677 417 689 q 267 650 307 666 q 195 616 228 633 q 137 588 163 600 q 95 575 111 576 l 95 570 q 109 517 109 556 l 109 366 q 107 339 109 349 q 99 324 105 329 q 87 318 93 319 q 68 317 81 317 q 97 274 85 303 q 109 212 109 244 l 109 109 q 105 76 109 93 q 94 41 102 60 q 70 5 86 21 q 30 -22 53 -12 "},"":{"ha":827,"x_min":-42,"x_max":859,"o":"m 171 922 l 345 760 q 368 746 359 746 l 526 746 q 486 783 503 759 l 396 909 q 386 918 393 914 q 373 922 379 922 l 171 922 m -42 -109 l -35 -111 q 69 -27 -6 -54 q 279 0 143 0 q 254 26 263 8 q 244 65 244 45 q 250 92 244 80 l 263 122 l 557 122 l 567 94 q 572 65 572 79 q 566 35 572 53 q 560 8 560 18 q 561 -2 560 3 q 565 -15 561 -6 q 574 -29 568 -23 q 591 -40 579 -35 q 618 -45 603 -45 q 685 -37 639 -45 q 751 -28 730 -28 q 854 -87 823 -28 l 859 -84 l 727 209 q 711 266 711 244 q 734 318 711 291 q 685 328 702 318 q 658 361 668 339 l 494 726 l 491 725 q 480 691 491 703 q 449 678 469 678 l 410 678 q 306 689 371 678 q 218 701 241 700 q 260 667 244 689 q 276 619 276 646 q 267 578 276 599 l 170 361 q 142 329 159 339 q 94 318 125 318 q 117 267 117 291 q 101 209 117 245 l -42 -109 m 331 271 l 410 463 l 439 392 q 445 359 445 379 q 443 335 445 345 q 459 332 454 335 q 468 323 465 330 l 489 271 l 331 271 "},"":{"ha":827,"x_min":-42,"x_max":859,"o":"m 260 746 l 419 746 q 442 760 428 746 l 616 922 l 414 922 q 401 918 408 922 q 391 909 394 914 l 300 783 q 260 746 284 759 m -42 -109 l -35 -111 q 69 -27 -6 -54 q 279 0 143 0 q 254 26 263 8 q 244 65 244 45 q 250 92 244 80 l 263 122 l 557 122 l 567 94 q 572 65 572 79 q 566 35 572 53 q 560 8 560 18 q 561 -2 560 3 q 565 -15 561 -6 q 574 -29 568 -23 q 591 -40 579 -35 q 618 -45 603 -45 q 685 -37 639 -45 q 751 -28 730 -28 q 854 -87 823 -28 l 859 -84 l 727 209 q 711 266 711 244 q 734 318 711 291 q 685 328 702 318 q 658 361 668 339 l 494 726 l 491 725 q 480 691 491 703 q 449 678 469 678 l 410 678 q 306 689 371 678 q 218 701 241 700 q 260 667 244 689 q 276 619 276 646 q 267 578 276 599 l 170 361 q 142 329 159 339 q 94 318 125 318 q 117 267 117 291 q 101 209 117 245 l -42 -109 m 331 271 l 410 463 l 439 392 q 445 359 445 379 q 443 335 445 345 q 459 332 454 335 q 468 323 465 330 l 489 271 l 331 271 "},"":{"ha":827,"x_min":-42,"x_max":859,"o":"m 95 752 l 311 752 q 334 765 323 752 l 389 839 l 397 839 l 453 765 q 476 752 463 752 l 692 752 l 494 915 q 461 928 477 928 l 326 928 q 293 915 309 928 l 95 752 m -42 -109 l -35 -111 q 69 -27 -6 -54 q 279 0 143 0 q 254 26 263 8 q 244 65 244 45 q 250 92 244 80 l 263 122 l 557 122 l 567 94 q 572 65 572 79 q 566 35 572 53 q 560 8 560 18 q 561 -2 560 3 q 565 -15 561 -6 q 574 -29 568 -23 q 591 -40 579 -35 q 618 -45 603 -45 q 685 -37 639 -45 q 751 -28 730 -28 q 854 -87 823 -28 l 859 -84 l 727 209 q 711 266 711 244 q 734 318 711 291 q 685 328 702 318 q 658 361 668 339 l 494 726 l 491 725 q 480 691 491 703 q 449 678 469 678 l 410 678 q 306 689 371 678 q 218 701 241 700 q 260 667 244 689 q 276 619 276 646 q 267 578 276 599 l 170 361 q 142 329 159 339 q 94 318 125 318 q 117 267 117 291 q 101 209 117 245 l -42 -109 m 331 271 l 410 463 l 439 392 q 445 359 445 379 q 443 335 445 345 q 459 332 454 335 q 468 323 465 330 l 489 271 l 331 271 "},"":{"ha":827,"x_min":-42,"x_max":859,"o":"m 68 739 l 256 739 q 273 783 256 766 q 320 800 289 800 q 344 794 331 800 q 372 779 358 788 q 404 762 387 770 q 446 747 421 753 q 499 741 471 741 q 583 756 544 741 q 649 799 622 772 q 694 859 676 826 q 719 929 712 892 l 530 929 q 514 885 530 903 q 467 868 497 868 q 442 874 456 868 q 414 889 429 880 q 382 907 400 898 q 340 922 365 916 q 288 928 315 928 q 203 912 242 928 q 137 869 164 896 q 93 809 111 843 q 68 739 75 776 m -42 -109 l -35 -111 q 69 -27 -6 -54 q 279 0 143 0 q 254 26 263 8 q 244 65 244 45 q 250 92 244 80 l 263 122 l 557 122 l 567 94 q 572 65 572 79 q 566 35 572 53 q 560 8 560 18 q 561 -2 560 3 q 565 -15 561 -6 q 574 -29 568 -23 q 591 -40 579 -35 q 618 -45 603 -45 q 685 -37 639 -45 q 751 -28 730 -28 q 854 -87 823 -28 l 859 -84 l 727 209 q 711 266 711 244 q 734 318 711 291 q 685 328 702 318 q 658 361 668 339 l 494 726 l 491 725 q 480 691 491 703 q 449 678 469 678 l 410 678 q 306 689 371 678 q 218 701 241 700 q 260 667 244 689 q 276 619 276 646 q 267 578 276 599 l 170 361 q 142 329 159 339 q 94 318 125 318 q 117 267 117 291 q 101 209 117 245 l -42 -109 m 331 271 l 410 463 l 439 392 q 445 359 445 379 q 443 335 445 345 q 459 332 454 335 q 468 323 465 330 l 489 271 l 331 271 "},"":{"ha":827,"x_min":-42,"x_max":859,"o":"m 163 770 q 167 761 163 765 q 176 757 171 757 l 312 757 q 321 761 317 757 q 326 770 326 765 l 326 899 q 321 909 326 905 q 312 913 317 913 l 176 913 q 167 909 171 913 q 163 899 163 905 l 163 770 m 461 770 q 465 761 461 765 q 475 757 469 757 l 610 757 q 620 761 616 757 q 624 770 624 765 l 624 899 q 620 909 624 905 q 610 913 616 913 l 475 913 q 465 909 469 913 q 461 899 461 905 l 461 770 m -42 -109 l -35 -111 q 69 -27 -6 -54 q 279 0 143 0 q 254 26 263 8 q 244 65 244 45 q 250 92 244 80 l 263 122 l 557 122 l 567 94 q 572 65 572 79 q 566 35 572 53 q 560 8 560 18 q 561 -2 560 3 q 565 -15 561 -6 q 574 -29 568 -23 q 591 -40 579 -35 q 618 -45 603 -45 q 685 -37 639 -45 q 751 -28 730 -28 q 854 -87 823 -28 l 859 -84 l 727 209 q 711 266 711 244 q 734 318 711 291 q 685 328 702 318 q 658 361 668 339 l 494 726 l 491 725 q 480 691 491 703 q 449 678 469 678 l 410 678 q 306 689 371 678 q 218 701 241 700 q 260 667 244 689 q 276 619 276 646 q 267 578 276 599 l 170 361 q 142 329 159 339 q 94 318 125 318 q 117 267 117 291 q 101 209 117 245 l -42 -109 m 331 271 l 410 463 l 439 392 q 445 359 445 379 q 443 335 445 345 q 459 332 454 335 q 468 323 465 330 l 489 271 l 331 271 "},"":{"ha":827,"x_min":-42,"x_max":859,"o":"m -42 -109 l -35 -111 q 69 -27 -6 -54 q 279 0 143 0 q 254 26 263 8 q 244 65 244 45 q 250 92 244 80 l 263 122 l 557 122 l 567 94 q 572 65 572 79 q 566 35 572 53 q 560 8 560 18 q 561 -2 560 3 q 565 -15 561 -6 q 574 -29 568 -23 q 591 -40 579 -35 q 618 -45 603 -45 q 685 -37 639 -45 q 751 -28 730 -28 q 854 -87 823 -28 l 859 -84 l 727 209 q 711 266 711 244 q 734 318 711 291 q 685 328 702 318 q 658 361 668 339 l 505 701 q 552 756 535 723 q 570 827 570 789 q 524 938 570 892 q 414 983 478 983 q 303 938 349 983 q 258 827 258 892 q 270 767 258 795 q 304 716 282 738 q 267 578 302 656 l 170 361 q 142 329 159 339 q 94 318 125 318 q 117 267 117 291 q 101 209 117 245 l -42 -109 m 331 271 l 410 463 l 439 392 q 445 359 445 379 q 443 335 445 345 q 459 332 454 335 q 468 323 465 330 l 489 271 l 331 271 m 375 866 q 414 882 391 882 q 452 866 436 882 q 468 827 468 850 q 452 789 468 805 q 414 773 436 773 q 375 789 391 773 q 359 827 359 805 q 367 858 359 850 q 375 866 375 866 "},"":{"ha":1234,"x_min":-42,"x_max":1175,"o":"m -42 -109 l -35 -111 q 69 -27 -6 -54 q 279 0 143 0 q 254 26 263 8 q 244 65 244 45 q 250 92 244 80 l 319 258 l 563 258 l 563 109 q 548 45 563 76 q 502 0 533 15 l 1085 0 q 1139 -20 1116 0 q 1161 -67 1161 -39 q 1125 -158 1161 -120 q 1039 -196 1089 -196 q 982 -170 1006 -196 q 958 -107 958 -144 q 967 -82 958 -92 q 988 -72 976 -72 q 1003 -77 997 -72 q 1010 -88 1010 -81 q 1021 -82 1017 -88 q 1026 -66 1026 -75 q 1015 -42 1026 -52 q 987 -31 1003 -31 q 925 -54 949 -31 q 900 -111 900 -77 q 929 -195 900 -159 q 938 -181 929 -186 q 1039 -209 978 -209 q 1104 -192 1074 -209 q 1152 -145 1134 -175 q 1156 -144 1153 -144 q 1173 -150 1164 -144 q 1170 -121 1170 -138 q 1172 -95 1170 -106 q 1175 -67 1175 -80 q 1163 35 1175 -43 q 1152 161 1152 113 q 1160 243 1152 203 q 1089 184 1132 206 q 1004 163 1047 163 l 766 163 l 766 258 l 1024 258 l 1024 407 l 766 407 l 766 515 l 1017 515 q 1091 501 1058 515 q 1153 456 1124 487 l 1153 678 l 410 678 q 306 689 371 678 q 218 701 241 700 q 260 667 244 689 q 276 619 276 646 q 267 578 276 599 l 170 361 q 142 329 159 339 q 94 318 125 318 q 117 267 117 291 q 101 209 117 245 l -42 -109 m 386 407 l 430 515 l 563 515 l 563 407 l 386 407 "},"":{"ha":848,"x_min":14,"x_max":888,"o":"m 14 319 q 48 279 35 298 q 68 236 62 259 q 134 119 88 170 q 239 37 180 67 q 369 -4 298 7 l 334 -134 l 337 -134 q 422 -123 391 -123 q 471 -135 456 -123 q 486 -170 486 -147 q 444 -227 486 -206 q 329 -248 402 -248 l 309 -330 q 483 -308 408 -330 q 598 -248 557 -287 q 638 -156 638 -209 q 590 -77 638 -107 q 463 -47 542 -47 l 473 -11 q 553 -1 515 -9 q 620 18 591 7 q 673 43 648 30 q 717 71 698 57 q 751 96 736 84 q 780 115 767 107 q 804 125 794 123 l 621 285 q 596 230 613 254 q 555 193 579 207 q 505 172 532 179 q 449 165 478 165 q 378 177 412 165 q 317 209 345 188 q 274 264 290 230 q 258 339 258 297 q 274 415 258 381 q 317 469 290 448 q 378 502 345 490 q 449 513 412 513 q 695 406 576 513 q 689 435 689 420 q 808 605 689 500 q 888 743 888 669 q 858 822 888 789 q 783 854 827 854 q 714 831 743 854 q 685 773 685 807 q 699 735 685 751 q 730 719 712 719 q 759 730 747 719 q 770 755 770 740 q 744 766 754 755 q 733 793 733 778 q 748 827 733 813 q 785 841 764 841 q 849 812 822 841 q 875 743 875 784 q 855 676 875 707 q 799 614 835 645 q 768 604 786 604 q 660 641 734 604 q 448 689 563 689 q 329 675 387 689 q 222 631 272 660 q 135 560 172 602 q 76 462 97 519 q 54 339 54 405 q 55 313 54 326 q 14 319 39 319 "},"":{"ha":814,"x_min":24,"x_max":754,"o":"m 191 922 l 365 760 q 388 746 379 746 l 547 746 q 507 783 523 759 l 416 909 q 406 918 413 914 q 393 922 399 922 l 191 922 m 24 692 q 90 642 65 677 q 115 563 115 606 l 115 366 q 113 339 115 349 q 106 324 112 329 q 93 318 100 319 q 74 317 87 317 q 104 274 92 303 q 115 212 115 245 l 115 109 q 100 45 115 76 q 54 0 85 15 l 665 0 q 718 -20 696 0 q 741 -67 741 -39 q 705 -158 741 -120 q 618 -196 669 -196 q 562 -170 585 -196 q 538 -107 538 -144 q 547 -82 538 -92 q 568 -72 555 -72 q 583 -77 576 -72 q 589 -88 589 -81 q 601 -82 596 -88 q 606 -66 606 -75 q 594 -42 606 -52 q 566 -31 583 -31 q 504 -54 529 -31 q 479 -111 479 -77 q 509 -195 479 -159 q 517 -181 509 -186 q 618 -209 557 -209 q 683 -192 653 -209 q 732 -145 713 -175 q 735 -144 733 -144 q 752 -150 743 -144 q 749 -121 749 -138 q 751 -95 749 -106 q 754 -67 754 -80 q 743 34 754 -43 q 731 160 731 112 q 739 243 731 204 q 669 184 712 206 q 583 163 626 163 l 319 163 l 319 251 l 604 251 l 604 414 l 319 414 l 319 515 l 597 515 q 671 501 638 515 q 732 456 703 487 l 732 678 l 260 678 q 24 692 112 678 "},"":{"ha":814,"x_min":24,"x_max":754,"o":"m 281 746 l 439 746 q 463 760 448 746 l 636 922 l 434 922 q 421 918 428 922 q 411 909 414 914 l 321 783 q 281 746 304 759 m 24 692 q 90 642 65 677 q 115 563 115 606 l 115 366 q 113 339 115 349 q 106 324 112 329 q 93 318 100 319 q 74 317 87 317 q 104 274 92 303 q 115 212 115 245 l 115 109 q 100 45 115 76 q 54 0 85 15 l 665 0 q 718 -20 696 0 q 741 -67 741 -39 q 705 -158 741 -120 q 618 -196 669 -196 q 562 -170 585 -196 q 538 -107 538 -144 q 547 -82 538 -92 q 568 -72 555 -72 q 583 -77 576 -72 q 589 -88 589 -81 q 601 -82 596 -88 q 606 -66 606 -75 q 594 -42 606 -52 q 566 -31 583 -31 q 504 -54 529 -31 q 479 -111 479 -77 q 509 -195 479 -159 q 517 -181 509 -186 q 618 -209 557 -209 q 683 -192 653 -209 q 732 -145 713 -175 q 735 -144 733 -144 q 752 -150 743 -144 q 749 -121 749 -138 q 751 -95 749 -106 q 754 -67 754 -80 q 743 34 754 -43 q 731 160 731 112 q 739 243 731 204 q 669 184 712 206 q 583 163 626 163 l 319 163 l 319 251 l 604 251 l 604 414 l 319 414 l 319 515 l 597 515 q 671 501 638 515 q 732 456 703 487 l 732 678 l 260 678 q 24 692 112 678 "},"":{"ha":814,"x_min":24,"x_max":754,"o":"m 115 752 l 331 752 q 354 765 344 752 l 410 839 l 418 839 l 473 765 q 496 752 484 752 l 712 752 l 514 915 q 481 928 498 928 l 346 928 q 313 915 330 928 l 115 752 m 24 692 q 90 642 65 677 q 115 563 115 606 l 115 366 q 113 339 115 349 q 106 324 112 329 q 93 318 100 319 q 74 317 87 317 q 104 274 92 303 q 115 212 115 245 l 115 109 q 100 45 115 76 q 54 0 85 15 l 665 0 q 718 -20 696 0 q 741 -67 741 -39 q 705 -158 741 -120 q 618 -196 669 -196 q 562 -170 585 -196 q 538 -107 538 -144 q 547 -82 538 -92 q 568 -72 555 -72 q 583 -77 576 -72 q 589 -88 589 -81 q 601 -82 596 -88 q 606 -66 606 -75 q 594 -42 606 -52 q 566 -31 583 -31 q 504 -54 529 -31 q 479 -111 479 -77 q 509 -195 479 -159 q 517 -181 509 -186 q 618 -209 557 -209 q 683 -192 653 -209 q 732 -145 713 -175 q 735 -144 733 -144 q 752 -150 743 -144 q 749 -121 749 -138 q 751 -95 749 -106 q 754 -67 754 -80 q 743 34 754 -43 q 731 160 731 112 q 739 243 731 204 q 669 184 712 206 q 583 163 626 163 l 319 163 l 319 251 l 604 251 l 604 414 l 319 414 l 319 515 l 597 515 q 671 501 638 515 q 732 456 703 487 l 732 678 l 260 678 q 24 692 112 678 "},"":{"ha":814,"x_min":24,"x_max":754,"o":"m 183 770 q 187 761 183 765 q 197 757 191 757 l 332 757 q 342 761 338 757 q 346 770 346 765 l 346 899 q 342 909 346 905 q 332 913 338 913 l 197 913 q 187 909 191 913 q 183 899 183 905 l 183 770 m 481 770 q 486 761 481 765 q 495 757 490 757 l 631 757 q 640 761 636 757 q 644 770 644 765 l 644 899 q 640 909 644 905 q 631 913 636 913 l 495 913 q 486 909 490 913 q 481 899 481 905 l 481 770 m 24 692 q 90 642 65 677 q 115 563 115 606 l 115 366 q 113 339 115 349 q 106 324 112 329 q 93 318 100 319 q 74 317 87 317 q 104 274 92 303 q 115 212 115 245 l 115 109 q 100 45 115 76 q 54 0 85 15 l 665 0 q 718 -20 696 0 q 741 -67 741 -39 q 705 -158 741 -120 q 618 -196 669 -196 q 562 -170 585 -196 q 538 -107 538 -144 q 547 -82 538 -92 q 568 -72 555 -72 q 583 -77 576 -72 q 589 -88 589 -81 q 601 -82 596 -88 q 606 -66 606 -75 q 594 -42 606 -52 q 566 -31 583 -31 q 504 -54 529 -31 q 479 -111 479 -77 q 509 -195 479 -159 q 517 -181 509 -186 q 618 -209 557 -209 q 683 -192 653 -209 q 732 -145 713 -175 q 735 -144 733 -144 q 752 -150 743 -144 q 749 -121 749 -138 q 751 -95 749 -106 q 754 -67 754 -80 q 743 34 754 -43 q 731 160 731 112 q 739 243 731 204 q 669 184 712 206 q 583 163 626 163 l 319 163 l 319 251 l 604 251 l 604 414 l 319 414 l 319 515 l 597 515 q 671 501 638 515 q 732 456 703 487 l 732 678 l 260 678 q 24 692 112 678 "},"":{"ha":434,"x_min":-5,"x_max":380,"o":"m -5 922 l 168 760 q 191 746 183 746 l 350 746 q 310 783 327 759 l 220 909 q 209 918 216 914 q 197 922 202 922 l -5 922 "},"":{"ha":434,"x_min":37,"x_max":439,"o":"m 84 746 l 243 746 q 266 760 251 746 l 439 922 l 237 922 q 225 918 232 922 q 214 909 218 914 l 124 783 q 84 746 107 759 "},"":{"ha":434,"x_min":-81,"x_max":515,"o":"m -81 752 l 134 752 q 157 765 147 752 l 213 839 l 221 839 l 277 765 q 300 752 287 752 l 515 752 l 317 915 q 285 928 301 928 l 149 928 q 117 915 133 928 l -81 752 "},"":{"ha":434,"x_min":-14,"x_max":448,"o":"m -14 770 q -9 761 -14 765 q 0 757 -5 757 l 136 757 q 145 761 141 757 q 149 770 149 765 l 149 899 q 145 909 149 905 q 136 913 141 913 l 0 913 q -9 909 -5 913 q -14 899 -14 905 l -14 770 m 285 770 q 289 761 285 765 q 298 757 293 757 l 434 757 q 444 761 439 757 q 448 770 448 765 l 448 899 q 444 909 448 905 q 434 913 439 913 l 298 913 q 289 909 293 913 q 285 899 285 905 l 285 770 "},"":{"ha":916,"x_min":41,"x_max":902,"o":"m 41 251 l 142 251 l 142 109 q 127 45 142 76 q 81 0 112 15 l 475 0 q 715 63 616 0 q 847 236 814 127 q 866 278 853 259 q 902 319 880 296 q 861 313 877 319 q 861 339 861 321 q 833 478 861 414 q 755 585 805 541 q 633 654 705 629 q 475 678 561 678 l 61 678 q 121 627 99 665 q 142 549 142 590 l 142 414 l 41 414 l 41 251 m 346 176 l 346 251 l 488 251 l 488 414 l 346 414 l 346 502 l 468 502 q 606 458 555 502 q 658 339 658 414 q 607 220 658 264 q 468 176 556 176 l 346 176 "},"":{"ha":909,"x_min":54,"x_max":854,"o":"m 109 739 l 297 739 q 313 783 297 766 q 361 800 330 800 q 385 794 372 800 q 413 779 398 788 q 445 762 428 770 q 487 747 462 753 q 540 741 512 741 q 624 756 585 741 q 690 799 663 772 q 735 859 717 826 q 760 929 752 892 l 571 929 q 555 885 571 903 q 507 868 538 868 q 483 874 496 868 q 455 889 470 880 q 423 907 440 898 q 381 922 406 916 q 328 928 356 928 q 244 912 283 928 q 178 869 205 896 q 133 809 151 843 q 109 739 116 776 m 54 0 l 127 0 q 338 -62 252 0 l 340 -58 q 320 -39 328 -50 q 308 -17 312 -28 q 302 9 304 -7 q 299 37 299 24 q 298 68 298 49 l 298 382 l 552 80 q 564 42 564 67 q 538 -23 564 4 q 476 -50 512 -50 q 431 -33 450 -50 q 413 7 413 -17 q 424 34 413 23 q 451 44 435 44 q 477 35 466 44 q 488 13 488 26 q 509 21 500 13 q 517 42 517 30 q 503 72 517 59 q 469 84 489 84 q 420 62 440 84 q 399 9 399 40 q 422 -40 399 -19 q 476 -60 444 -60 q 516 -54 496 -60 q 552 -39 535 -47 q 588 -21 569 -30 q 631 -6 606 -12 q 685 0 656 0 l 841 0 q 815 19 825 7 q 800 48 805 32 q 795 78 796 65 q 793 109 793 91 l 793 212 q 805 274 793 245 q 834 317 817 303 q 815 318 822 317 q 803 324 809 319 q 795 339 797 329 q 793 366 793 349 l 793 570 q 809 633 793 603 q 854 678 824 664 l 549 678 q 595 633 580 665 q 610 570 610 602 l 610 294 l 289 678 l 54 678 q 100 633 85 665 q 115 570 115 602 l 115 366 q 113 339 115 349 q 106 324 112 329 q 93 318 100 319 q 74 317 87 317 q 104 274 92 303 q 115 212 115 245 l 115 109 q 100 45 115 76 q 54 0 85 15 "},"":{"ha":882,"x_min":14,"x_max":868,"o":"m 218 922 l 392 760 q 415 746 407 746 l 574 746 q 534 783 550 759 l 444 909 q 433 918 440 914 q 420 922 426 922 l 218 922 m 14 319 q 68 236 56 277 q 199 55 100 122 q 441 -11 298 -11 q 683 55 584 -11 q 814 236 782 122 q 834 278 821 259 q 868 319 847 297 q 827 313 843 319 q 827 339 827 321 q 799 482 827 417 q 721 593 771 548 q 599 664 671 638 q 441 689 527 689 q 238 645 326 689 q 102 522 150 602 q 54 339 54 443 q 55 313 54 326 q 14 319 39 319 m 258 339 q 297 422 258 388 q 391 457 336 457 q 463 430 433 457 q 492 365 492 403 q 467 308 492 332 q 407 285 442 285 q 382 294 392 285 q 372 315 372 302 q 376 330 372 323 q 388 336 381 336 q 381 348 388 343 q 366 353 375 353 q 341 341 352 353 q 331 313 331 330 q 354 251 331 276 q 411 227 377 227 q 497 256 461 227 q 484 264 489 256 q 513 365 513 303 q 477 440 513 409 q 391 471 441 471 q 319 452 351 471 q 268 401 286 433 q 331 483 285 453 q 441 513 377 513 q 574 465 523 513 q 624 339 624 417 q 574 213 624 261 q 441 165 523 165 q 308 213 358 165 q 258 339 258 261 "},"":{"ha":882,"x_min":14,"x_max":868,"o":"m 308 746 l 467 746 q 490 760 475 746 l 663 922 l 461 922 q 448 918 455 922 q 438 909 441 914 l 348 783 q 308 746 331 759 m 14 319 q 68 236 56 277 q 199 55 100 122 q 441 -11 298 -11 q 683 55 584 -11 q 814 236 782 122 q 834 278 821 259 q 868 319 847 297 q 827 313 843 319 q 827 339 827 321 q 799 482 827 417 q 721 593 771 548 q 599 664 671 638 q 441 689 527 689 q 238 645 326 689 q 102 522 150 602 q 54 339 54 443 q 55 313 54 326 q 14 319 39 319 m 258 339 q 297 422 258 388 q 391 457 336 457 q 463 430 433 457 q 492 365 492 403 q 467 308 492 332 q 407 285 442 285 q 382 294 392 285 q 372 315 372 302 q 376 330 372 323 q 388 336 381 336 q 381 348 388 343 q 366 353 375 353 q 341 341 352 353 q 331 313 331 330 q 354 251 331 276 q 411 227 377 227 q 497 256 461 227 q 484 264 489 256 q 513 365 513 303 q 477 440 513 409 q 391 471 441 471 q 319 452 351 471 q 268 401 286 433 q 331 483 285 453 q 441 513 377 513 q 574 465 523 513 q 624 339 624 417 q 574 213 624 261 q 441 165 523 165 q 308 213 358 165 q 258 339 258 261 "},"":{"ha":882,"x_min":14,"x_max":868,"o":"m 142 752 l 358 752 q 381 765 371 752 l 437 839 l 445 839 l 500 765 q 524 752 511 752 l 739 752 l 541 915 q 509 928 525 928 l 373 928 q 340 915 357 928 l 142 752 m 14 319 q 68 236 56 277 q 199 55 100 122 q 441 -11 298 -11 q 683 55 584 -11 q 814 236 782 122 q 834 278 821 259 q 868 319 847 297 q 827 313 843 319 q 827 339 827 321 q 799 482 827 417 q 721 593 771 548 q 599 664 671 638 q 441 689 527 689 q 238 645 326 689 q 102 522 150 602 q 54 339 54 443 q 55 313 54 326 q 14 319 39 319 m 258 339 q 297 422 258 388 q 391 457 336 457 q 463 430 433 457 q 492 365 492 403 q 467 308 492 332 q 407 285 442 285 q 382 294 392 285 q 372 315 372 302 q 376 330 372 323 q 388 336 381 336 q 381 348 388 343 q 366 353 375 353 q 341 341 352 353 q 331 313 331 330 q 354 251 331 276 q 411 227 377 227 q 497 256 461 227 q 484 264 489 256 q 513 365 513 303 q 477 440 513 409 q 391 471 441 471 q 319 452 351 471 q 268 401 286 433 q 331 483 285 453 q 441 513 377 513 q 574 465 523 513 q 624 339 624 417 q 574 213 624 261 q 441 165 523 165 q 308 213 358 165 q 258 339 258 261 "},"":{"ha":882,"x_min":14,"x_max":868,"o":"m 115 739 l 304 739 q 320 783 304 766 q 368 800 337 800 q 392 794 378 800 q 420 779 405 788 q 452 762 434 770 q 494 747 469 753 q 547 741 519 741 q 631 756 592 741 q 697 799 670 772 q 741 859 724 826 q 766 929 759 892 l 578 929 q 561 885 578 903 q 514 868 545 868 q 490 874 503 868 q 462 889 476 880 q 430 907 447 898 q 388 922 413 916 q 335 928 363 928 q 251 912 290 928 q 185 869 212 896 q 140 809 158 843 q 115 739 122 776 m 14 319 q 68 236 56 277 q 199 55 100 122 q 441 -11 298 -11 q 683 55 584 -11 q 814 236 782 122 q 834 278 821 259 q 868 319 847 297 q 827 313 843 319 q 827 339 827 321 q 799 482 827 417 q 721 593 771 548 q 599 664 671 638 q 441 689 527 689 q 238 645 326 689 q 102 522 150 602 q 54 339 54 443 q 55 313 54 326 q 14 319 39 319 m 258 339 q 297 422 258 388 q 391 457 336 457 q 463 430 433 457 q 492 365 492 403 q 467 308 492 332 q 407 285 442 285 q 382 294 392 285 q 372 315 372 302 q 376 330 372 323 q 388 336 381 336 q 381 348 388 343 q 366 353 375 353 q 341 341 352 353 q 331 313 331 330 q 354 251 331 276 q 411 227 377 227 q 497 256 461 227 q 484 264 489 256 q 513 365 513 303 q 477 440 513 409 q 391 471 441 471 q 319 452 351 471 q 268 401 286 433 q 331 483 285 453 q 441 513 377 513 q 574 465 523 513 q 624 339 624 417 q 574 213 624 261 q 441 165 523 165 q 308 213 358 165 q 258 339 258 261 "},"":{"ha":882,"x_min":14,"x_max":868,"o":"m 210 770 q 214 761 210 765 q 224 757 218 757 l 359 757 q 369 761 365 757 q 373 770 373 765 l 373 899 q 369 909 373 905 q 359 913 365 913 l 224 913 q 214 909 218 913 q 210 899 210 905 l 210 770 m 509 770 q 513 761 509 765 q 522 757 517 757 l 658 757 q 667 761 663 757 q 671 770 671 765 l 671 899 q 667 909 671 905 q 658 913 663 913 l 522 913 q 513 909 517 913 q 509 899 509 905 l 509 770 m 14 319 q 68 236 56 277 q 199 55 100 122 q 441 -11 298 -11 q 683 55 584 -11 q 814 236 782 122 q 834 278 821 259 q 868 319 847 297 q 827 313 843 319 q 827 339 827 321 q 799 482 827 417 q 721 593 771 548 q 599 664 671 638 q 441 689 527 689 q 238 645 326 689 q 102 522 150 602 q 54 339 54 443 q 55 313 54 326 q 14 319 39 319 m 258 339 q 297 422 258 388 q 391 457 336 457 q 463 430 433 457 q 492 365 492 403 q 467 308 492 332 q 407 285 442 285 q 382 294 392 285 q 372 315 372 302 q 376 330 372 323 q 388 336 381 336 q 381 348 388 343 q 366 353 375 353 q 341 341 352 353 q 331 313 331 330 q 354 251 331 276 q 411 227 377 227 q 497 256 461 227 q 484 264 489 256 q 513 365 513 303 q 477 440 513 409 q 391 471 441 471 q 319 452 351 471 q 268 401 286 433 q 331 483 285 453 q 441 513 377 513 q 574 465 523 513 q 624 339 624 417 q 574 213 624 261 q 441 165 523 165 q 308 213 358 165 q 258 339 258 261 "},"":{"ha":651,"x_min":-3,"x_max":635,"o":"m -3 140 q 32 45 -3 86 q 17 37 27 37 q 103 7 53 7 q 160 32 137 7 q 183 94 183 57 q 174 120 183 109 q 151 131 164 131 q 133 126 140 131 q 126 115 126 121 q 138 109 133 115 q 142 96 142 104 q 132 74 142 81 q 103 66 121 66 q 50 86 75 66 q 24 140 24 106 q 54 218 24 184 q 129 251 84 251 l 590 251 l 590 358 q 597 401 590 379 q 612 437 604 422 q 628 472 621 452 q 635 509 635 492 q 611 577 635 553 q 554 601 587 601 q 496 579 521 601 q 471 522 471 557 q 483 487 471 502 q 513 473 495 473 q 533 481 525 473 q 542 503 542 490 q 519 514 529 503 q 510 540 510 525 q 524 575 510 562 q 559 587 538 587 q 605 567 585 587 q 625 509 625 547 q 593 449 625 471 q 515 427 562 427 l 54 427 l 54 267 q 48 251 54 260 q 34 231 42 241 q 18 207 26 220 q 3 176 9 194 q -3 140 -3 159 m 231 509 q 235 499 231 503 q 244 495 239 495 l 393 495 q 403 499 399 495 q 407 509 407 503 l 407 651 q 403 661 407 656 q 393 665 399 665 l 244 665 q 235 661 239 665 q 231 651 231 656 l 231 509 m 231 34 q 235 24 231 28 q 244 20 239 20 l 393 20 q 403 24 399 20 q 407 34 407 28 l 407 176 q 403 186 407 182 q 393 190 399 190 l 244 190 q 235 186 239 190 q 231 176 231 182 l 231 34 "},"":{"ha":882,"x_min":14,"x_max":868,"o":"m 14 319 q 68 236 56 277 q 153 93 92 152 l 63 -22 l 122 -68 l 181 -114 l 281 15 q 441 -11 354 -11 q 683 55 584 -11 q 814 236 782 122 q 834 278 821 259 q 868 319 847 297 q 827 313 843 319 q 827 339 827 321 q 802 477 827 414 q 729 586 777 539 l 818 700 l 760 746 l 701 792 l 600 664 q 441 689 528 689 q 238 645 326 689 q 102 522 150 602 q 54 339 54 443 q 55 313 54 326 q 14 319 39 319 m 258 339 q 308 465 258 417 q 441 513 358 513 q 479 510 461 513 l 278 252 q 258 339 258 290 m 402 169 l 604 426 q 624 339 624 388 q 574 213 624 261 q 441 165 523 165 q 402 169 420 165 "},"":{"ha":868,"x_min":41,"x_max":827,"o":"m 212 949 l 385 787 q 408 773 400 773 l 567 773 q 527 810 544 786 l 437 936 q 426 945 433 941 q 414 949 419 949 l 212 949 m 41 665 q 86 620 71 651 q 102 556 102 588 l 102 315 q 89 317 97 315 q 76 319 80 319 q 68 317 72 319 q 94 278 83 301 q 110 237 106 254 q 220 60 133 125 q 434 -5 306 -5 q 648 60 562 -5 q 759 237 735 125 q 774 278 762 254 q 800 317 785 301 q 792 319 796 319 q 779 317 788 319 q 766 315 771 315 l 766 570 q 781 633 766 603 q 827 678 797 664 l 684 678 q 630 684 655 678 q 586 699 605 690 q 551 717 568 708 q 515 732 534 726 q 475 738 495 738 q 420 718 443 738 q 398 669 398 697 q 418 616 398 638 q 468 594 439 594 q 502 606 488 594 q 516 636 516 619 q 507 657 516 648 q 486 666 499 666 q 476 643 486 652 q 450 634 465 634 q 423 645 434 634 q 412 671 412 655 q 430 712 412 695 q 475 728 449 728 q 537 701 511 728 q 563 635 563 673 l 563 307 q 527 211 563 247 q 434 175 492 175 q 341 211 376 175 q 305 307 305 247 l 305 572 q 297 619 305 599 q 276 652 289 640 q 245 673 263 665 q 207 684 227 681 q 166 688 188 688 q 96 681 131 688 q 41 665 61 673 "},"":{"ha":868,"x_min":41,"x_max":827,"o":"m 301 773 l 460 773 q 483 787 468 773 l 656 949 l 454 949 q 442 945 449 949 q 431 936 435 941 l 341 810 q 301 773 325 786 m 41 665 q 86 620 71 651 q 102 556 102 588 l 102 315 q 89 317 97 315 q 76 319 80 319 q 68 317 72 319 q 94 278 83 301 q 110 237 106 254 q 220 60 133 125 q 434 -5 306 -5 q 648 60 562 -5 q 759 237 735 125 q 774 278 762 254 q 800 317 785 301 q 792 319 796 319 q 779 317 788 319 q 766 315 771 315 l 766 570 q 781 633 766 603 q 827 678 797 664 l 684 678 q 630 684 655 678 q 586 699 605 690 q 551 717 568 708 q 515 732 534 726 q 475 738 495 738 q 420 718 443 738 q 398 669 398 697 q 418 616 398 638 q 468 594 439 594 q 502 606 488 594 q 516 636 516 619 q 507 657 516 648 q 486 666 499 666 q 476 643 486 652 q 450 634 465 634 q 423 645 434 634 q 412 671 412 655 q 430 712 412 695 q 475 728 449 728 q 537 701 511 728 q 563 635 563 673 l 563 307 q 527 211 563 247 q 434 175 492 175 q 341 211 376 175 q 305 307 305 247 l 305 572 q 297 619 305 599 q 276 652 289 640 q 245 673 263 665 q 207 684 227 681 q 166 688 188 688 q 96 681 131 688 q 41 665 61 673 "},"":{"ha":868,"x_min":41,"x_max":827,"o":"m 136 779 l 351 779 q 374 792 364 779 l 430 866 l 438 866 l 494 792 q 517 779 504 779 l 732 779 l 534 942 q 502 955 518 955 l 366 955 q 334 942 350 955 l 136 779 m 41 665 q 86 620 71 651 q 102 556 102 588 l 102 315 q 89 317 97 315 q 76 319 80 319 q 68 317 72 319 q 94 278 83 301 q 110 237 106 254 q 220 60 133 125 q 434 -5 306 -5 q 648 60 562 -5 q 759 237 735 125 q 774 278 762 254 q 800 317 785 301 q 792 319 796 319 q 779 317 788 319 q 766 315 771 315 l 766 570 q 781 633 766 603 q 827 678 797 664 l 684 678 q 630 684 655 678 q 586 699 605 690 q 551 717 568 708 q 515 732 534 726 q 475 738 495 738 q 420 718 443 738 q 398 669 398 697 q 418 616 398 638 q 468 594 439 594 q 502 606 488 594 q 516 636 516 619 q 507 657 516 648 q 486 666 499 666 q 476 643 486 652 q 450 634 465 634 q 423 645 434 634 q 412 671 412 655 q 430 712 412 695 q 475 728 449 728 q 537 701 511 728 q 563 635 563 673 l 563 307 q 527 211 563 247 q 434 175 492 175 q 341 211 376 175 q 305 307 305 247 l 305 572 q 297 619 305 599 q 276 652 289 640 q 245 673 263 665 q 207 684 227 681 q 166 688 188 688 q 96 681 131 688 q 41 665 61 673 "},"":{"ha":868,"x_min":41,"x_max":827,"o":"m 203 798 q 208 788 203 792 q 217 784 212 784 l 353 784 q 362 788 358 784 q 366 798 366 792 l 366 926 q 362 936 366 932 q 353 940 358 940 l 217 940 q 208 936 212 940 q 203 926 203 932 l 203 798 m 502 798 q 506 788 502 792 q 515 784 510 784 l 651 784 q 661 788 656 784 q 665 798 665 792 l 665 926 q 661 936 665 932 q 651 940 656 940 l 515 940 q 506 936 510 940 q 502 926 502 932 l 502 798 m 41 665 q 86 620 71 651 q 102 556 102 588 l 102 315 q 89 317 97 315 q 76 319 80 319 q 68 317 72 319 q 94 278 83 301 q 110 237 106 254 q 220 60 133 125 q 434 -5 306 -5 q 648 60 562 -5 q 759 237 735 125 q 774 278 762 254 q 800 317 785 301 q 792 319 796 319 q 779 317 788 319 q 766 315 771 315 l 766 570 q 781 633 766 603 q 827 678 797 664 l 684 678 q 630 684 655 678 q 586 699 605 690 q 551 717 568 708 q 515 732 534 726 q 475 738 495 738 q 420 718 443 738 q 398 669 398 697 q 418 616 398 638 q 468 594 439 594 q 502 606 488 594 q 516 636 516 619 q 507 657 516 648 q 486 666 499 666 q 476 643 486 652 q 450 634 465 634 q 423 645 434 634 q 412 671 412 655 q 430 712 412 695 q 475 728 449 728 q 537 701 511 728 q 563 635 563 673 l 563 307 q 527 211 563 247 q 434 175 492 175 q 341 211 376 175 q 305 307 305 247 l 305 572 q 297 619 305 599 q 276 652 289 640 q 245 673 263 665 q 207 684 227 681 q 166 688 188 688 q 96 681 131 688 q 41 665 61 673 "},"":{"ha":854,"x_min":-9,"x_max":891,"o":"m 308 787 l 467 787 q 490 800 475 787 l 663 963 l 461 963 q 448 959 455 963 q 438 949 441 955 l 348 824 q 308 787 331 799 m -9 738 q 1 706 -9 721 l 258 337 q 214 329 241 337 q 310 263 286 297 l 326 241 l 326 125 q 317 83 326 104 q 290 41 309 61 q 245 14 271 22 q 353 0 285 0 l 477 0 q 507 -10 496 0 q 518 -34 518 -19 q 529 20 529 -22 l 529 239 l 546 263 q 642 329 570 297 q 597 337 617 337 l 769 584 q 796 621 783 605 q 826 652 809 637 q 858 676 842 668 q 891 685 875 685 l 891 693 q 805 686 866 693 q 701 678 743 678 q 661 679 679 678 q 632 681 643 680 q 603 684 622 682 q 570 688 583 686 q 576 657 576 673 q 561 606 576 631 l 430 401 l 299 606 q 288 645 288 624 q 316 723 288 690 q 382 755 344 755 q 439 737 415 755 q 462 691 462 718 q 447 655 462 670 q 413 641 433 641 q 387 650 398 641 q 376 672 376 659 q 355 664 364 672 q 347 643 347 655 q 361 613 347 626 q 395 601 375 601 q 452 627 428 601 q 476 689 476 653 q 448 743 476 721 q 382 765 421 765 q 340 755 359 765 q 295 726 320 746 q 226 689 260 700 q 154 677 193 677 q 48 698 89 677 q 6 749 6 719 q 18 775 6 765 q -2 764 6 775 q -9 738 -9 753 "},"":{"ha":834,"x_min":24,"x_max":793,"o":"m 24 692 q 90 642 65 677 q 115 563 115 606 l 115 366 q 113 339 115 349 q 106 324 112 329 q 93 318 100 319 q 74 317 87 317 q 104 274 92 303 q 115 212 115 245 l 115 109 q 100 45 115 76 q 54 0 85 15 l 415 0 q 465 -21 444 0 q 486 -72 486 -42 q 472 -106 486 -92 q 438 -121 458 -121 q 411 -113 422 -121 q 399 -94 399 -105 q 403 -76 399 -86 q 407 -58 407 -65 q 378 -37 407 -37 q 362 -81 362 -57 q 381 -125 362 -107 q 427 -144 400 -144 q 470 -129 452 -144 q 474 -138 472 -135 q 483 -144 477 -141 q 490 -110 485 -134 q 496 -75 496 -85 q 473 -16 496 -40 q 415 8 449 8 q 343 35 367 8 q 319 109 319 62 l 319 163 l 556 163 q 728 222 663 163 q 793 380 793 282 q 728 537 793 477 q 556 597 663 597 l 319 597 q 346 678 319 638 l 260 678 q 24 692 112 678 m 319 312 l 319 434 l 543 434 q 587 417 570 434 q 604 373 604 400 q 587 329 604 346 q 543 312 570 312 l 319 312 "},"":{"ha":854,"x_min":-9,"x_max":891,"o":"m 210 811 q 214 802 210 806 q 224 798 218 798 l 359 798 q 369 802 365 798 q 373 811 373 806 l 373 940 q 369 949 373 945 q 359 954 365 954 l 224 954 q 214 949 218 954 q 210 940 210 945 l 210 811 m 509 811 q 513 802 509 806 q 522 798 517 798 l 658 798 q 667 802 663 798 q 671 811 671 806 l 671 940 q 667 949 671 945 q 658 954 663 954 l 522 954 q 513 949 517 954 q 509 940 509 945 l 509 811 m -9 738 q 1 706 -9 721 l 258 337 q 214 329 241 337 q 310 263 286 297 l 326 241 l 326 125 q 317 83 326 104 q 290 41 309 61 q 245 14 271 22 q 353 0 285 0 l 477 0 q 507 -10 496 0 q 518 -34 518 -19 q 529 20 529 -22 l 529 239 l 546 263 q 642 329 570 297 q 597 337 617 337 l 769 584 q 796 621 783 605 q 826 652 809 637 q 858 676 842 668 q 891 685 875 685 l 891 693 q 805 686 866 693 q 701 678 743 678 q 661 679 679 678 q 632 681 643 680 q 603 684 622 682 q 570 688 583 686 q 576 657 576 673 q 561 606 576 631 l 430 401 l 299 606 q 288 645 288 624 q 316 723 288 690 q 382 755 344 755 q 439 737 415 755 q 462 691 462 718 q 447 655 462 670 q 413 641 433 641 q 387 650 398 641 q 376 672 376 659 q 355 664 364 672 q 347 643 347 655 q 361 613 347 626 q 395 601 375 601 q 452 627 428 601 q 476 689 476 653 q 448 743 476 721 q 382 765 421 765 q 340 755 359 765 q 295 726 320 746 q 226 689 260 700 q 154 677 193 677 q 48 698 89 677 q 6 749 6 719 q 18 775 6 765 q -2 764 6 775 q -9 738 -9 753 "},"":{"ha":827,"x_min":-42,"x_max":859,"o":"m 163 747 q 232 760 199 760 l 624 760 l 624 916 l 163 916 l 163 747 m -42 -109 l -35 -111 q 69 -27 -6 -54 q 279 0 143 0 q 254 26 263 8 q 244 65 244 45 q 250 92 244 80 l 263 122 l 557 122 l 567 94 q 572 65 572 79 q 566 35 572 53 q 560 8 560 18 q 561 -2 560 3 q 565 -15 561 -6 q 574 -29 568 -23 q 591 -40 579 -35 q 618 -45 603 -45 q 685 -37 639 -45 q 751 -28 730 -28 q 854 -87 823 -28 l 859 -84 l 727 209 q 711 266 711 244 q 734 318 711 291 q 685 328 702 318 q 658 361 668 339 l 494 726 l 491 725 q 480 691 491 703 q 449 678 469 678 l 410 678 q 306 689 371 678 q 218 701 241 700 q 260 667 244 689 q 276 619 276 646 q 267 578 276 599 l 170 361 q 142 329 159 339 q 94 318 125 318 q 117 267 117 291 q 101 209 117 245 l -42 -109 m 331 271 l 410 463 l 439 392 q 445 359 445 379 q 443 335 445 345 q 459 332 454 335 q 468 323 465 330 l 489 271 l 331 271 "},"":{"ha":827,"x_min":-42,"x_max":859,"o":"m 163 747 q 232 760 199 760 l 624 760 l 624 916 l 163 916 l 163 747 m -42 -109 l -35 -111 q 69 -27 -6 -54 q 279 0 143 0 q 254 26 263 8 q 244 65 244 45 q 250 92 244 80 l 263 122 l 557 122 l 567 94 q 572 65 572 79 q 566 35 572 53 q 560 8 560 18 q 561 -2 560 3 q 565 -15 561 -6 q 574 -29 568 -23 q 591 -40 579 -35 q 618 -45 603 -45 q 685 -37 639 -45 q 751 -28 730 -28 q 854 -87 823 -28 l 859 -84 l 727 209 q 711 266 711 244 q 734 318 711 291 q 685 328 702 318 q 658 361 668 339 l 494 726 l 491 725 q 480 691 491 703 q 449 678 469 678 l 410 678 q 306 689 371 678 q 218 701 241 700 q 260 667 244 689 q 276 619 276 646 q 267 578 276 599 l 170 361 q 142 329 159 339 q 94 318 125 318 q 117 267 117 291 q 101 209 117 245 l -42 -109 m 331 271 l 410 463 l 439 392 q 445 359 445 379 q 443 335 445 345 q 459 332 454 335 q 468 323 465 330 l 489 271 l 331 271 "},"":{"ha":827,"x_min":-42,"x_max":859,"o":"m 122 922 q 172 826 133 867 q 269 761 211 784 q 393 739 326 739 q 518 761 460 739 q 615 826 576 784 q 665 922 654 867 l 476 922 q 444 865 467 887 q 393 842 422 842 q 342 865 365 842 q 311 922 320 887 l 122 922 m -42 -109 l -35 -111 q 69 -27 -6 -54 q 279 0 143 0 q 254 26 263 8 q 244 65 244 45 q 250 92 244 80 l 263 122 l 557 122 l 567 94 q 572 65 572 79 q 566 35 572 53 q 560 8 560 18 q 561 -2 560 3 q 565 -15 561 -6 q 574 -29 568 -23 q 591 -40 579 -35 q 618 -45 603 -45 q 685 -37 639 -45 q 751 -28 730 -28 q 854 -87 823 -28 l 859 -84 l 727 209 q 711 266 711 244 q 734 318 711 291 q 685 328 702 318 q 658 361 668 339 l 494 726 l 491 725 q 480 691 491 703 q 449 678 469 678 l 410 678 q 306 689 371 678 q 218 701 241 700 q 260 667 244 689 q 276 619 276 646 q 267 578 276 599 l 170 361 q 142 329 159 339 q 94 318 125 318 q 117 267 117 291 q 101 209 117 245 l -42 -109 m 331 271 l 410 463 l 439 392 q 445 359 445 379 q 443 335 445 345 q 459 332 454 335 q 468 323 465 330 l 489 271 l 331 271 "},"":{"ha":827,"x_min":-42,"x_max":859,"o":"m 122 922 q 172 826 133 867 q 269 761 211 784 q 393 739 326 739 q 518 761 460 739 q 615 826 576 784 q 665 922 654 867 l 476 922 q 444 865 467 887 q 393 842 422 842 q 342 865 365 842 q 311 922 320 887 l 122 922 m -42 -109 l -35 -111 q 69 -27 -6 -54 q 279 0 143 0 q 254 26 263 8 q 244 65 244 45 q 250 92 244 80 l 263 122 l 557 122 l 567 94 q 572 65 572 79 q 566 35 572 53 q 560 8 560 18 q 561 -2 560 3 q 565 -15 561 -6 q 574 -29 568 -23 q 591 -40 579 -35 q 618 -45 603 -45 q 685 -37 639 -45 q 751 -28 730 -28 q 854 -87 823 -28 l 859 -84 l 727 209 q 711 266 711 244 q 734 318 711 291 q 685 328 702 318 q 658 361 668 339 l 494 726 l 491 725 q 480 691 491 703 q 449 678 469 678 l 410 678 q 306 689 371 678 q 218 701 241 700 q 260 667 244 689 q 276 619 276 646 q 267 578 276 599 l 170 361 q 142 329 159 339 q 94 318 125 318 q 117 267 117 291 q 101 209 117 245 l -42 -109 m 331 271 l 410 463 l 439 392 q 445 359 445 379 q 443 335 445 345 q 459 332 454 335 q 468 323 465 330 l 489 271 l 331 271 "},"":{"ha":827,"x_min":-42,"x_max":825,"o":"m -42 -109 l -35 -111 q 69 -27 -6 -54 q 279 0 143 0 q 254 26 263 8 q 244 65 244 45 q 250 92 244 80 l 263 122 l 557 122 l 626 -25 q 572 -75 592 -45 q 552 -142 552 -106 q 589 -220 552 -191 q 677 -249 627 -249 q 735 -238 708 -249 q 783 -204 762 -228 q 812 -148 805 -181 l 825 -96 q 768 -113 802 -113 q 724 -102 742 -112 q 706 -79 706 -93 q 792 3 706 -50 l 811 14 l 724 209 q 709 267 709 244 q 731 318 709 292 q 683 328 700 318 q 657 361 667 339 l 494 726 l 491 725 q 480 691 491 703 q 449 678 469 678 l 410 678 q 306 689 371 678 q 218 701 241 700 q 260 667 244 689 q 276 619 276 646 q 267 578 276 599 l 170 361 q 142 329 159 339 q 94 318 125 318 q 116 267 116 292 q 101 209 116 244 l -42 -109 m 331 271 l 410 463 l 439 392 q 445 359 445 379 q 443 335 445 345 q 459 332 454 335 q 468 323 465 330 l 489 271 l 331 271 "},"":{"ha":827,"x_min":-42,"x_max":825,"o":"m -42 -109 l -35 -111 q 69 -27 -6 -54 q 279 0 143 0 q 254 26 263 8 q 244 65 244 45 q 250 92 244 80 l 263 122 l 557 122 l 626 -25 q 572 -75 592 -45 q 552 -142 552 -106 q 589 -220 552 -191 q 677 -249 627 -249 q 735 -238 708 -249 q 783 -204 762 -228 q 812 -148 805 -181 l 825 -96 q 768 -113 802 -113 q 724 -102 742 -112 q 706 -79 706 -93 q 792 3 706 -50 l 811 14 l 724 209 q 709 267 709 244 q 731 318 709 292 q 683 328 700 318 q 657 361 667 339 l 494 726 l 491 725 q 480 691 491 703 q 449 678 469 678 l 410 678 q 306 689 371 678 q 218 701 241 700 q 260 667 244 689 q 276 619 276 646 q 267 578 276 599 l 170 361 q 142 329 159 339 q 94 318 125 318 q 116 267 116 292 q 101 209 116 244 l -42 -109 m 331 271 l 410 463 l 439 392 q 445 359 445 379 q 443 335 445 345 q 459 332 454 335 q 468 323 465 330 l 489 271 l 331 271 "},"":{"ha":848,"x_min":14,"x_max":888,"o":"m 308 746 l 467 746 q 490 760 475 746 l 663 922 l 461 922 q 448 918 455 922 q 438 909 441 914 l 348 783 q 308 746 331 759 m 14 319 q 48 279 35 298 q 68 236 62 259 q 125 129 86 177 q 215 51 164 81 q 327 5 267 21 q 450 -11 387 -11 q 537 -4 496 -11 q 609 15 578 3 q 666 40 640 26 q 713 68 692 54 q 749 94 733 82 q 779 115 765 106 q 804 125 793 123 l 621 285 q 596 230 613 254 q 555 193 579 207 q 505 172 532 179 q 449 165 478 165 q 378 177 412 165 q 317 209 345 188 q 274 264 290 230 q 258 339 258 297 q 274 415 258 381 q 317 469 290 448 q 378 502 345 490 q 449 513 412 513 q 695 406 576 513 q 689 435 689 420 q 808 605 689 500 q 888 743 888 669 q 858 822 888 789 q 783 854 827 854 q 714 831 743 854 q 685 773 685 807 q 699 735 685 751 q 730 719 712 719 q 759 730 747 719 q 770 755 770 740 q 744 766 754 755 q 733 793 733 778 q 748 827 733 813 q 785 841 764 841 q 849 812 822 841 q 875 743 875 784 q 855 676 875 707 q 799 614 835 645 q 768 604 786 604 q 660 641 734 604 q 448 689 563 689 q 329 675 387 689 q 222 631 272 660 q 135 560 172 602 q 76 462 97 519 q 54 339 54 405 q 55 313 54 326 q 14 319 39 319 "},"":{"ha":848,"x_min":14,"x_max":888,"o":"m 308 746 l 467 746 q 490 760 475 746 l 663 922 l 461 922 q 448 918 455 922 q 438 909 441 914 l 348 783 q 308 746 331 759 m 14 319 q 48 279 35 298 q 68 236 62 259 q 125 129 86 177 q 215 51 164 81 q 327 5 267 21 q 450 -11 387 -11 q 537 -4 496 -11 q 609 15 578 3 q 666 40 640 26 q 713 68 692 54 q 749 94 733 82 q 779 115 765 106 q 804 125 793 123 l 621 285 q 596 230 613 254 q 555 193 579 207 q 505 172 532 179 q 449 165 478 165 q 378 177 412 165 q 317 209 345 188 q 274 264 290 230 q 258 339 258 297 q 274 415 258 381 q 317 469 290 448 q 378 502 345 490 q 449 513 412 513 q 695 406 576 513 q 689 435 689 420 q 808 605 689 500 q 888 743 888 669 q 858 822 888 789 q 783 854 827 854 q 714 831 743 854 q 685 773 685 807 q 699 735 685 751 q 730 719 712 719 q 759 730 747 719 q 770 755 770 740 q 744 766 754 755 q 733 793 733 778 q 748 827 733 813 q 785 841 764 841 q 849 812 822 841 q 875 743 875 784 q 855 676 875 707 q 799 614 835 645 q 768 604 786 604 q 660 641 734 604 q 448 689 563 689 q 329 675 387 689 q 222 631 272 660 q 135 560 172 602 q 76 462 97 519 q 54 339 54 405 q 55 313 54 326 q 14 319 39 319 "},"":{"ha":848,"x_min":14,"x_max":899,"o":"m 14 319 q 48 279 35 298 q 68 236 62 259 q 125 129 86 177 q 215 51 164 81 q 327 5 267 21 q 450 -11 387 -11 q 537 -4 496 -11 q 609 15 578 3 q 666 40 640 26 q 713 68 692 54 q 749 94 733 82 q 779 115 765 106 q 804 125 793 123 l 621 285 q 596 230 613 254 q 555 193 579 207 q 505 172 532 179 q 449 165 478 165 q 378 177 412 165 q 317 209 345 188 q 274 264 290 230 q 258 339 258 297 q 274 415 258 381 q 317 469 290 448 q 378 502 345 490 q 449 513 412 513 q 695 406 576 513 q 689 435 689 420 q 808 605 689 500 q 888 743 888 669 q 891 784 888 759 q 899 822 895 808 q 883 815 893 822 q 868 809 872 809 q 795 850 835 850 q 758 838 773 850 q 742 807 742 825 q 752 782 742 792 q 776 772 762 772 q 787 797 776 789 q 813 806 797 806 q 856 789 838 806 q 875 743 875 772 q 855 676 875 707 q 799 614 835 645 q 768 604 786 604 q 660 641 734 604 q 448 689 563 689 q 329 675 387 689 q 222 631 272 660 q 135 560 172 602 q 76 462 97 519 q 54 339 54 405 q 55 313 54 326 q 14 319 39 319 m 142 752 l 358 752 q 381 765 371 752 l 437 839 l 445 839 l 500 765 q 524 752 511 752 l 739 752 l 541 915 q 509 928 525 928 l 373 928 q 340 915 357 928 l 142 752 "},"":{"ha":848,"x_min":14,"x_max":899,"o":"m 14 319 q 48 279 35 298 q 68 236 62 259 q 125 129 86 177 q 215 51 164 81 q 327 5 267 21 q 450 -11 387 -11 q 537 -4 496 -11 q 609 15 578 3 q 666 40 640 26 q 713 68 692 54 q 749 94 733 82 q 779 115 765 106 q 804 125 793 123 l 621 285 q 596 230 613 254 q 555 193 579 207 q 505 172 532 179 q 449 165 478 165 q 378 177 412 165 q 317 209 345 188 q 274 264 290 230 q 258 339 258 297 q 274 415 258 381 q 317 469 290 448 q 378 502 345 490 q 449 513 412 513 q 695 406 576 513 q 689 435 689 420 q 808 605 689 500 q 888 743 888 669 q 891 784 888 759 q 899 822 895 808 q 883 815 893 822 q 868 809 872 809 q 795 850 835 850 q 758 838 773 850 q 742 807 742 825 q 752 782 742 792 q 776 772 762 772 q 787 797 776 789 q 813 806 797 806 q 856 789 838 806 q 875 743 875 772 q 855 676 875 707 q 799 614 835 645 q 768 604 786 604 q 660 641 734 604 q 448 689 563 689 q 329 675 387 689 q 222 631 272 660 q 135 560 172 602 q 76 462 97 519 q 54 339 54 405 q 55 313 54 326 q 14 319 39 319 m 142 752 l 358 752 q 381 765 371 752 l 437 839 l 445 839 l 500 765 q 524 752 511 752 l 739 752 l 541 915 q 509 928 525 928 l 373 928 q 340 915 357 928 l 142 752 "},"":{"ha":848,"x_min":14,"x_max":888,"o":"m 353 764 q 357 754 353 758 q 366 750 361 750 l 515 750 q 525 754 521 750 q 529 764 529 758 l 529 906 q 525 916 529 911 q 515 920 521 920 l 366 920 q 357 916 361 920 q 353 906 353 911 l 353 764 m 14 319 q 48 279 35 298 q 68 236 62 259 q 125 129 86 177 q 215 51 164 81 q 327 5 267 21 q 450 -11 387 -11 q 537 -4 496 -11 q 609 15 578 3 q 666 40 640 26 q 713 68 692 54 q 749 94 733 82 q 779 115 765 106 q 804 125 793 123 l 621 285 q 596 230 613 254 q 555 193 579 207 q 505 172 532 179 q 449 165 478 165 q 378 177 412 165 q 317 209 345 188 q 274 264 290 230 q 258 339 258 297 q 274 415 258 381 q 317 469 290 448 q 378 502 345 490 q 449 513 412 513 q 695 406 576 513 q 689 435 689 420 q 808 605 689 500 q 888 743 888 669 q 858 822 888 789 q 783 854 827 854 q 714 831 743 854 q 685 773 685 807 q 699 735 685 751 q 730 719 712 719 q 759 730 747 719 q 770 755 770 740 q 744 766 754 755 q 733 793 733 778 q 748 827 733 813 q 785 841 764 841 q 849 812 822 841 q 875 743 875 784 q 855 676 875 707 q 799 614 835 645 q 768 604 786 604 q 660 641 734 604 q 448 689 563 689 q 329 675 387 689 q 222 631 272 660 q 135 560 172 602 q 76 462 97 519 q 54 339 54 405 q 55 313 54 326 q 14 319 39 319 "},"":{"ha":848,"x_min":14,"x_max":888,"o":"m 353 764 q 357 754 353 758 q 366 750 361 750 l 515 750 q 525 754 521 750 q 529 764 529 758 l 529 906 q 525 916 529 911 q 515 920 521 920 l 366 920 q 357 916 361 920 q 353 906 353 911 l 353 764 m 14 319 q 48 279 35 298 q 68 236 62 259 q 125 129 86 177 q 215 51 164 81 q 327 5 267 21 q 450 -11 387 -11 q 537 -4 496 -11 q 609 15 578 3 q 666 40 640 26 q 713 68 692 54 q 749 94 733 82 q 779 115 765 106 q 804 125 793 123 l 621 285 q 596 230 613 254 q 555 193 579 207 q 505 172 532 179 q 449 165 478 165 q 378 177 412 165 q 317 209 345 188 q 274 264 290 230 q 258 339 258 297 q 274 415 258 381 q 317 469 290 448 q 378 502 345 490 q 449 513 412 513 q 695 406 576 513 q 689 435 689 420 q 808 605 689 500 q 888 743 888 669 q 858 822 888 789 q 783 854 827 854 q 714 831 743 854 q 685 773 685 807 q 699 735 685 751 q 730 719 712 719 q 759 730 747 719 q 770 755 770 740 q 744 766 754 755 q 733 793 733 778 q 748 827 733 813 q 785 841 764 841 q 849 812 822 841 q 875 743 875 784 q 855 676 875 707 q 799 614 835 645 q 768 604 786 604 q 660 641 734 604 q 448 689 563 689 q 329 675 387 689 q 222 631 272 660 q 135 560 172 602 q 76 462 97 519 q 54 339 54 405 q 55 313 54 326 q 14 319 39 319 "},"":{"ha":848,"x_min":14,"x_max":888,"o":"m 142 922 l 340 760 q 373 746 357 746 l 509 746 q 541 760 525 746 l 739 922 l 524 922 q 500 909 511 922 l 445 836 l 437 836 l 381 909 q 358 922 371 922 l 142 922 m 14 319 q 48 279 35 298 q 68 236 62 259 q 125 129 86 177 q 215 51 164 81 q 327 5 267 21 q 450 -11 387 -11 q 537 -4 496 -11 q 609 15 578 3 q 666 40 640 26 q 713 68 692 54 q 749 94 733 82 q 779 115 765 106 q 804 125 793 123 l 621 285 q 596 230 613 254 q 555 193 579 207 q 505 172 532 179 q 449 165 478 165 q 378 177 412 165 q 317 209 345 188 q 274 264 290 230 q 258 339 258 297 q 274 415 258 381 q 317 469 290 448 q 378 502 345 490 q 449 513 412 513 q 695 406 576 513 q 689 435 689 420 q 808 605 689 500 q 888 743 888 669 q 858 822 888 789 q 783 854 827 854 q 714 831 743 854 q 685 773 685 807 q 699 735 685 751 q 730 719 712 719 q 759 730 747 719 q 770 755 770 740 q 744 766 754 755 q 733 793 733 778 q 748 827 733 813 q 785 841 764 841 q 849 812 822 841 q 875 743 875 784 q 855 676 875 707 q 799 614 835 645 q 768 604 786 604 q 660 641 734 604 q 448 689 563 689 q 329 675 387 689 q 222 631 272 660 q 135 560 172 602 q 76 462 97 519 q 54 339 54 405 q 55 313 54 326 q 14 319 39 319 "},"":{"ha":848,"x_min":14,"x_max":888,"o":"m 142 922 l 340 760 q 373 746 357 746 l 509 746 q 541 760 525 746 l 739 922 l 524 922 q 500 909 511 922 l 445 836 l 437 836 l 381 909 q 358 922 371 922 l 142 922 m 14 319 q 48 279 35 298 q 68 236 62 259 q 125 129 86 177 q 215 51 164 81 q 327 5 267 21 q 450 -11 387 -11 q 537 -4 496 -11 q 609 15 578 3 q 666 40 640 26 q 713 68 692 54 q 749 94 733 82 q 779 115 765 106 q 804 125 793 123 l 621 285 q 596 230 613 254 q 555 193 579 207 q 505 172 532 179 q 449 165 478 165 q 378 177 412 165 q 317 209 345 188 q 274 264 290 230 q 258 339 258 297 q 274 415 258 381 q 317 469 290 448 q 378 502 345 490 q 449 513 412 513 q 695 406 576 513 q 689 435 689 420 q 808 605 689 500 q 888 743 888 669 q 858 822 888 789 q 783 854 827 854 q 714 831 743 854 q 685 773 685 807 q 699 735 685 751 q 730 719 712 719 q 759 730 747 719 q 770 755 770 740 q 744 766 754 755 q 733 793 733 778 q 748 827 733 813 q 785 841 764 841 q 849 812 822 841 q 875 743 875 784 q 855 676 875 707 q 799 614 835 645 q 768 604 786 604 q 660 641 734 604 q 448 689 563 689 q 329 675 387 689 q 222 631 272 660 q 135 560 172 602 q 76 462 97 519 q 54 339 54 405 q 55 313 54 326 q 14 319 39 319 "},"":{"ha":888,"x_min":34,"x_max":875,"o":"m 88 922 l 286 760 q 319 746 302 746 l 454 746 q 487 760 471 746 l 685 922 l 469 922 q 446 909 456 922 l 391 836 l 382 836 l 327 909 q 304 922 317 922 l 88 922 m 34 678 q 93 627 72 665 q 115 549 115 590 l 115 366 q 113 339 115 349 q 106 324 112 329 q 93 318 100 319 q 74 317 87 317 q 104 274 92 303 q 115 212 115 245 l 115 109 q 100 45 115 76 q 54 0 85 15 l 448 0 q 688 63 589 0 q 820 236 787 127 q 839 278 826 259 q 875 319 852 296 q 833 313 850 319 q 834 339 834 321 q 806 478 834 414 q 728 585 778 541 q 606 654 678 629 q 448 678 534 678 l 34 678 m 319 176 l 319 317 q 340 367 319 347 q 391 388 361 388 q 425 374 411 388 q 439 340 439 360 q 430 311 439 325 q 406 297 421 297 q 388 301 398 297 q 370 306 377 306 q 349 277 349 306 q 393 260 369 260 q 442 281 422 260 q 463 330 463 301 q 448 373 463 354 q 457 377 453 374 q 463 386 460 379 q 428 393 453 387 q 393 399 404 399 q 349 386 369 399 q 319 353 329 374 l 319 502 l 441 502 q 579 458 528 502 q 631 339 631 414 q 580 220 631 264 q 441 176 529 176 l 319 176 "},"":{"ha":888,"x_min":34,"x_max":875,"o":"m 34 678 q 93 627 72 665 q 115 549 115 590 l 115 366 q 113 339 115 349 q 106 324 112 329 q 93 318 100 319 q 74 317 87 317 q 104 274 92 303 q 115 212 115 245 l 115 109 q 100 45 115 76 q 54 0 85 15 l 448 0 q 688 63 589 0 q 820 236 787 127 q 839 278 826 259 q 875 319 852 296 q 833 313 850 319 q 834 339 834 321 q 806 478 834 414 q 728 585 778 541 q 606 654 678 629 q 448 678 534 678 l 34 678 m 319 176 l 319 317 q 340 367 319 347 q 391 388 361 388 q 425 374 411 388 q 439 340 439 360 q 430 311 439 325 q 406 297 421 297 q 388 301 398 297 q 370 306 377 306 q 349 277 349 306 q 393 260 369 260 q 442 281 422 260 q 463 330 463 301 q 448 373 463 354 q 457 377 453 374 q 463 386 460 379 q 428 393 453 387 q 393 399 404 399 q 349 386 369 399 q 319 353 329 374 l 319 502 l 441 502 q 579 458 528 502 q 631 339 631 414 q 580 220 631 264 q 441 176 529 176 l 319 176 m 88 922 l 286 760 q 319 746 302 746 l 454 746 q 487 760 471 746 l 685 922 l 469 922 q 446 909 456 922 l 391 836 l 382 836 l 327 909 q 304 922 317 922 l 88 922 "},"":{"ha":916,"x_min":41,"x_max":902,"o":"m 41 251 l 142 251 l 142 109 q 127 45 142 76 q 81 0 112 15 l 475 0 q 715 63 616 0 q 847 236 814 127 q 866 278 853 259 q 902 319 880 296 q 861 313 877 319 q 861 339 861 321 q 833 478 861 414 q 755 585 805 541 q 633 654 705 629 q 475 678 561 678 l 61 678 q 121 627 99 665 q 142 549 142 590 l 142 414 l 41 414 l 41 251 m 346 176 l 346 251 l 488 251 l 488 414 l 346 414 l 346 502 l 468 502 q 606 458 555 502 q 658 339 658 414 q 607 220 658 264 q 468 176 556 176 l 346 176 "},"":{"ha":916,"x_min":41,"x_max":902,"o":"m 41 251 l 142 251 l 142 109 q 127 45 142 76 q 81 0 112 15 l 475 0 q 715 63 616 0 q 847 236 814 127 q 866 278 853 259 q 902 319 880 296 q 861 313 877 319 q 861 339 861 321 q 833 478 861 414 q 755 585 805 541 q 633 654 705 629 q 475 678 561 678 l 61 678 q 121 627 99 665 q 142 549 142 590 l 142 414 l 41 414 l 41 251 m 346 176 l 346 251 l 488 251 l 488 414 l 346 414 l 346 502 l 468 502 q 606 458 555 502 q 658 339 658 414 q 607 220 658 264 q 468 176 556 176 l 346 176 "},"":{"ha":814,"x_min":24,"x_max":754,"o":"m 183 747 q 253 760 220 760 l 644 760 l 644 916 l 183 916 l 183 747 m 24 692 q 90 642 65 677 q 115 563 115 606 l 115 366 q 113 339 115 349 q 106 324 112 329 q 93 318 100 319 q 74 317 87 317 q 104 274 92 303 q 115 212 115 245 l 115 109 q 100 45 115 76 q 54 0 85 15 l 665 0 q 718 -20 696 0 q 741 -67 741 -39 q 705 -158 741 -120 q 618 -196 669 -196 q 562 -170 585 -196 q 538 -107 538 -144 q 547 -82 538 -92 q 568 -72 555 -72 q 583 -77 576 -72 q 589 -88 589 -81 q 601 -82 596 -88 q 606 -66 606 -75 q 594 -42 606 -52 q 566 -31 583 -31 q 504 -54 529 -31 q 479 -111 479 -77 q 509 -195 479 -159 q 517 -181 509 -186 q 618 -209 557 -209 q 683 -192 653 -209 q 732 -145 713 -175 q 735 -144 733 -144 q 752 -150 743 -144 q 749 -121 749 -138 q 751 -95 749 -106 q 754 -67 754 -80 q 743 34 754 -43 q 731 160 731 112 q 739 243 731 204 q 669 184 712 206 q 583 163 626 163 l 319 163 l 319 251 l 604 251 l 604 414 l 319 414 l 319 515 l 597 515 q 671 501 638 515 q 732 456 703 487 l 732 678 l 260 678 q 24 692 112 678 "},"":{"ha":814,"x_min":24,"x_max":754,"o":"m 183 747 q 253 760 220 760 l 644 760 l 644 916 l 183 916 l 183 747 m 24 692 q 90 642 65 677 q 115 563 115 606 l 115 366 q 113 339 115 349 q 106 324 112 329 q 93 318 100 319 q 74 317 87 317 q 104 274 92 303 q 115 212 115 245 l 115 109 q 100 45 115 76 q 54 0 85 15 l 665 0 q 718 -20 696 0 q 741 -67 741 -39 q 705 -158 741 -120 q 618 -196 669 -196 q 562 -170 585 -196 q 538 -107 538 -144 q 547 -82 538 -92 q 568 -72 555 -72 q 583 -77 576 -72 q 589 -88 589 -81 q 601 -82 596 -88 q 606 -66 606 -75 q 594 -42 606 -52 q 566 -31 583 -31 q 504 -54 529 -31 q 479 -111 479 -77 q 509 -195 479 -159 q 517 -181 509 -186 q 618 -209 557 -209 q 683 -192 653 -209 q 732 -145 713 -175 q 735 -144 733 -144 q 752 -150 743 -144 q 749 -121 749 -138 q 751 -95 749 -106 q 754 -67 754 -80 q 743 34 754 -43 q 731 160 731 112 q 739 243 731 204 q 669 184 712 206 q 583 163 626 163 l 319 163 l 319 251 l 604 251 l 604 414 l 319 414 l 319 515 l 597 515 q 671 501 638 515 q 732 456 703 487 l 732 678 l 260 678 q 24 692 112 678 "},"":{"ha":814,"x_min":24,"x_max":754,"o":"m 142 922 q 192 826 153 867 q 289 761 231 784 q 414 739 347 739 q 538 761 481 739 q 635 826 596 784 q 685 922 674 867 l 496 922 q 465 865 487 887 q 414 842 443 842 q 363 865 385 842 q 331 922 340 887 l 142 922 m 24 692 q 90 642 65 677 q 115 563 115 606 l 115 366 q 113 339 115 349 q 106 324 112 329 q 93 318 100 319 q 74 317 87 317 q 104 274 92 303 q 115 212 115 245 l 115 109 q 100 45 115 76 q 54 0 85 15 l 665 0 q 718 -20 696 0 q 741 -67 741 -39 q 705 -158 741 -120 q 618 -196 669 -196 q 562 -170 585 -196 q 538 -107 538 -144 q 547 -82 538 -92 q 568 -72 555 -72 q 583 -77 576 -72 q 589 -88 589 -81 q 601 -82 596 -88 q 606 -66 606 -75 q 594 -42 606 -52 q 566 -31 583 -31 q 504 -54 529 -31 q 479 -111 479 -77 q 509 -195 479 -159 q 517 -181 509 -186 q 618 -209 557 -209 q 683 -192 653 -209 q 732 -145 713 -175 q 735 -144 733 -144 q 752 -150 743 -144 q 749 -121 749 -138 q 751 -95 749 -106 q 754 -67 754 -80 q 743 34 754 -43 q 731 160 731 112 q 739 243 731 204 q 669 184 712 206 q 583 163 626 163 l 319 163 l 319 251 l 604 251 l 604 414 l 319 414 l 319 515 l 597 515 q 671 501 638 515 q 732 456 703 487 l 732 678 l 260 678 q 24 692 112 678 "},"":{"ha":814,"x_min":24,"x_max":754,"o":"m 142 922 q 192 826 153 867 q 289 761 231 784 q 414 739 347 739 q 538 761 481 739 q 635 826 596 784 q 685 922 674 867 l 496 922 q 465 865 487 887 q 414 842 443 842 q 363 865 385 842 q 331 922 340 887 l 142 922 m 24 692 q 90 642 65 677 q 115 563 115 606 l 115 366 q 113 339 115 349 q 106 324 112 329 q 93 318 100 319 q 74 317 87 317 q 104 274 92 303 q 115 212 115 245 l 115 109 q 100 45 115 76 q 54 0 85 15 l 665 0 q 718 -20 696 0 q 741 -67 741 -39 q 705 -158 741 -120 q 618 -196 669 -196 q 562 -170 585 -196 q 538 -107 538 -144 q 547 -82 538 -92 q 568 -72 555 -72 q 583 -77 576 -72 q 589 -88 589 -81 q 601 -82 596 -88 q 606 -66 606 -75 q 594 -42 606 -52 q 566 -31 583 -31 q 504 -54 529 -31 q 479 -111 479 -77 q 509 -195 479 -159 q 517 -181 509 -186 q 618 -209 557 -209 q 683 -192 653 -209 q 732 -145 713 -175 q 735 -144 733 -144 q 752 -150 743 -144 q 749 -121 749 -138 q 751 -95 749 -106 q 754 -67 754 -80 q 743 34 754 -43 q 731 160 731 112 q 739 243 731 204 q 669 184 712 206 q 583 163 626 163 l 319 163 l 319 251 l 604 251 l 604 414 l 319 414 l 319 515 l 597 515 q 671 501 638 515 q 732 456 703 487 l 732 678 l 260 678 q 24 692 112 678 "},"":{"ha":814,"x_min":24,"x_max":754,"o":"m 326 764 q 330 754 326 758 q 339 750 334 750 l 488 750 q 498 754 494 750 q 502 764 502 758 l 502 906 q 498 916 502 911 q 488 920 494 920 l 339 920 q 330 916 334 920 q 326 906 326 911 l 326 764 m 24 692 q 90 642 65 677 q 115 563 115 606 l 115 366 q 113 339 115 349 q 106 324 112 329 q 93 318 100 319 q 74 317 87 317 q 104 274 92 303 q 115 212 115 245 l 115 109 q 100 45 115 76 q 54 0 85 15 l 665 0 q 718 -20 696 0 q 741 -67 741 -39 q 705 -158 741 -120 q 618 -196 669 -196 q 562 -170 585 -196 q 538 -107 538 -144 q 547 -82 538 -92 q 568 -72 555 -72 q 583 -77 576 -72 q 589 -88 589 -81 q 601 -82 596 -88 q 606 -66 606 -75 q 594 -42 606 -52 q 566 -31 583 -31 q 504 -54 529 -31 q 479 -111 479 -77 q 509 -195 479 -159 q 517 -181 509 -186 q 618 -209 557 -209 q 683 -192 653 -209 q 732 -145 713 -175 q 735 -144 733 -144 q 752 -150 743 -144 q 749 -121 749 -138 q 751 -95 749 -106 q 754 -67 754 -80 q 743 34 754 -43 q 731 160 731 112 q 739 243 731 204 q 669 184 712 206 q 583 163 626 163 l 319 163 l 319 251 l 604 251 l 604 414 l 319 414 l 319 515 l 597 515 q 671 501 638 515 q 732 456 703 487 l 732 678 l 260 678 q 24 692 112 678 "},"":{"ha":814,"x_min":24,"x_max":754,"o":"m 326 764 q 330 754 326 758 q 339 750 334 750 l 488 750 q 498 754 494 750 q 502 764 502 758 l 502 906 q 498 916 502 911 q 488 920 494 920 l 339 920 q 330 916 334 920 q 326 906 326 911 l 326 764 m 24 692 q 90 642 65 677 q 115 563 115 606 l 115 366 q 113 339 115 349 q 106 324 112 329 q 93 318 100 319 q 74 317 87 317 q 104 274 92 303 q 115 212 115 245 l 115 109 q 100 45 115 76 q 54 0 85 15 l 665 0 q 718 -20 696 0 q 741 -67 741 -39 q 705 -158 741 -120 q 618 -196 669 -196 q 562 -170 585 -196 q 538 -107 538 -144 q 547 -82 538 -92 q 568 -72 555 -72 q 583 -77 576 -72 q 589 -88 589 -81 q 601 -82 596 -88 q 606 -66 606 -75 q 594 -42 606 -52 q 566 -31 583 -31 q 504 -54 529 -31 q 479 -111 479 -77 q 509 -195 479 -159 q 517 -181 509 -186 q 618 -209 557 -209 q 683 -192 653 -209 q 732 -145 713 -175 q 735 -144 733 -144 q 752 -150 743 -144 q 749 -121 749 -138 q 751 -95 749 -106 q 754 -67 754 -80 q 743 34 754 -43 q 731 160 731 112 q 739 243 731 204 q 669 184 712 206 q 583 163 626 163 l 319 163 l 319 251 l 604 251 l 604 414 l 319 414 l 319 515 l 597 515 q 671 501 638 515 q 732 456 703 487 l 732 678 l 260 678 q 24 692 112 678 "},"":{"ha":814,"x_min":24,"x_max":753,"o":"m 24 692 q 90 642 65 677 q 115 563 115 607 l 115 366 q 113 339 115 349 q 106 324 112 329 q 93 318 100 319 q 74 317 87 317 q 104 274 92 303 q 115 212 115 245 l 115 109 q 100 45 115 76 q 54 0 85 15 l 576 0 q 500 -59 529 -21 q 471 -142 471 -97 q 501 -215 471 -185 q 575 -245 532 -245 l 620 -245 q 691 -217 660 -245 q 731 -148 721 -188 l 739 -114 q 624 -79 624 -114 q 637 -53 624 -68 q 668 -25 649 -38 q 707 1 688 -11 q 745 21 727 12 q 731 161 731 113 q 739 243 731 204 q 669 184 712 206 q 583 163 626 163 l 319 163 l 319 251 l 604 251 l 604 414 l 319 414 l 319 515 l 590 515 q 671 497 633 515 q 736 442 709 478 q 729 520 729 478 q 741 644 729 568 q 753 745 753 721 q 750 773 753 759 q 748 800 748 785 q 751 828 748 817 q 734 822 742 822 q 730 823 731 822 q 682 870 712 853 q 617 887 652 887 q 516 859 556 887 q 508 873 508 864 q 478 789 478 837 q 503 732 478 755 q 565 709 528 709 q 593 720 581 709 q 604 745 604 730 q 600 760 604 753 q 588 766 595 766 q 582 755 588 760 q 566 750 575 750 q 545 760 554 750 q 536 785 536 770 q 560 848 536 822 q 617 874 584 874 q 703 836 668 874 q 739 745 739 799 q 718 698 739 717 q 666 678 697 678 l 260 678 q 24 692 112 678 "},"":{"ha":814,"x_min":24,"x_max":753,"o":"m 24 692 q 90 642 65 677 q 115 563 115 607 l 115 366 q 113 339 115 349 q 106 324 112 329 q 93 318 100 319 q 74 317 87 317 q 104 274 92 303 q 115 212 115 245 l 115 109 q 100 45 115 76 q 54 0 85 15 l 576 0 q 500 -59 529 -21 q 471 -142 471 -97 q 501 -215 471 -185 q 575 -245 532 -245 l 620 -245 q 691 -217 660 -245 q 731 -148 721 -188 l 739 -114 q 624 -79 624 -114 q 637 -53 624 -68 q 668 -25 649 -38 q 707 1 688 -11 q 745 21 727 12 q 731 161 731 113 q 739 243 731 204 q 669 184 712 206 q 583 163 626 163 l 319 163 l 319 251 l 604 251 l 604 414 l 319 414 l 319 515 l 590 515 q 671 497 633 515 q 736 442 709 478 q 729 520 729 478 q 741 644 729 568 q 753 745 753 721 q 750 773 753 759 q 748 800 748 785 q 751 828 748 817 q 734 822 742 822 q 730 823 731 822 q 682 870 712 853 q 617 887 652 887 q 516 859 556 887 q 508 873 508 864 q 478 789 478 837 q 503 732 478 755 q 565 709 528 709 q 593 720 581 709 q 604 745 604 730 q 600 760 604 753 q 588 766 595 766 q 582 755 588 760 q 566 750 575 750 q 545 760 554 750 q 536 785 536 770 q 560 848 536 822 q 617 874 584 874 q 703 836 668 874 q 739 745 739 799 q 718 698 739 717 q 666 678 697 678 l 260 678 q 24 692 112 678 "},"":{"ha":814,"x_min":24,"x_max":754,"o":"m 115 922 l 313 760 q 346 746 330 746 l 481 746 q 514 760 498 746 l 712 922 l 496 922 q 473 909 484 922 l 418 836 l 410 836 l 354 909 q 331 922 344 922 l 115 922 m 24 692 q 90 642 65 677 q 115 563 115 606 l 115 366 q 113 339 115 349 q 106 324 112 329 q 93 318 100 319 q 74 317 87 317 q 104 274 92 303 q 115 212 115 245 l 115 109 q 100 45 115 76 q 54 0 85 15 l 665 0 q 718 -20 696 0 q 741 -67 741 -39 q 705 -158 741 -120 q 618 -196 669 -196 q 562 -170 585 -196 q 538 -107 538 -144 q 547 -82 538 -92 q 568 -72 555 -72 q 583 -77 576 -72 q 589 -88 589 -81 q 601 -82 596 -88 q 606 -66 606 -75 q 594 -42 606 -52 q 566 -31 583 -31 q 504 -54 529 -31 q 479 -111 479 -77 q 509 -195 479 -159 q 517 -181 509 -186 q 618 -209 557 -209 q 683 -192 653 -209 q 732 -145 713 -175 q 735 -144 733 -144 q 752 -150 743 -144 q 749 -121 749 -138 q 751 -95 749 -106 q 754 -67 754 -80 q 743 34 754 -43 q 731 160 731 112 q 739 243 731 204 q 669 184 712 206 q 583 163 626 163 l 319 163 l 319 251 l 604 251 l 604 414 l 319 414 l 319 515 l 597 515 q 671 501 638 515 q 732 456 703 487 l 732 678 l 260 678 q 24 692 112 678 "},"":{"ha":814,"x_min":24,"x_max":754,"o":"m 115 922 l 313 760 q 346 746 330 746 l 481 746 q 514 760 498 746 l 712 922 l 496 922 q 473 909 484 922 l 418 836 l 410 836 l 354 909 q 331 922 344 922 l 115 922 m 24 692 q 90 642 65 677 q 115 563 115 606 l 115 366 q 113 339 115 349 q 106 324 112 329 q 93 318 100 319 q 74 317 87 317 q 104 274 92 303 q 115 212 115 245 l 115 109 q 100 45 115 76 q 54 0 85 15 l 665 0 q 718 -20 696 0 q 741 -67 741 -39 q 705 -158 741 -120 q 618 -196 669 -196 q 562 -170 585 -196 q 538 -107 538 -144 q 547 -82 538 -92 q 568 -72 555 -72 q 583 -77 576 -72 q 589 -88 589 -81 q 601 -82 596 -88 q 606 -66 606 -75 q 594 -42 606 -52 q 566 -31 583 -31 q 504 -54 529 -31 q 479 -111 479 -77 q 509 -195 479 -159 q 517 -181 509 -186 q 618 -209 557 -209 q 683 -192 653 -209 q 732 -145 713 -175 q 735 -144 733 -144 q 752 -150 743 -144 q 749 -121 749 -138 q 751 -95 749 -106 q 754 -67 754 -80 q 743 34 754 -43 q 731 160 731 112 q 739 243 731 204 q 669 184 712 206 q 583 163 626 163 l 319 163 l 319 251 l 604 251 l 604 414 l 319 414 l 319 515 l 597 515 q 671 501 638 515 q 732 456 703 487 l 732 678 l 260 678 q 24 692 112 678 "},"":{"ha":888,"x_min":14,"x_max":913,"o":"m 14 319 q 49 278 35 297 q 68 236 62 259 q 202 58 101 124 q 448 -7 303 -7 q 566 -2 492 -7 q 658 3 640 3 q 747 -45 715 3 q 780 -182 780 -93 l 787 -182 l 787 148 q 818 248 787 188 q 802 242 812 248 q 787 236 791 236 l 787 271 q 802 335 787 304 q 848 380 817 365 l 427 380 l 427 217 q 484 239 455 233 q 556 244 513 244 l 610 244 l 610 163 q 448 156 522 156 q 366 170 403 156 q 304 209 329 184 q 265 268 279 234 q 251 339 251 301 q 303 465 251 417 q 441 513 356 513 q 551 490 504 513 q 619 424 597 468 l 822 605 q 881 672 861 639 q 902 743 902 704 q 905 784 902 759 q 913 822 908 808 q 896 815 907 822 q 881 809 886 809 q 809 850 848 850 q 771 838 787 850 q 755 807 755 825 q 765 782 755 792 q 789 772 775 772 q 800 797 789 789 q 827 806 811 806 q 870 789 851 806 q 888 743 888 772 q 868 677 888 708 q 812 614 848 646 q 774 604 801 604 q 653 642 725 604 q 441 689 564 689 q 283 664 355 689 q 161 593 211 638 q 82 482 111 547 q 54 339 54 417 q 55 313 54 326 q 14 319 39 319 m 136 752 l 351 752 q 374 765 364 752 l 430 839 l 438 839 l 494 765 q 517 752 504 752 l 743 752 l 534 915 q 502 928 517 928 l 366 928 q 334 915 350 928 l 136 752 "},"":{"ha":888,"x_min":14,"x_max":913,"o":"m 14 319 q 49 278 35 297 q 68 236 62 259 q 202 58 101 124 q 448 -7 303 -7 q 566 -2 492 -7 q 658 3 640 3 q 747 -45 715 3 q 780 -182 780 -93 l 787 -182 l 787 148 q 818 248 787 188 q 802 242 812 248 q 787 236 791 236 l 787 271 q 802 335 787 304 q 848 380 817 365 l 427 380 l 427 217 q 484 239 455 233 q 556 244 513 244 l 610 244 l 610 163 q 448 156 522 156 q 366 170 403 156 q 304 209 329 184 q 265 268 279 234 q 251 339 251 301 q 303 465 251 417 q 441 513 356 513 q 551 490 504 513 q 619 424 597 468 l 822 605 q 881 672 861 639 q 902 743 902 704 q 905 784 902 759 q 913 822 908 808 q 896 815 907 822 q 881 809 886 809 q 809 850 848 850 q 771 838 787 850 q 755 807 755 825 q 765 782 755 792 q 789 772 775 772 q 800 797 789 789 q 827 806 811 806 q 870 789 851 806 q 888 743 888 772 q 868 677 888 708 q 812 614 848 646 q 774 604 801 604 q 653 642 725 604 q 441 689 564 689 q 283 664 355 689 q 161 593 211 638 q 82 482 111 547 q 54 339 54 417 q 55 313 54 326 q 14 319 39 319 m 136 752 l 351 752 q 374 765 364 752 l 430 839 l 438 839 l 494 765 q 517 752 504 752 l 743 752 l 534 915 q 502 928 517 928 l 366 928 q 334 915 350 928 l 136 752 "},"":{"ha":888,"x_min":14,"x_max":913,"o":"m 163 922 q 212 826 173 867 q 309 761 252 784 q 434 739 367 739 q 559 761 501 739 q 656 826 616 784 q 705 922 695 867 l 517 922 q 485 865 507 887 q 434 842 463 842 q 383 865 405 842 q 351 922 361 887 l 163 922 m 14 319 q 49 278 35 297 q 68 236 62 259 q 202 58 101 124 q 448 -7 303 -7 q 566 -2 492 -7 q 658 3 640 3 q 747 -45 715 3 q 780 -182 780 -93 l 787 -182 l 787 148 q 818 248 787 188 q 802 242 812 248 q 787 236 791 236 l 787 271 q 802 335 787 304 q 848 380 817 365 l 427 380 l 427 217 q 484 239 455 233 q 556 244 513 244 l 610 244 l 610 163 q 448 156 522 156 q 366 170 403 156 q 304 209 329 184 q 265 268 279 234 q 251 339 251 301 q 303 465 251 417 q 441 513 356 513 q 551 490 504 513 q 619 424 597 468 l 822 605 q 881 672 861 639 q 902 743 902 704 q 905 784 902 759 q 913 822 908 808 q 896 815 907 822 q 881 809 886 809 q 844 842 866 830 q 797 854 822 854 q 727 831 756 854 q 699 773 699 807 q 713 735 699 752 q 747 719 728 719 q 773 729 763 719 q 784 755 784 740 q 757 766 768 755 q 746 793 746 778 q 762 827 746 813 q 799 841 777 841 q 862 812 836 841 q 888 743 888 784 q 868 677 888 708 q 812 614 848 646 q 774 604 801 604 q 653 642 725 604 q 441 689 564 689 q 283 664 355 689 q 161 593 211 638 q 82 482 111 547 q 54 339 54 417 q 55 313 54 326 q 14 319 39 319 "},"":{"ha":888,"x_min":14,"x_max":913,"o":"m 163 922 q 212 826 173 867 q 309 761 252 784 q 434 739 367 739 q 559 761 501 739 q 656 826 616 784 q 705 922 695 867 l 517 922 q 485 865 507 887 q 434 842 463 842 q 383 865 405 842 q 351 922 361 887 l 163 922 m 14 319 q 49 278 35 297 q 68 236 62 259 q 202 58 101 124 q 448 -7 303 -7 q 566 -2 492 -7 q 658 3 640 3 q 747 -45 715 3 q 780 -182 780 -93 l 787 -182 l 787 148 q 818 248 787 188 q 802 242 812 248 q 787 236 791 236 l 787 271 q 802 335 787 304 q 848 380 817 365 l 427 380 l 427 217 q 484 239 455 233 q 556 244 513 244 l 610 244 l 610 163 q 448 156 522 156 q 366 170 403 156 q 304 209 329 184 q 265 268 279 234 q 251 339 251 301 q 303 465 251 417 q 441 513 356 513 q 551 490 504 513 q 619 424 597 468 l 822 605 q 881 672 861 639 q 902 743 902 704 q 905 784 902 759 q 913 822 908 808 q 896 815 907 822 q 881 809 886 809 q 844 842 866 830 q 797 854 822 854 q 727 831 756 854 q 699 773 699 807 q 713 735 699 752 q 747 719 728 719 q 773 729 763 719 q 784 755 784 740 q 757 766 768 755 q 746 793 746 778 q 762 827 746 813 q 799 841 777 841 q 862 812 836 841 q 888 743 888 784 q 868 677 888 708 q 812 614 848 646 q 774 604 801 604 q 653 642 725 604 q 441 689 564 689 q 283 664 355 689 q 161 593 211 638 q 82 482 111 547 q 54 339 54 417 q 55 313 54 326 q 14 319 39 319 "},"":{"ha":888,"x_min":14,"x_max":913,"o":"m 346 764 q 350 754 346 758 q 359 750 354 750 l 509 750 q 518 754 514 750 q 522 764 522 758 l 522 906 q 518 916 522 911 q 509 920 514 920 l 359 920 q 350 916 354 920 q 346 906 346 911 l 346 764 m 14 319 q 49 278 35 297 q 68 236 62 259 q 202 58 101 124 q 448 -7 303 -7 q 566 -2 492 -7 q 658 3 640 3 q 747 -45 715 3 q 780 -182 780 -93 l 787 -182 l 787 148 q 818 248 787 188 q 802 242 812 248 q 787 236 791 236 l 787 271 q 802 335 787 304 q 848 380 817 365 l 427 380 l 427 217 q 484 239 455 233 q 556 244 513 244 l 610 244 l 610 163 q 448 156 522 156 q 366 170 403 156 q 304 209 329 184 q 265 268 279 234 q 251 339 251 301 q 303 465 251 417 q 441 513 356 513 q 551 490 504 513 q 619 424 597 468 l 822 605 q 881 672 861 639 q 902 743 902 704 q 905 784 902 759 q 913 822 908 808 q 896 815 907 822 q 881 809 886 809 q 844 842 866 830 q 797 854 822 854 q 727 831 756 854 q 699 773 699 807 q 713 735 699 752 q 747 719 728 719 q 773 729 763 719 q 784 755 784 740 q 757 766 768 755 q 746 793 746 778 q 762 827 746 813 q 799 841 777 841 q 862 812 836 841 q 888 743 888 784 q 868 677 888 708 q 812 614 848 646 q 774 604 801 604 q 653 642 725 604 q 441 689 564 689 q 283 664 355 689 q 161 593 211 638 q 82 482 111 547 q 54 339 54 417 q 55 313 54 326 q 14 319 39 319 "}}}
